<svg id="Слой_1" data-name="Слой 1" xmlns="http://www.w3.org/2000/svg" viewBox="0 0 2981.21 1051.45"><defs><style>.cls-1{font-size:124px;font-family:ArialMT, Arial;}.cls-2{letter-spacing:-0.06em;}.cls-3{fill:#ffffff;}</style></defs><title>LOGO FOR WEB</title><text class="cls-1" transform="translate(1440.16 695.42)"><tspan class="cls-2"> </tspan><tspan x="27.61" y="0">Adventures in Central</tspan><tspan class="cls-2" x="1220.02" y="0"> </tspan><tspan x="1247.63" y="0">Asia</tspan></text><path class="cls-3" d="M868.74,839.31a7.4,7.4,0,0,0,1.57-.37,17.46,17.46,0,0,1,7.63-1.18c.72,0,1.44,0,2.17,0a12.36,12.36,0,0,0,10.19-5.63,26.13,26.13,0,0,0,1.59-2.57A53.19,53.19,0,0,0,896,819.07a2,2,0,0,0-.22-1.21c-.16-.38-1-.37-1.55,0-.72.48-1.44.95-2.13,1.48Q880.71,828,869.38,836.7a7,7,0,0,0-1.21,1.22,1,1,0,0,0-.14.8C868.11,838.93,868.42,839.06,868.74,839.31ZM823.6,758.53c0,.38.55.67,1,.61s1.15-.13,1.71-.24c5.54-1.12,11.1-2.15,16.61-3.38,12.45-2.79,24.81-5.95,37.09-9.39,7.26-2,14.49-4.16,21.71-6.32,4.29-1.29,4.27-1.36,4.15-6.43,0-.45,0-1.61-.18-2.76-.17-1.59-.5-3.16-.61-4.74a133.58,133.58,0,0,0-1.85-14.65A37,37,0,0,0,899,699.42a15.37,15.37,0,0,0-4.53-5.21,10.24,10.24,0,0,0-9-1.8,24.56,24.56,0,0,0-7.46,3.42,45.16,45.16,0,0,0-11.27,10.75c-2.86,4-5.81,8-8.76,11.92C847.88,732,837.24,745,824.74,756.38a4.21,4.21,0,0,0-.88,1A2.41,2.41,0,0,0,823.6,758.53ZM744.11,609.87a8.24,8.24,0,0,0-1.48-3.23l1.31-.44c.58.83,1.22,1.63,1.89,2.41a92.35,92.35,0,0,0,9.28,9.17c6.22,5.45,12.78,10.48,19.3,15.57s13,10.17,19.49,15.32a149.78,149.78,0,0,1,13.3,11.88,56.06,56.06,0,0,1,7,8.32,16.68,16.68,0,0,0,1.88,2.38,6.56,6.56,0,0,0,4.63,2.11,13.44,13.44,0,0,0,5.16-.56c1.5-.53,3-1,4.49-1.65,3.73-1.58,7.45-3.21,11.16-4.86a80.63,80.63,0,0,0,9.88-5.48c2.7-1.7,5.34-3.49,8-5.23s5.11-3.32,7.7-4.92a97.57,97.57,0,0,0,8.34-5.5,29.71,29.71,0,0,1,9.58-5,16,16,0,0,1,11.85.8,29.85,29.85,0,0,1,3.8,2.1,40.83,40.83,0,0,1,6.77,5.45,36.44,36.44,0,0,0,7.55,5.83,64.77,64.77,0,0,0,8.11,4.19,50.65,50.65,0,0,1,4.71,2.23c5.34,3,8.12,7.72,8.8,13.7.26,2.3.29,4.63.32,7,.06,4.64,0,9.28.36,13.91.2,2.31.09,4.64.12,7,.06,3.63,0,7.25.2,10.88.18,4,.53,8.09.82,12.14a5.12,5.12,0,0,0,.2.84,1.56,1.56,0,0,0,1.76.9c.92-.44,1.82-.89,2.71-1.37,1.41-.77,2.76-1.63,4.19-2.33a27.17,27.17,0,0,1,17.33-2.51,52.29,52.29,0,0,1,8,2.08A101.34,101.34,0,0,1,987,729.11a37.59,37.59,0,0,1,13,11.32,36,36,0,0,1,5.28,10.92,95.3,95.3,0,0,0,3.15,9c7.81,19.67,16,39.17,24.86,58.4,4.12,9,8.5,17.79,12.79,26.67.82,1.69,1.8,3.31,2.72,4.95a50.83,50.83,0,0,1,5.81,14.93,32.62,32.62,0,0,1,0,10.8c-.74,3-1.26,6-1.71,9a48.61,48.61,0,0,0-.15,12.58,164.74,164.74,0,0,0,3.49,19.22c1.31,5.66,2.07,11.4,3,17.11a14.24,14.24,0,0,1,.14,2.61,47.36,47.36,0,0,0,1.22,10.34,117.59,117.59,0,0,1,1.32,13.39c0,1.73-.21,3.47-.35,5.2-.09,1.15-.28,2.3-.35,3.46a112.26,112.26,0,0,1-2.74,16.7,2.8,2.8,0,0,1-1.94,2.15,7.66,7.66,0,0,1-2.06.64,29.77,29.77,0,0,1-7.36-.27,84.85,84.85,0,0,1-17.33-5.58,116.84,116.84,0,0,1-24.12-13.76c-.81-.61-1.61-1.23-2.39-1.88a9.12,9.12,0,0,1-3.21-6.45,20.85,20.85,0,0,1,.32-6.49c.76-3.39,1.43-6.8,2.06-10.22s1.22-6.55,1.61-9.85a28.5,28.5,0,0,0-.21-9.53,3.09,3.09,0,0,1,1.63-3.64c1.24-.76,2.52-1.44,3.76-2.18s2.79-1.58,4.08-2.5a21.12,21.12,0,0,0,3.29-2.82,12,12,0,0,0,2.93-11.69,27.32,27.32,0,0,0-3.27-7.56c-.91-1.48-1.89-2.92-2.92-4.32a21.46,21.46,0,0,1-3.79-10.94c-.12-1.16-.07-2.32-.15-3.48-.15-2.17-.33-4.33-.5-6.5-.05-.58-.15-1.15-.17-1.73-.15-7-1.85-13.77-4-20.4-1.66-5.09-3.25-10.21-4.87-15.32a203.19,203.19,0,0,0-14.15-34.55,112.85,112.85,0,0,0-12.43-18.34,30.32,30.32,0,0,0-5.67-5.36q-7.51-5.37-15.48-.7a28.58,28.58,0,0,0-5.85,4.48,4,4,0,0,0-1.25,3.92c.92,4.69,1.68,9.41,2.58,14.1A60.85,60.85,0,0,1,949,805.67c0,1.88,0,3.77-.06,5.65a20.35,20.35,0,0,1-5.29,12.57c-1.24,1.42-2.63,2.71-4,4-3.81,3.78-7.61,7.56-11.13,11.63a96.1,96.1,0,0,0-12.29,17.37c-4.6,8.59-11,15.61-18.33,21.88-.66.56-1.34,1.1-2,1.66a99.94,99.94,0,0,0-10.41,9.86,143.83,143.83,0,0,1-15.64,15.09c-2.58,2.12-5.29,4.06-8,6.08a6.77,6.77,0,0,1-6.58.88,12.89,12.89,0,0,1-7.08-5.44,22.24,22.24,0,0,1-2.47-5.07,48.6,48.6,0,0,1-2.6-12.73c-.16-2.32-.38-4.63-.57-6.94-.07-.87-.19-1.73-.19-2.6,0-5.94-.26-11.89.25-17.83a4.79,4.79,0,0,0-.31-2.56c-.16-.34-.73-.7-1-.57a6.92,6.92,0,0,0-1.19.49c-.73.48-1.42,1-2.11,1.53-5,3.79-9.93,7.54-14.85,11.38a26.17,26.17,0,0,1-7.54,4.23c-5.87,2.06-11.73,4.18-17.55,6.4-4.79,1.82-5.08,1.48-5.17,7.1,0,1-.22,2-.34,3s-.29,1.72-.35,2.59A171.61,171.61,0,0,1,789.78,913a179.47,179.47,0,0,1-5.4,21.93,151.61,151.61,0,0,1-7.92,20.22c-.16.32-.54.54-.94.94a44.58,44.58,0,0,1-1-9.25,20.2,20.2,0,0,0-.62-6,5.11,5.11,0,0,1-.21-1.28c-.07-4.1-1.19-8-2.17-11.94-.6-2.38-1-4.81-1.5-7.22-.68-3.41-.76-6.9-1.46-10.31a36.54,36.54,0,0,1-.44-4.32c-.35-4.19-.56-8.39-1.22-12.55a33,33,0,0,1-.2-4.34,26.21,26.21,0,0,0-.6-6.05,5.05,5.05,0,0,1-.22-1.28,87.93,87.93,0,0,0-1.1-11.67c-.29-2.15-.45-4.33-.75-6.48a56.05,56.05,0,0,1-.9-7.76,11.26,11.26,0,0,0-.31-2.15,10.34,10.34,0,0,1-.37-1.7c-.08-3-.72-6-1-9-.31-3.62-.84-7.2-1.29-10.79-.38-3-.38-6.09-1.21-9a8.25,8.25,0,0,1-.12-1.73,17.28,17.28,0,0,0-.08-2.17c-.59-3.28-.83-6.61-1.22-9.91-.26-2.16-.51-4.31-.72-6.48-.26-2.59-.64-5.17-1-7.76-.15-1.15-.37-2.29-.42-3.45a32.91,32.91,0,0,0-.79-7.33,10.62,10.62,0,0,1-.18-2.59,24.69,24.69,0,0,0-.7-6.47,6.67,6.67,0,0,1-.22-1.73c-.09-5.66-1.35-11.22-1.7-16.86a22.89,22.89,0,0,0-.37-2.58,8,8,0,0,1-.35-1.7c.23-4.52-1.19-8.9-1.13-13.4a8.39,8.39,0,0,0-.1-1.74c-1.15-5.69-.94-11.56-2.17-17.25a16.08,16.08,0,0,1-.19-3,29.17,29.17,0,0,0-.53-5.18,27,27,0,0,1-.4-4.32A25.67,25.67,0,0,0,746,702a11.88,11.88,0,0,1-.36-2.58,61.45,61.45,0,0,0-.83-7.78A61.19,61.19,0,0,1,744,683a21.9,21.9,0,0,0-.37-3,16.3,16.3,0,0,1-.41-2.13c0-3.37-1-6.58-1.74-9.81a28.21,28.21,0,0,1-1-5.57c0-1-.29-2-.43-3s-.3-2.29-.44-3.44a18.73,18.73,0,0,0-.33-3c-.91-3.28-.6-6.62-.73-9.95a3.07,3.07,0,0,1,1.57-2.91c.24-.15.48-.32.74-.45,2.21-1.09,3-3,3.15-5.31.13-1.73.36-3.46.58-5.18a30.74,30.74,0,0,1,1.52-6.33,9.17,9.17,0,0,0-.2-6.77A39.71,39.71,0,0,1,744.11,609.87Z" transform="translate(-19.99 -23.19)"/><path class="cls-3" d="M732.26,569.56a10.91,10.91,0,0,1,.72,1.55c2.75,8.25,4.95,16.66,7,25.12.13.56.3,1.12.4,1.69a19.83,19.83,0,0,0,3.6,8.28l-1.31.44a7.2,7.2,0,0,0-.78-.89c-1.13-1.12-2.39-2.11-3.57-3.18-1-.88-1.94-1.75-2.81-2.71a4.48,4.48,0,0,1-1.15-3.2c0-.87,0-1.74,0-2.61a17.31,17.31,0,0,0-.75-5.15c-.48-1.52-.63-3.12-1-4.65-.85-3.44-.75-6.91-.82-10.38,0-1.44,0-2.89,0-4.32C732,569.55,732.23,569.5,732.26,569.56Z" transform="translate(-19.99 -23.19)"/><path class="cls-3" d="M490.11,687.14a1.16,1.16,0,0,1,0,.8,1.94,1.94,0,0,1-.63.57l-5.82,4.37a13.41,13.41,0,0,1,.54-1.66,20.4,20.4,0,0,1,2.83-4.71c.73-1,1.5-1,2.58,0A1.79,1.79,0,0,1,490.11,687.14Z" transform="translate(-19.99 -23.19)"/><path class="cls-3" d="M484.72,678.38a9.09,9.09,0,0,1-1.14,1.37A50.73,50.73,0,0,0,469.93,697c-.11.23-.42.35-.64.52a2,2,0,0,1-.18-.78,68.11,68.11,0,0,1,9-22.91c.77-1.22,1.46-2.48,2.14-3.76a1.41,1.41,0,0,0,0-.83l1.49-.34q.28,1.26.63,2.52c.38,1.4.88,2.76,1.35,4.12C484,676.46,484.34,677.38,484.72,678.38Z" transform="translate(-19.99 -23.19)"/><path class="cls-3" d="M479.87,655.57a64.59,64.59,0,0,0,1.78,13.3l-1.49.34c-.05-.29-.75-.55-1.12-.46a8.06,8.06,0,0,0-.84.24c-1.09.38-2.2.72-3.26,1.17a43,43,0,0,0-15.78,11.25c-2.39,2.72-4.61,5.57-6.91,8.36a6.88,6.88,0,0,1-1.74,1.91c-.34-.77.18-1.39.43-2A143.33,143.33,0,0,1,457.53,676a336.13,336.13,0,0,1,20.11-32,6.39,6.39,0,0,1,1.24-1.13c.05,0,.32.07.35.16a4,4,0,0,1,.36,1.2C479.7,648,479.78,651.81,479.87,655.57Z" transform="translate(-19.99 -23.19)"/><path class="cls-3" d="M447.1,617a1.66,1.66,0,0,1,.25,1.2,3.6,3.6,0,0,1-.45,1.19q-.86,1.73-1.68,3.48c-.9,1.94-1.75,3.91-2.46,5.94-.08.23-.35.4-.77.84a29.22,29.22,0,0,1,.29-5.6,48.46,48.46,0,0,1,1.52-6.66,4.43,4.43,0,0,1,.84-1.45.79.79,0,0,1,.76-.18A7.21,7.21,0,0,1,447.1,617Z" transform="translate(-19.99 -23.19)"/><path class="cls-3" d="M467.11,409.52a22.35,22.35,0,0,0,9.21-2.13,48.37,48.37,0,0,0,14.21-10.57,2.11,2.11,0,0,0,.38-1.16c0-.4-.72-.72-1.42-.6a18.48,18.48,0,0,0-2.12.42c-4.89,1.33-9.71,2.87-14.49,4.51a90.77,90.77,0,0,0-11.22,4.65,14.7,14.7,0,0,0-1.78,1.21,1.15,1.15,0,0,0,0,1.21,4.75,4.75,0,0,0,1,.84A14.79,14.79,0,0,0,467.11,409.52Zm134.61-30.73c1,2.37.45,4.16-1.8,5.52a4.48,4.48,0,0,0-1.24,1.75,3,3,0,0,0-.28,2.52c1.49,4,1.92,8.14,2.34,12.33a6.24,6.24,0,0,0,3.73,5.47c.39.18.76.41,1.15.62a2.56,2.56,0,0,1,1.32,1.64,19.56,19.56,0,0,1,.53,2.1c.55,4.08,2.67,7.29,5.51,10.12.82.82,1.7,1.57,2.55,2.37a4.81,4.81,0,0,1,1.69,3.83c-.06,1.31,0,2.61,0,3.92a2.41,2.41,0,0,1-2.14,2.35,3.15,3.15,0,0,1-.43.05c-4.36-.17-8.69.22-13,.42a32.18,32.18,0,0,1-13.16-2.43,3.14,3.14,0,0,1-2.25-2.43c-.12-.71-.44-1.38-.58-2.09-1.12-5.93-3.76-11.24-6.81-16.37a13.78,13.78,0,0,0-6.67-6A18.07,18.07,0,0,0,565,403a21.26,21.26,0,0,0-14.89,6.13,35.74,35.74,0,0,0-9.21,15.54,20.22,20.22,0,0,0-1,7.29,7.67,7.67,0,0,1-.13,1.72,1.41,1.41,0,0,1-1.07,1.25c-3.68.56-6.77,2.49-9.95,4.19-1.41.75-2.78,1.57-4.21,2.28-5.76,2.84-10.82,6.72-15.8,10.73-5.95,4.79-9.76,11-12.31,18.09a27.59,27.59,0,0,1-1,2.85,24,24,0,0,0-2.07,8.39,4.23,4.23,0,0,0,0,.87c.26,3,.53,6.05.83,9.08.08.86.37,1.71.42,2.57a92.88,92.88,0,0,1-.35,17.8c-.39,2.87-.73,5.75-1.14,8.61a67.59,67.59,0,0,0-.29,9.12c0,2.18,0,4.35.08,6.53a10.19,10.19,0,0,1-.95,4.21,1.23,1.23,0,0,1-1.46.58c-.27-.12-.54-.21-.8-.34a11.49,11.49,0,0,1-4.05-3.23,22.58,22.58,0,0,0-4.44-4.13c-2.65-2-5.28-4.09-7.92-6.13-.57-.44-1.13-.91-1.74-1.29a8.26,8.26,0,0,0-6.63-1.24,31.91,31.91,0,0,0-6.93,2.52,44.68,44.68,0,0,0-8.05,5.14c-1.35,1.08-2.75,2.12-4.14,3.17a.52.52,0,0,1-.7-.68,58.38,58.38,0,0,1,5.46-12.28A107.74,107.74,0,0,1,461,507.47c3.53-4.23,7.16-8.38,10.74-12.57,1.42-1.65,2.84-3.3,4.23-5a7.37,7.37,0,0,0,.91-1.47,1,1,0,0,0-.05-.81,1,1,0,0,0-.69-.41,8.09,8.09,0,0,0-3.39.61,24.25,24.25,0,0,0-5.61,3.28c-.8.62-1.55,1.31-2.35,1.92a.76.76,0,0,1-.73,0,1.05,1.05,0,0,1-.17-.79,8,8,0,0,1,.35-1.25A68.17,68.17,0,0,1,472,475c3.4-5.24,7.26-10.13,11.13-15,1.35-1.71,2.64-3.46,3.95-5.19a1,1,0,0,0-.13-1.19,1.92,1.92,0,0,0-.79-.28,5.1,5.1,0,0,0-1.29.14c-.42.09-.82.27-1.23.4a48.37,48.37,0,0,0-22.52,15c-1.49,1.77-2.93,3.59-4.4,5.38-.53.65-1.27,1-1.37.71a2.39,2.39,0,0,1-.19-1.24,46.06,46.06,0,0,1,5-12,38.66,38.66,0,0,1,5.92-7.5c.82-.81,1.58-1.69,2.33-2.56a1.43,1.43,0,0,0-.13-1.61,7.6,7.6,0,0,0-5.31-2.67,22.62,22.62,0,0,0-7.77.43,90.85,90.85,0,0,0-11.92,4,18.07,18.07,0,0,0-2.24,1.3l.13-.1h0a4.12,4.12,0,0,1,1.32-2.18c6.77-6.08,14.36-10.71,23.27-13a34.08,34.08,0,0,1,6.45-.73,27.43,27.43,0,0,0,3-.37c.24,0,.45-.33.62-.55a1,1,0,0,0-.25-1.15,18.21,18.21,0,0,0-8.33-4.39,22.77,22.77,0,0,0-9-.25c-3.57.56-7.12,1.14-10.63,2a1.91,1.91,0,0,1-.83-.14c-.32-.07-.18-.61.29-1,2.62-2.49,5.24-5,7.88-7.45a77.14,77.14,0,0,1,10.52-8.37,3.27,3.27,0,0,0,1.51-1.5c.11-.3-.09-1-.39-1.11a7.06,7.06,0,0,0-1.25-.29c-3.87-.2-7.26-1.78-10.57-3.6a7.21,7.21,0,0,1-1.3-1.12,42,42,0,0,1-6.14-7.29c-.64-1-1.28-1.93-1.91-2.9s-1.25-1.94-1.89-2.91c-.05-.08-.1-.15-.14-.23a4,4,0,0,1-.23-.46,3.22,3.22,0,0,1-.22-.73,2.34,2.34,0,0,1,0-.38l3.92,3.79,4.06,3.94a26,26,0,0,0,4.67,3.88,1.87,1.87,0,0,0,2-.17c.22-.19.46-.36.66-.56.41-.41.81-.84,1.21-1.26a160.37,160.37,0,0,1,30.12-24.87c5-3.24,10.14-6.2,15.21-9.3a6.57,6.57,0,0,0,2.42-1.78.51.51,0,0,0,.11-.39c-.13-.23-.29-.58-.49-.62a8.94,8.94,0,0,0-1.72-.11l-9.57,0a25.12,25.12,0,0,1-8.48-1.66,16.18,16.18,0,0,1-8.77-7.42,20.3,20.3,0,0,1-1.21-2.31c-.56-1.32-1-2.69-1.52-4,.25-.34.43-.29.67,0a34.74,34.74,0,0,0,4.92,5.5,19.72,19.72,0,0,0,13.44,5.3c1.3,0,2.61,0,3.91-.07a14,14,0,0,0,2.14-.33c.88-.18,1.58-.8,1.53-1.28a1.65,1.65,0,0,0-1.1-1.25c-.9-.46-1.87-.79-2.79-1.2-2-.9-4-1.75-5.92-2.74a46,46,0,0,1-4.46-2.7,13.31,13.31,0,0,1-4.15-4.39,1.89,1.89,0,0,1-.07-.73c.66-.05,1.06.44,1.52.74a28.85,28.85,0,0,0,14.86,4.27,62.24,62.24,0,0,0,12.11-1c4.73-.74,9.43-1.6,14.14-2.43a9.47,9.47,0,0,0,1.64-.52,1.38,1.38,0,0,0,.6-1.83,8.55,8.55,0,0,0-3-3.13,18.24,18.24,0,0,0-7.24-2.82,69.75,69.75,0,0,0-20.35-.39c-1,.12-2,.17-2.92.25-.3-.32-.28-.59.06-.74a234.29,234.29,0,0,1,30-11.67,117.36,117.36,0,0,1,20-4.13c1.58-.18,3.19-.13,4.78-.23a12.65,12.65,0,0,0,2.12-.34.93.93,0,0,0,.51-.61,1,1,0,0,0-.06-.81,5.52,5.52,0,0,0-1.29-1.13,23.12,23.12,0,0,0-9.92-2.91c-1.44-.1-2.9-.06-4.35-.06h-7c.24-.28.36-.6.57-.67a106.52,106.52,0,0,1,17.68-4.48,100.1,100.1,0,0,1,10.38-1,51,51,0,0,1,5.64.37,14.17,14.17,0,0,0,2.16,0,.93.93,0,0,0,.61-.51,1,1,0,0,0,0-.8,15.32,15.32,0,0,0-7-4.13,24,24,0,0,0-7.3-.91,4,4,0,0,1-1.21-.26s0-.34.06-.39a12.48,12.48,0,0,1,5-1.38,39.56,39.56,0,0,1,4.21-.21,62.06,62.06,0,0,1,7.93.57,5.74,5.74,0,0,0,3.41-.09.94.94,0,0,0,.45-.66,1,1,0,0,0-.31-.72,2.37,2.37,0,0,0-.75-.41l-2.4-1a63.55,63.55,0,0,0-16-3.94A26.06,26.06,0,0,0,540.18,298a35.64,35.64,0,0,0-9.58,5.92c-1.9,1.57-3.78,3.16-5.67,4.74a.58.58,0,0,1-.4.11c-.32-.05-.44-.29-.34-.62a34.24,34.24,0,0,1,3.28-8,25,25,0,0,1,17.17-12.24,42.25,42.25,0,0,1,9.06-1.06c4.93,0,9.84.08,14.76.56,7.79.77,15.59,1.62,23.44,1.39,1.74-.05,3.48-.07,5.21-.18a10.21,10.21,0,0,0,2.12-.42,1.55,1.55,0,0,0,.82-2.44,8.6,8.6,0,0,0-3.22-2.86,15.59,15.59,0,0,0-6.2-1.84c-2-.14-4-.48-6-.59s-4-.07-6-.09c-.11-.44,0-.68.35-.78,5.59-1.71,11.26-2.69,17.13-1.71a58.26,58.26,0,0,1,6,1.12,9.52,9.52,0,0,0,2.14.14.44.44,0,0,0,.34-.25c.08-.25.23-.63.11-.79a21.3,21.3,0,0,0-1.92-2.32c-3.84-4-7.54-8-11-12.36a104.08,104.08,0,0,1-13.51-21.74,83,83,0,0,1-3.7-10.21c-.75-2.44-.8-3.68-.37-3.7,1.27-.07,2.14.81,3.1,1.4q6.12,3.75,12.15,7.65c3.9,2.52,7.79,5,11.86,7.27a67.45,67.45,0,0,0,21.63,7.63l.43.08c3.64.59,4.59.12,5.46-3.74a32.09,32.09,0,0,0,.8-10.8c-.21-1.72-.24-3.47-.43-5.19-.38-3.31-.78-6.62-1.23-9.92-.4-2.86-.88-5.72-1.3-8.58a3.63,3.63,0,0,1,.08-.86c.17.22.42.41.5.65,2,6.66,4.06,13.29,5.79,20a57.47,57.47,0,0,1,2,17.21,8.26,8.26,0,0,0,0,.86,1.07,1.07,0,0,0,.59,1,1.12,1.12,0,0,0,1.37-.76,24.27,24.27,0,0,0,1.59-4,30.45,30.45,0,0,0,.59-12.07c-.61-3.56-1.11-7.14-2-10.57.21-.38.48-.38.62,0,1.12,3,2.26,6,3.29,9a43.47,43.47,0,0,1,2.16,18.42c-.06.57-.09,1.15-.1,1.72a1.4,1.4,0,0,0,1.51,1.23c1.55-.34,3.11-.67,4.62-1.15,3.46-1.1,6.88-2.27,10.32-3.42a66.52,66.52,0,0,1,11-2.64,25.11,25.11,0,0,1,14.81,2.24c1.18.55,2.32,1.19,3.5,1.75a1.5,1.5,0,0,0,1.83-.75c.7-2.2,1.35-4.42,2-6.64.13-.41.29-.8.45-1.2a1.12,1.12,0,0,1,1.11-.5,8.13,8.13,0,0,1,1.88,1,49.86,49.86,0,0,1,4.32,4.28c3.46,4.1,6.81,8.29,10.2,12.44.83,1,1.62,2.05,2.46,3.05a1.77,1.77,0,0,0,2.69.16c1.33-1.12,2.63-2.28,3.91-3.45L731.19,250a9.19,9.19,0,0,1,3.16-2.25,3.45,3.45,0,0,1-.2.32,10,10,0,0,0-.85,1.39c-2.48,5.08-4.82,10.22-6.91,15.48a67.39,67.39,0,0,0-3.54,12.52,25,25,0,0,0-.28,3.46,2.57,2.57,0,0,0,1.17,2.22,39.08,39.08,0,0,0,3.29,2.11c5,2.89,10,5.84,15.13,8.59q6,3.26,12.1,6.42t12.16,6.33c12,6.23,24,12.39,35.9,18.65q4.84,2.54,9.61,5.19,8,4.46,15.68,9.27a165.39,165.39,0,0,1,14.29,9.92,73.48,73.48,0,0,1,8.35,7.62,36,36,0,0,1,4.68,6.26,13.29,13.29,0,0,1,1.9,6.6,53.34,53.34,0,0,1-.62,9.1c-.47,3.15-1,6.29-1.34,9.46A84.63,84.63,0,0,1,851.21,406a44.94,44.94,0,0,1-7.73,14.51c-.64.79-1.33,1.54-2,2.31a10.4,10.4,0,0,1-5.77,3.64c-.56.12-1.09.39-1.64.56a35,35,0,0,0-11.81,6.33c-1.47,1.18-2.83,2.49-4.35,3.61-2.67,2-5.58,3-9,2-1-.29-2-.39-2.94-.74-4.1-1.55-7.41-4-8.89-8.33a3.58,3.58,0,0,0-3.6-2.6,63.75,63.75,0,0,0-12.57.53c-3.56.63-7.14,1.12-10.65,2-2.24.58-4.48,1.19-6.67,1.92a29.9,29.9,0,0,0-9.82,5.43,41.91,41.91,0,0,1-16.43,8.6,37.34,37.34,0,0,1-9.93.87,33.94,33.94,0,0,1-12.72-2.45,15.58,15.58,0,0,0-6.77-1.33,10.45,10.45,0,0,0-6.36,2.46,14.72,14.72,0,0,0-5.16,10.21,22.73,22.73,0,0,0,.67,8.18c3.39,12.89,6.85,25.76,10.67,38.52a423.82,423.82,0,0,0,16.14,45.45c2.45,5.72,4.67,11.54,7,17.33a.42.42,0,0,1-.33.62.58.58,0,0,1-.4-.11,18.34,18.34,0,0,1-1.59-1.46A6.89,6.89,0,0,1,728,563a8.37,8.37,0,0,0-6-3.88,7.12,7.12,0,0,0-4.62.83,2.93,2.93,0,0,0-1.53,2.5,17.49,17.49,0,0,0,.11,3.9,72.91,72.91,0,0,1,.75,7.35c.1,1.16.26,2.31.36,3.46.33,3.61,1.23,7.15,1.19,10.8a7.83,7.83,0,0,0,.27,2.15c.75,2.7.55,5.46.58,8.21a8.35,8.35,0,0,1-2.13,5.56,14.08,14.08,0,0,1-2.22,2.07,36.77,36.77,0,0,1-11.9,6.16,5.94,5.94,0,0,1-3.84,0,5.59,5.59,0,0,1-.82-.26,85.14,85.14,0,0,0-10.86-4.41,2.2,2.2,0,0,1-1.51-2c-.33-5-2-9.63-3-14.43a59.74,59.74,0,0,1-1.58-8.52c-.1-1.44-.59-2.85-.7-4.28a72,72,0,0,1,.38-16.92c.21-1.29.28-2.59.42-3.89a41,41,0,0,1,.51-4.3,6.79,6.79,0,0,0-.72-4.63,4.64,4.64,0,0,0-3.72-2.69,19.72,19.72,0,0,1-5.1-1,3.16,3.16,0,0,1-2.22-3.34,6.15,6.15,0,0,1,.5-2.53,21,21,0,0,1,2.5-4.07c.78-1,1.57-2.08,2.25-3.19a10.09,10.09,0,0,0,1-9.2c-2.19-5.7-3.38-11.68-5.33-17.44-.47-1.37-.83-2.77-1.26-4.15a3.85,3.85,0,0,1,.18-2.55,6.19,6.19,0,0,1,.32-.81c3.32-6.27,5.92-12.91,9.82-18.89a45,45,0,0,0,2.48-4.59,17.53,17.53,0,0,0,1.1-2.82,5.13,5.13,0,0,0-4.27-6.39c-2.59-.34-5.19-.55-7.79-.82a2.55,2.55,0,0,1-1.86-3.65,4,4,0,0,1,1.64-2c2.07-1,4.16-2,6.24-3.05a7.7,7.7,0,0,1,3.43-.42,11.1,11.1,0,0,0,4.65-.95,8.37,8.37,0,0,0,1.15-.6,4.32,4.32,0,0,0,1.78-4.93c-.54-1.34-1-2.71-1.55-4.06a2.91,2.91,0,0,1,.2-2.51q.5-1,1.08-1.89a4.06,4.06,0,0,0,.32-4.13,2.91,2.91,0,0,1,.73-3.56c.1-.1.19-.21.29-.32a5.16,5.16,0,0,0,1.47-3.08,6.55,6.55,0,0,1,2.24-4.1,23,23,0,0,0,2.05-2.25,3.59,3.59,0,0,0,.46-3.7,10.17,10.17,0,0,0-.79-1.54,61,61,0,0,0-6.26-8.88c-.47-.55-1-1.08-1.42-1.64a2.13,2.13,0,0,1-.26-2.8,9.93,9.93,0,0,0,2.06-6.06,2.24,2.24,0,0,1,1.73-2.24c4.37-1.31,7.42-4.38,10.35-7.63,1.36-1.51,2.7-3,4.06-4.53a2,2,0,0,0-.67-3.27,10.39,10.39,0,0,0-1.19-.51c-.41-.13-.85-.18-1.27-.27-2.4-.55-4.81-1.05-7.19-1.65a15.53,15.53,0,0,1-5.81-2.81,52.26,52.26,0,0,1-7.53-7.19,130.92,130.92,0,0,1-8.4-10.53c-2.1-2.95-4.45-5.72-6.68-8.58a24.19,24.19,0,0,1-2-2.8c-3-5.32-7-9.95-10.71-14.78a13,13,0,0,0-7.89-5,27.62,27.62,0,0,0-6.45-.72,42.57,42.57,0,0,1-4.79,0c-5-.47-9.79.63-14.57,1.86a9.79,9.79,0,0,0-4.31,2c-3.32,1.55-6,4-9,6.09a21,21,0,0,0-4.24,4.34c-.81,1-1.57,2.09-2.3,3.17a17,17,0,0,0-2.74,12.84c.44,2.57.91,5.14,1.52,7.67,1.2,4.94,1.9,9.95,2.61,15A1.55,1.55,0,0,0,601.72,378.79Z" transform="translate(-19.99 -23.19)"/><path class="cls-3" d="M184.67,660.7a1.12,1.12,0,0,0,1.83,0c.71-1.42,1.43-2.84,2-4.31,4.55-11,9.37-21.84,14.38-32.62,7.94-17.09,16.49-33.88,25.52-50.43a341.36,341.36,0,0,1,24.9-39.27c6.62-9,13.39-17.87,20.06-26.83q9.35-12.56,18.63-25.17c3.43-4.68,6.64-9.51,10.11-14.16a388.55,388.55,0,0,1,28.68-33.83,559,559,0,0,1,42.78-40.82c5.5-4.73,11.14-9.28,16.7-13.94.88-.74,1.68-1.58,2.5-2.39a1.47,1.47,0,0,0-.07-1.62,15,15,0,0,0-4.36-2.82c-3.15-1.48-6.31-2.93-9.52-4.26-9.51-3.91-19.25-7.18-29-10.34q-25.81-8.34-52.05-15.28c-19.56-5.22-39.18-10.17-59.09-13.95-4.41-.83-8.86-1.32-13.26-2.2a22.3,22.3,0,0,0-2.6-.13,33.46,33.46,0,0,1-3.89-.35,10,10,0,0,0-6.07.79c-.41.63-.9,1.34-1.34,2.08-1.84,3.12-3.64,6.27-5.51,9.37-2,3.35-4.12,6.65-6.15,10a256.45,256.45,0,0,0-13,24.1,73.68,73.68,0,0,0-2.88,6.8c-2.35,6.7-4.69,13.41-6.83,20.17a423.76,423.76,0,0,0-11.69,45.86c-1.74,8.81-3.27,17.65-4.41,26.56q-.52,4.1-1,8.19c-.23,2-.43,4-.65,6-.1,1-.21,2-.31,3-.17,1.87-.37,3.74-.51,5.62-.1,1.3,0,2.62-.22,3.91a80.5,80.5,0,0,0-.66,10.41c-.14,5.36-.25,10.72-.36,16.09,0,.43,0,.87,0,1.3.11,4.64.21,9.28.34,13.91.09,3,0,6.11.41,9.12.57,4.61.29,9.29,1.28,13.85a160.91,160.91,0,0,0,2.08,17.24c.82,5.58,1.91,11.12,3,16.66A320.33,320.33,0,0,0,174.26,634q4,12.19,9,24C183.68,658.94,184.18,659.82,184.67,660.7ZM453,332.57a1.28,1.28,0,0,0-.31-1.86,36.09,36.09,0,0,0-6-2.55c-7.8-3.1-15.62-6.15-23.43-9.22-3.09-1.22-6.21-2.36-9.42-3.27-9.46-2.67-18.87-5.52-28.32-8.23-10.28-3-20.58-5.87-31-8.37q-8.85-2.13-17.75-4.07c-4.52-1-9.07-1.8-13.6-2.71-3.83-.76-7.64-1.61-11.47-2.3-4-.73-8-1.33-12-2-2.42-.38-4.85-.75-7.27-1.14-1.86-.29-3.75-.4-5.58-.77a35.18,35.18,0,0,0-5.58-.78,16.5,16.5,0,0,1-1.71-.29c-1.29-.18-2.58-.35-3.87-.49a18.47,18.47,0,0,1-2.59-.24,29.19,29.19,0,0,0-6-.69,25.33,25.33,0,0,1-2.57-.39,22.4,22.4,0,0,0-2.57-.37c-1.74-.07-3.44-.36-5.16-.59-3.29-.45-6.63-.56-10.52-.85a6.07,6.07,0,0,0-4.37,2.26c-.37.45-.78.86-1.14,1.31-2.56,3.15-5.12,6.29-7.66,9.46-.9,1.13-1.75,2.31-2.58,3.49a1.43,1.43,0,0,0,1,2.3,18.65,18.65,0,0,0,2.58.27c7.55.11,15,.9,22.53,1.68,9.95,1,19.83,2.56,29.67,4.3,16,2.81,31.82,6.41,47.54,10.46q33.27,8.58,65.69,20c9.44,3.3,18.83,6.73,28,10.77.66.29,1.33.56,2,.8a2.42,2.42,0,0,0,2.08-.22,20.33,20.33,0,0,0,1.82-1.19q9-6.54,17.89-13.1A18.53,18.53,0,0,0,453,332.57Zm4.18,317.07c-.06-.41-.73-.46-1.51-.12l-1.22.6c.66-1.77,1.13-3,1.56-4.22a3.42,3.42,0,0,0,.17-1.27.9.9,0,0,0-.47-.63,1,1,0,0,0-.8.13,3,3,0,0,0-.87,1,42.41,42.41,0,0,0-3,7.67,7.62,7.62,0,0,0-.14,2.14,1.44,1.44,0,0,0,2,.94,3.34,3.34,0,0,0,.69-.51c1.17-1.47,2.35-3,3.45-4.47A1.81,1.81,0,0,0,457.14,649.64Zm.72,11.84a1.42,1.42,0,0,0-.71.44,3.2,3.2,0,0,1-1.86.94l.19-.24a3.88,3.88,0,0,0,.66-2.5c0-.21-.31-.43-.51-.59s-.29,0-.42,0a2.43,2.43,0,0,0-1.39,1.55q-1.43,4-2.73,8.15A6.06,6.06,0,0,0,451,671a1.39,1.39,0,0,0,1,1.24,2.39,2.39,0,0,0,1.22-.25,2.62,2.62,0,0,0,.89-.92q2.25-3.66,4.45-7.37a3.05,3.05,0,0,0,.38-1.22,1,1,0,0,0-1.08-1Zm37.7-357.06a3.85,3.85,0,0,0,3-.19c.52-.26,1-.53,1.54-.81q8.42-4.56,16.81-9.14c2.29-1.25,4.58-2.51,6.84-3.8a14.44,14.44,0,0,0,1.75-1.27,1.3,1.3,0,0,0-.17-1.59c-1.58-.71-3.14-1.48-4.75-2.1-9.73-3.74-19.55-7.23-29.42-10.56q-24.06-8.11-48.56-14.78-13-3.51-26.1-6.51c-8.88-2-17.81-3.81-26.75-5.53-1.84-.36-3.7-.67-5.55-1-2.85-.46-5.7-.92-8.54-1.46-2.56-.47-5.13-.89-7.72-1.15s-5.39-1.11-8.17-1.07c-1.8-.64-3.72-.54-5.57-.83a42,42,0,0,0-6-.83,14.54,14.54,0,0,1-1.71-.29l-3.87-.51-3-.38c-1.29-.16-2.58-.34-3.87-.48-1-.12-2-.11-3-.31-3.7-.75-7.51-.53-11.19-1.37a8,8,0,0,0-1.3-.06c-3.91-.13-7.74-1.14-11.67-1a7.43,7.43,0,0,1-1.27-.28,22.82,22.82,0,0,0-2.58-.35A52.28,52.28,0,0,1,296,236a19.94,19.94,0,0,0-3.39-.21c-1.23,0-2,0-2.68,0a4.77,4.77,0,0,0-3.92,1.47c-4.65,4.58-9.33,9.13-14,13.71a8.39,8.39,0,0,0-1,1.39,1.23,1.23,0,0,0,.46,1.49,11,11,0,0,0,2.09.52c3.31.34,6.64.59,9.95.94,6.63.68,13.27,1.33,19.89,2.13,12.08,1.48,24.15,3.1,36.17,5,14.61,2.32,29.14,5,43.55,8.37a1010.09,1010.09,0,0,1,110,32.75C493.91,303.87,494.74,304.14,495.56,304.42ZM600.21,25.67c5.89.75,11.82,1.26,17.7,2.07,6.6.92,13.19,2,19.75,3.15q9.42,1.66,18.77,3.66,21.71,4.64,42.88,11.27a517.22,517.22,0,0,1,55,20.58q19.89,8.8,39,19.21,23.51,12.81,45.61,27.92a539.94,539.94,0,0,1,51.5,40q18.5,16.23,35.45,34A562.92,562.92,0,0,1,973.72,245c10.57,14.56,20.53,29.52,29.67,45A474.41,474.41,0,0,1,1056.92,424c2,8.47,3.74,17,5.2,25.54.93,5.42,1.73,10.86,2.58,16.3.89,5.73,1.3,11.51,2.26,17.23.17,1,.11,2,.2,3,.15,1.74.33,3.46.51,5.19,0,.29.13.57.15.86.34,4.92.75,9.83,1,14.75s.17,9.85.72,14.77a64.31,64.31,0,0,1,.21,7q0,7.18,0,14.36c0,3.91-.11,7.82-.43,11.73-.35,4.19-.3,8.4-.46,12.61,0,1.44-.16,2.89-.27,4.33q-.27,3.48-.55,6.94c-.15,1.73-.31,3.46-.47,5.19,0,.43-.16.86-.16,1.29,0,4.22-.89,8.35-1.17,12.55-.19,2.89-.58,5.76-1,8.63-.53,4-1.07,8-1.7,12-.86,5.43-1.73,10.86-2.72,16.28-1,5.26-2.07,10.51-3.12,15.76-2.3,11.5-5,22.92-8,34.25q-6.14,22.89-13.81,45.3c-.19.53-.42,1-.65,1.65-.18-.22-.33-.33-.32-.4.28-1.28.57-2.54.88-3.81q2.93-12.25,5.1-24.67c.69-4,1.61-8,2.17-12,.7-5,1.72-10,2.18-15,.27-3,.84-6,1.25-9,.16-1.15.26-2.31.39-3.46.17-1.44.33-2.87.5-4.31.09-.72.24-1.44.26-2.16.09-2.76.63-5.48.75-8.22.27-5.94,1.27-11.83,1.16-17.79a19.34,19.34,0,0,1,.14-3,104.33,104.33,0,0,0,.65-13.46q.06-13.49,0-27a118.31,118.31,0,0,0-.66-14.33c-.2-1.58-.12-3.19-.18-4.78a59,59,0,0,0-.66-9.1,16.08,16.08,0,0,1-.18-2.6,44.73,44.73,0,0,0-.61-6.93c-.18-1-.2-2-.28-3s0-1.74-.15-2.6c-.44-3.6-.91-7.18-1.37-10.78-.38-3-.71-6-1.14-9-.64-4.45-1.27-8.89-2-13.31-.94-5.42-2.08-10.81-3-16.22-1.3-7.28-3-14.47-4.71-21.65a539.11,539.11,0,0,0-16-53.71q-7.56-21.33-16.85-41.95a525.71,525.71,0,0,0-24.16-47.21c-.79-1.37-1.64-2.73-2.54-4a2,2,0,0,0-2.25-1,23.5,23.5,0,0,1-6.47.62,22.1,22.1,0,0,0-3.87.46,22.07,22.07,0,0,1-6.88.61,8.11,8.11,0,0,0-2.58.24,9.07,9.07,0,0,1-3.88.07,4.12,4.12,0,0,0-1.71-.07c-2.41.54-4.89.4-7.32.93s-4.86.67-7.28,1.1c-3.13.55-6.29,1-9.42,1.5-4.14.67-8.28,1.34-12.41,2.05-3.71.64-7.41,1.29-11.1,2-5.11,1-10.21,2.08-15.3,3.16-12.32,2.61-24.55,5.56-36.67,8.95l-4.33,1.21a3.6,3.6,0,0,1-2.19-1,243,243,0,0,0-28.61-18.18l-.47-.26c-2.25-1.25-4.5-2.51-6.73-3.79a1.68,1.68,0,0,1-.47-.67c-.13-.24.29-.72.79-.89.68-.24,1.37-.48,2.06-.68,6-1.68,12-3.41,18-5,11.49-3.1,23.14-5.46,34.85-7.55,8.42-1.5,16.87-2.82,25.37-3.87,6.18-.77,12.36-1.6,18.55-2.33,4-.47,8.08-.8,12.13-1.17,3.17-.29,6.35-.52,9.52-.85a14,14,0,0,0,2.5-.67,1.1,1.1,0,0,0,.55-1.08,6.21,6.21,0,0,0-.49-1.19q-4.94-7.68-9.92-15.33a6.78,6.78,0,0,0-.82-1,2.48,2.48,0,0,0-2.35-.86c-3.25.8-6.66.3-9.9,1.25-1.22.35-2.65,0-3.89.31-3.25.83-6.61.67-9.88,1.39-2.81.62-5.73.73-8.6,1.1-2.44.32-4.86.75-7.29,1.11-3.43.51-6.86,1-10.29,1.56-4.42.7-8.83,1.55-13.24,2.32-4,.69-8,1.29-12,2.05-6,1.14-11.93,2.31-17.86,3.61-9.33,2-18.64,4.16-27.85,6.68q-8.58,2.36-17.18,4.68c-.41.11-.82.29-1.24.39a5.62,5.62,0,0,1-4.21-.44c-1.91-1-3.87-2-5.8-3q-6.06-3.09-12.09-6.23c-6.39-3.35-12.74-6.76-19-10.31-2.52-1.42-5-2.89-7.51-4.37-.22-.12-.33-.45-.44-.71s.31-.79.73-.95c.27-.1.54-.21.82-.29,1.1-.35,2.21-.7,3.32-1a598.29,598.29,0,0,1,59.61-14.34c15.25-2.85,30.57-5.35,45.95-7.38q15.53-2,31.06-4c4.18-.52,8.37-.83,12.55-1.29,1.87-.21,3.73-.52,5.59-.83a1.26,1.26,0,0,0,.74-1.73,10.17,10.17,0,0,0-1.07-1.36q-6-6-12-12c-.3-.31-.64-.58-1-.87a3.55,3.55,0,0,0-2.42-.79,1.61,1.61,0,0,0-.44,0c-4.1,1.05-8.41.26-12.5,1.42a7.59,7.59,0,0,1-1.73.12,14.39,14.39,0,0,0-1.74,0c-4.15.64-8.36.71-12.5,1.38-1,.17-2,.23-3,.32a22.24,22.24,0,0,0-2.6.19,50.39,50.39,0,0,1-6.46.78c-3.31.32-6.59.88-9.89,1.34-.71.1-1.43.23-2.15.27a39.45,39.45,0,0,0-4.73.6c-3,.51-6,.81-9,1.2-2.73.35-5.44.77-8.16,1.15-3.29.47-6.57,1-9.86,1.5q-3.23.47-6.43,1c-2.42.43-4.82,1-7.24,1.38-6.28,1-12.52,2.24-18.76,3.47-6,1.17-11.88,2.51-17.83,3.73-.84.17-1.66.51-2.51.65a1.84,1.84,0,0,1-1.2-.29.9.9,0,0,1-.21-1.16c.34-.8.69-1.6,1.05-2.39.59-1.27,1.2-2.53,1.77-3.81.15-.3.29-.61.43-.92.36-.79.65-1.61,1-2.43a1.66,1.66,0,0,0-.69-1.89,1.88,1.88,0,0,0-2,0c-.57.43-1.15.87-1.68,1.36L720.28,256.9q-2.07,1.92-4.21,3.78a3.26,3.26,0,0,1-1.14.59,1,1,0,0,1-.82-.08,12.05,12.05,0,0,1-1.49-1.54c-2.64-3.28-5.19-6.63-7.9-9.84-2-2.32-4.12-4.48-6.22-6.68a11.2,11.2,0,0,0-3.53-2.51,2.85,2.85,0,0,0-3.92,1.61,20.56,20.56,0,0,0-.69,2.05c-.38,1.25-.73,2.5-1.12,3.75a1.28,1.28,0,0,1-1.75.77c-.54-.22-1.07-.46-1.59-.71a29.49,29.49,0,0,0-9.62-2.47,18.58,18.58,0,0,0-4.77.07,66.49,66.49,0,0,0-12.67,2.91c-3.15,1.09-6.32,2.08-9.49,3.12-.55.17-1.1.36-1.66.49a1.56,1.56,0,0,1-1.91-1.29c-.07-2.9-.12-5.79-.12-8.69a1.89,1.89,0,0,1,1.18-1.7,25.61,25.61,0,0,1,2.83-1.12c20.56-6.66,41.32-12.64,62.42-17.36C724,219.39,736,217.19,748,215.3c8.74-1.37,17.5-2.64,26.28-3.71q10.58-1.28,21.17-2.37,9.09-.94,18.19-1.65c5.64-.44,11.27-1.06,16.93-1.08a8.33,8.33,0,0,0,3.4-.65,1.13,1.13,0,0,0,.27-1.52,12.69,12.69,0,0,0-1.62-1.41c-4.72-3.12-9.38-6.33-14.18-9.3a453,453,0,0,0-44.31-24A494.19,494.19,0,0,0,709,144.23q-16.59-5.14-33.52-9.07c-7-1.63-14.12-3.11-21.24-4.38-4.26-.76-8.52-1.61-12.83-2.09-3-.34-6-1-9-1.42-.85-.14-1.73-.14-2.59-.24-1.15-.13-2.29-.29-3.44-.43s-2.3-.36-3.45-.41a18.94,18.94,0,0,1-4.74-.53,4.62,4.62,0,0,0-1.28-.2c-5.37,0-10.65-1.33-16-1.06a13.43,13.43,0,0,1-3-.17,52.41,52.41,0,0,0-9.53-.63q-14.37,0-28.72,0a46.19,46.19,0,0,0-6.94.49,34.6,34.6,0,0,1-4.33.29,36.27,36.27,0,0,0-7.78.68,7.16,7.16,0,0,1-1.73.18,27.87,27.87,0,0,0-7.33.78,13.93,13.93,0,0,1-2.16.13c-1.44.15-2.88.34-4.31.53-.57.07-1.14.23-1.71.28-5.34.46-10.59,1.49-15.87,2.38-4.85.82-9.65,1.83-14.48,2.79-6.95,1.38-13.83,3.08-20.7,4.86a439.23,439.23,0,0,0-47.47,15.38c-9.33,3.59-18.52,7.52-27.6,11.72Q384.35,170,371.9,176.73a408.89,408.89,0,0,0-41.15,25.17c-.83.58-1.64,1.2-2.43,1.83a1.66,1.66,0,0,0-.76,1.48c.06.54.76,1,1.65,1.16.57.07,1.15.14,1.73.17,6.52.28,13,1,19.5,1.69,6.2.63,12.41,1.21,18.6,1.89,11.1,1.22,22.17,2.64,33.23,4.17q15.3,2.11,30.52,4.72c25,4.27,49.81,9.69,74.07,17.32,17,5.36,33.82,11.35,50.26,18.31,6.54,2.77,13,5.72,19.48,8.64,4.34,2,3.81,2.15,8.13.26a18.39,18.39,0,0,1,2-.74,1.55,1.55,0,0,1,1.62.4c3.43,3.92,6.83,7.88,10.22,11.83a.49.49,0,0,1,0,.41.45.45,0,0,1-.29.25,4,4,0,0,1-1.28.06,29.66,29.66,0,0,0-11.65-.06,56.38,56.38,0,0,0-8.83,2.18,28,28,0,0,0-3.95,1.8,3.17,3.17,0,0,0-.89.93,1.37,1.37,0,0,0,.52,1.85,8.16,8.16,0,0,0,2.07.56c1.74.08,3.48,0,5.22.06q5,.09,10,.22a14.56,14.56,0,0,1,5.46,1.33,4.22,4.22,0,0,1,1,.76.53.53,0,0,1,.1.38c0,.12-.1.33-.19.35a8.27,8.27,0,0,1-1.7.28q-7.17-.06-14.35-.17a11.35,11.35,0,0,1-1.73-.21,14.51,14.51,0,0,0-1.7-.32c-4.35-.14-8.65-.92-13-1.06s-8.42-.19-12.61,0a36.57,36.57,0,0,0-12.65,2.86,26.89,26.89,0,0,0-12.06,10.31,35,35,0,0,0-4.47,10.34,7.62,7.62,0,0,0-.29,3.43c.17.82,1.31,1.51,2,1.08a20.32,20.32,0,0,0,2.49-1.71c2.13-1.75,4.16-3.62,6.33-5.32a43.61,43.61,0,0,1,5.35-3.71,24.71,24.71,0,0,1,17.16-3.19c1.14.21,2.3.29,3.44.5a4.25,4.25,0,0,1,2.45.95h0c-.78,0-1.48,0-2.18,0-4.5-.13-8.52,1.4-12.36,3.57l-.37.23a2,2,0,0,0-.9,2.23,1.86,1.86,0,0,0,1.8,1c1.16,0,2.32-.15,3.47-.17a30.83,30.83,0,0,1,7.37.29c.34.08.81.14.73.74-4.74.51-9.51.91-14.18,1.87-3.82.79-7.58,1.89-11.34,2.95-2.23.63-4.41,1.43-6.59,2.23a6.91,6.91,0,0,0-1.82,1.13,1.44,1.44,0,0,0,.37,2.22,5.38,5.38,0,0,0,1.64.47c1.3.06,2.61,0,3.91,0a104.51,104.51,0,0,1,11.74.22,11.64,11.64,0,0,1,3.68.95,16.29,16.29,0,0,1-4,1c-4.37.21-8.56,1.42-12.77,2.46a159.1,159.1,0,0,0-22.58,7.74c-4.28,1.78-8.52,3.67-12.77,5.52-.66.29-1.31.61-1.95.95-1.24.65-1.85,1.52-1.57,2.31.41,1.17,1.5,1.22,2.49,1.37a7.09,7.09,0,0,0,1.3.07c2.61-.06,5.23,0,7.82-.25a63.72,63.72,0,0,1,15.61.45,17.9,17.9,0,0,1,6.92,2.43c.37.23.84.53.66,1s-.62.52-1,.67a5.76,5.76,0,0,1-1.66.49c-3.18.26-6.26,1.18-9.41,1.59-4.15.53-8.28,1.37-12.53,1.16a33.32,33.32,0,0,1-8.92-1.66,23,23,0,0,1-6.45-3.53,20.11,20.11,0,0,0-2.53-1.67,1.48,1.48,0,0,0-1.62.22,1.52,1.52,0,0,0-.59,1.54,13.25,13.25,0,0,0,3.35,6.49,23.12,23.12,0,0,0,5.38,4.37c1,.6,2,1.18,3,1.73s2.05,1,3.05,1.49c0,.24,0,.46-.08.47a10.16,10.16,0,0,1-4.28-.28,19,19,0,0,1-8.85-5.29,43.38,43.38,0,0,1-3.83-4.72c-1.34-1.89-2.47-3.92-3.74-5.86a10.3,10.3,0,0,0-1.44-1.59,1.41,1.41,0,0,0-1.61.11,2.29,2.29,0,0,0-.6,1.11,2.87,2.87,0,0,0,.22,1.27c1,3,2.07,6,3.16,9a38.13,38.13,0,0,0,1.73,4,19.29,19.29,0,0,0,11.85,10.21c1.09.35,2.22.62,3.31,1a.79.79,0,0,1,.14.72,9.88,9.88,0,0,1-1.57,1.46c-1.4,1-2.86,2-4.27,3s-1,1.83-.22,2.53a10.71,10.71,0,0,1,1.21,1.22.83.83,0,0,1-.09.79,16.77,16.77,0,0,1-1.66,1.37c-3.72,2.78-7.48,5.49-11.14,8.34a137.37,137.37,0,0,0-13.8,12.62,21.48,21.48,0,0,1-2.22,2.05,1.37,1.37,0,0,1-1.2.11,6.76,6.76,0,0,1-1.76-1.24c-1.58-1.5-3.08-3.07-4.65-4.57-2-1.91-3.95-3.86-6-5.65-.36-.3-.72-.59-1.1-.87-1.12-.85-2.32-1.62-3.51-2.38a3.45,3.45,0,0,0-1.65-.37,1.52,1.52,0,0,0-1.26,1.89,6.14,6.14,0,0,0,.91,1.47c.87.93,1.69,1.9,2.47,2.91,1.51,2,2.87,4,4.23,6.11.72,1.11,1.44,2.22,2.19,3.31a1.54,1.54,0,0,1,.32.8,3.43,3.43,0,0,1-.27,1.22,2,2,0,0,1-.59.61q-11.31,9.87-22,20.38c-5.9,5.79-11.85,11.54-17.65,17.42q-19.11,19.35-37.05,39.8-17.2,19.65-33.21,40.27a629,629,0,0,0-38.43,55.35c-9.27,15.09-17.72,30.62-25.5,46.51-10.14,20.71-19.12,41.92-27.26,63.49q-7.29,19.32-13.57,39c-.31,1-.59,1.94-.95,2.88a4.34,4.34,0,0,0,.89,4.83c3.09,3.46,6.09,7,9.2,10.45,5.64,6.24,11.63,12.14,17.78,17.89.85.79,1.77,1.5,2.68,2.21a1.28,1.28,0,0,0,1.82-.54c.36-1,.71-1.9,1-2.87,5.49-19.53,11.45-38.91,18.17-58.06q7.62-21.74,16.41-43.05,7.75-18.67,16.54-36.9a493.09,493.09,0,0,1,26.9-48.7,582.81,582.81,0,0,1,45.56-62c10-12,20.38-23.79,31.27-35.06q8.93-9.23,17.9-18.4c.81-.83,1.63-1.66,2.5-2.42a8.86,8.86,0,0,1,2.11-1.51l1.7-.74a79.26,79.26,0,0,1,14.22-5,18.59,18.59,0,0,1,6.48-.33,8.41,8.41,0,0,1,2,.67,1,1,0,0,1,.45,1.46c-.46.55-.92,1.11-1.42,1.63-6.48,6.69-10,14.8-11.5,23.9a5.5,5.5,0,0,0,.11,1.71,1.7,1.7,0,0,0,2.46.94,8.88,8.88,0,0,0,1.27-1.18c1.29-1.57,2.53-3.17,3.81-4.75a68.53,68.53,0,0,1,8.29-8.91,40.15,40.15,0,0,1,12.61-7.54c.16-.06.47.2.67.36s.05.31,0,.41c-1,1.4-2.07,2.79-3.14,4.16A131.48,131.48,0,0,0,466.9,479a59.47,59.47,0,0,0-6,15.33,7.59,7.59,0,0,0-.14,1.72,1.68,1.68,0,0,0,2.25,1.36,8.12,8.12,0,0,0,1.46-.91c1.33-1.13,2.6-2.32,3.93-3.43.66-.54,1.42-1,2.05-1.39.5.2.59.45.34.75-3.68,4.29-7.4,8.55-11,12.88a115.72,115.72,0,0,0-11,15.14,56.32,56.32,0,0,0-4.62,9.34,19.11,19.11,0,0,1-3.29,5.58q-11.31,13.8-22.05,28a652.42,652.42,0,0,0-38.43,56.42A408.71,408.71,0,0,0,359,660.19Q348.69,682.74,340.26,706q-7,19.43-12.71,39.26c-2.71,9.47-5.24,19-7.5,28.58s-4.4,19.19-6.18,28.87a11.39,11.39,0,0,0-.17,1.29,1.89,1.89,0,0,0,.59,1.57A10.89,10.89,0,0,0,316,807c2.23,1.36,4.48,2.69,6.73,4,8.25,4.85,16.75,9.25,25.32,13.51.65.33,1.3.65,2,.93,2.17.92,2.94.43,3.36-1.72.77-4,1.66-7.93,2.41-11.92,1.88-10.1,4.14-20.13,6.47-30.15q4.94-21.17,11.25-42a553.58,553.58,0,0,1,23.14-63.24c5.44-12.35,11.43-24.42,17.83-36.29.82-1.52,1.73-3,2.52-4.38.48-.2.75-.11.78.22.08,1.16.12,2.32.17,3.47a15.63,15.63,0,0,0,1.22,5.05,1.57,1.57,0,0,0,1.44.76c.39-.1.92-.29,1.07-.6a11.39,11.39,0,0,0,1-2.84c.7-3.85,1.29-7.72,1.95-11.57q.48-2.78,1.08-5.54a8.23,8.23,0,0,1,.65-1.61,1.92,1.92,0,0,1,2.2-1c.45.06.85.53.74.91-.2.7-.39,1.39-.64,2.07a94.54,94.54,0,0,0-3.95,12.86c-.68,3.26-1.25,6.53-1.72,9.84a98.61,98.61,0,0,0-.83,12.13c0,1.16-.2,2.31-.25,3.47-.1,2-.19,4.06-.21,6.08a10.45,10.45,0,0,0,.37,2.13,1.55,1.55,0,0,0,1.35.91,1.44,1.44,0,0,0,1.39-.84,5.83,5.83,0,0,0,.56-1.63c.63-3.71,1.19-7.43,1.87-11.13a161.55,161.55,0,0,1,6.12-24.42,49.2,49.2,0,0,1,6.19-12.88.54.54,0,0,1,.36-.19c.3,0,.44.23.39.58-.1.63-.2,1.25-.29,1.88A98,98,0,0,0,439,637.12a11.19,11.19,0,0,0,.19,2.16,2.91,2.91,0,0,0,.63,1.1,1.39,1.39,0,0,0,1.93-.09,6.49,6.49,0,0,0,1.13-2.79,59.93,59.93,0,0,1,4.32-13.19c.09-.19.18-.39.28-.58.29-.57.63-1.13,1-1.68.13-.2.58-.4.74-.32.35.18.79.49.87.82a3.66,3.66,0,0,1,0,1.71c-.23,1-.57,1.94-.89,2.9a174.84,174.84,0,0,0-7,27.78c-.41,2.58-.94,5.13-1.36,7.7a15.2,15.2,0,0,0-.15,4.76,1.51,1.51,0,0,0,1,1.25,1.59,1.59,0,0,0,1.75-.93c.11-.27.22-.54.31-.81.21-.7.44-1.39.6-2.09a86.41,86.41,0,0,1,11.29-26.71,7.7,7.7,0,0,0,1.63-3.49.93.93,0,0,0-.37-.71,1.1,1.1,0,0,0-.8,0,1.51,1.51,0,0,0-.68.49c-.45.57-.88,1.16-1.27,1.77a88.48,88.48,0,0,0-7.55,14.19c-.48,1.19-1,2.36-1.64,3.73-.12-.47-.27-.71-.23-.92,1.44-6.95,3-13.86,5.16-20.64,1.08-3.46,2.26-6.88,3.43-10.31a14,14,0,0,1,.94-2,1,1,0,0,1,1.52,0,2.69,2.69,0,0,1,.57,1.13c.11,1,.1,2,.11,3a3.26,3.26,0,0,0,.82,2.41,12.07,12.07,0,0,1,2.27,3.66c.71,1.42,1.5,2.8,2.34,4.16a6.05,6.05,0,0,0,1.23,1.19,1.06,1.06,0,0,0,1.48-.31,15.69,15.69,0,0,0,.83-5.12,4.26,4.26,0,0,1,.51-2.5.57.57,0,0,1,.36-.18c.1,0,.29.07.3.13a16.41,16.41,0,0,1,.16,1.72c0,2.32,0,4.64,0,7a19,19,0,0,0,.4,3.44c.41,1.95,1.95,2.62,3.58,1.6,1-.61,1.89-1.34,2.89-1.93a30.33,30.33,0,0,1,3.45-1.77c.23-.1.76.29,1,.57s.15.53.17.81a.66.66,0,0,1-.15.39,3.48,3.48,0,0,1-.51.7q-5.78,5.61-11.57,11.19a4.46,4.46,0,0,1-.72.47c-.29.2-.88-.18-1-.58a3.39,3.39,0,0,1-.1-.77,2.32,2.32,0,0,1,.39-1.32c.64-1,1.42-1.83,2.08-2.77a1.79,1.79,0,0,0-.34-2.35c-1.82-1.55-1.82-1.55-2.58-3.24a1.4,1.4,0,0,0-.2.32c-.42,2,.51,4,0,6a11.78,11.78,0,0,0-.17,3.35c0,.76.09,1.52.06,2.28a5.77,5.77,0,0,0,.2,1.28,1.3,1.3,0,0,0,1.79.66,12.49,12.49,0,0,0,3.77-3.61,2.36,2.36,0,0,1-.1.38,7.3,7.3,0,0,1-.73,1.61c-.4.68-.86,1.34-1.29,2-3.63,5.6-7.11,11.29-10.38,17.1a155.3,155.3,0,0,0-9.06,18.79,40.7,40.7,0,0,0-1.47,4.54,1.75,1.75,0,0,0,.83,1.86c1.48,1.12,1.47,1.13.82,2.68-2.88,6.81-5.75,13.62-8.37,20.53q-7.78,20.54-13.83,41.64-5.83,20.25-10.23,40.87c-1.75,8.21-3.46,16.43-4.71,24.74-.63,4.15-1.49,8.26-2.19,12.4-.36,2.14-.62,4.3-.91,6.45a2.32,2.32,0,0,0,1.4,2.46,16,16,0,0,0,1.61.66c2.62.85,5.22,1.78,7.87,2.5a43.9,43.9,0,0,0,16.81,1.22c13.15-1.59,24.33-7.26,33.92-16.23a75,75,0,0,0,13.38-17.07,110.2,110.2,0,0,0,11.44-29,138.27,138.27,0,0,0,3.31-17.93c.49-4.3,1.32-8.61,1-13-.26-3.47-.48-7-.88-10.4a13.34,13.34,0,0,0-1.71-5.35,3.42,3.42,0,0,0-4.89-1.2,11.47,11.47,0,0,0-3.17,3c-1.47,2-2.95,3.95-4.29,6-2.2,3.4-4.29,6.88-6.45,10.32-1.25,2-2.53,4-3.81,6a7.52,7.52,0,0,1,.09-.83,10.59,10.59,0,0,1,.36-1.53c.08-.27.18-.54.28-.82A178.86,178.86,0,0,1,486.33,739a19,19,0,0,0,2.29-5.11A1.64,1.64,0,0,0,488,732a1.74,1.74,0,0,0-2,.4c-1.22,1.21-2.4,2.47-3.56,3.76-.67.75-1.25,1.58-1.87,2.38a3,3,0,0,1-1.82,1,5.93,5.93,0,0,0,.51-.88c.47-1,.73-2,1.11-3.05a74.47,74.47,0,0,1,12.55-22.18c1.3-1.55,2.7-3,4-4.55a2,2,0,0,0,0-2.76,7.18,7.18,0,0,0-3.85-2.69,14.45,14.45,0,0,0-6-.57,57.1,57.1,0,0,0-10.1,2.4c-1.1.36-2.17.83-3.28,1.11a14.81,14.81,0,0,1-2.4.26l1.61-1.07c.6-.4,1.21-.79,1.82-1.18q8.58-5.56,17.17-11.1c.73-.47,1.51-.86,2.28-1.27a1.5,1.5,0,0,1,1.61.27c.61.62,1.2,1.26,1.78,1.9a23.79,23.79,0,0,0,9.12,6.51c.41.15.78.39,1.19.53,2.5.86,3.58,2.76,4,5.23.22,1.43.59,2.83.92,4.24a16.34,16.34,0,0,0,2.75,5.86,10.93,10.93,0,0,0,8.87,4.69,9,9,0,0,0,8.43-4.38,17.81,17.81,0,0,0,3.12-8.92c.16-2.74.56-5.48.83-8.22a4,4,0,0,1,1.59-3c2.46-1.79,5-3.51,7.47-5.24a1.26,1.26,0,0,1,1.55.36c.78,1.39,1.49,2.82,2.34,4.17,1.23,2,2.47,3.93,3.86,5.78a14.25,14.25,0,0,1,3,9.32,75.64,75.64,0,0,1-.65,10,32.4,32.4,0,0,0,0,10.4,56.66,56.66,0,0,1,.57,9.11,7.1,7.1,0,0,1-.1,1.73c-.7,2.82-.9,5.71-1.39,8.56a12.71,12.71,0,0,0-.44,2.56c.13,3.36-.68,6.62-1,9.93s-.83,6.61-1.19,9.93c-.18,1.58-.27,3.17-.31,4.77-.05,2.61,0,5.22,0,7.83a45.53,45.53,0,0,1-.57,7.36,25.54,25.54,0,0,0,0,8.23c.15,1,.38,2,.44,3a26.68,26.68,0,0,0,.81,6,12.31,12.31,0,0,1,.32,2.58,4.43,4.43,0,0,1-.93,3.26,21.14,21.14,0,0,0-3.66,7.35c-.3,1-.6,1.94-1,2.89a30.06,30.06,0,0,1-3.19,6.64,18.35,18.35,0,0,0-3.39,11c0,.43,0,.87,0,1.3a19.33,19.33,0,0,1-1.51,7.62c-.37,1-.8,1.87-1.13,2.82-1,2.88-2,5.75-1.95,8.88a21.23,21.23,0,0,1-.46,3.43,11.53,11.53,0,0,0-.36,2.14c.14,2.94-.82,5.73-1.17,8.6a18.59,18.59,0,0,1-2.23,7c-1.85,3.22-2.28,6.86-3.18,10.35a3.59,3.59,0,0,0,.07,1.72,48.31,48.31,0,0,1,1.08,10.79,40.32,40.32,0,0,0,.65,6.92,27.14,27.14,0,0,1-.08,9.51q-1.18,7.29-2.18,14.62a75.73,75.73,0,0,0-1,8.62c-1.2,5.82-1.5,11.79-3,17.56a6.59,6.59,0,0,0,0,2.58c.54,3.14,1.17,6.27,1.74,9.41.45,2.42.93,4.83,1.26,7.27A7.53,7.53,0,0,0,529,989c.44.59.87,1.17,1.28,1.77a4,4,0,0,1,.77,2.44,42,42,0,0,1-.23,4.77,63.19,63.19,0,0,0-.59,8.68c0,3,0,6.09,0,9.13a25.2,25.2,0,0,0,.1,2.61,2.81,2.81,0,0,0,2,2.59c3.79.95,7.39,2.49,11.28,3.17a60.36,60.36,0,0,0,10.81.82c5.51,0,11,0,16.53,0,1.73,0,3.46.29,5.19.45,2.17.2,4.34.37,6.5.62,3.17.35,6.33.8,9.5,1.15a22.85,22.85,0,0,0,7.78-.24c3.1-.73,6.22-1.39,9.32-2.14a4.31,4.31,0,0,0,3.28-3.16,46.92,46.92,0,0,0,1.94-16.74,9.54,9.54,0,0,0-1.66-4.43,15,15,0,0,0-4.33-4.21q-4.81-3.35-9.58-6.79a80.22,80.22,0,0,0-7.71-4.89A2.42,2.42,0,0,1,589.9,982a6,6,0,0,1,.26-1.71c.83-2.21.76-4.57,1.26-6.83a11.34,11.34,0,0,0,.08-3.9c-.61-4.44-1.09-8.9-2.54-13.19-.74-2.2-1.32-4.44-1.91-6.69a60.22,60.22,0,0,1-1.37-5.91c-.72-4.76-.1-9.28,3-13.18a22.24,22.24,0,0,0,4-8.12c.34-1.26.78-2.49,1.16-3.74a7.39,7.39,0,0,0-.63-6.66,5.83,5.83,0,0,1-.07-6.2c1.9-3.75,3.69-7.56,5.77-11.21a94,94,0,0,0,6-13c1.08-2.84,2.21-5.67,3.43-8.45a28,28,0,0,0,2.73-9.11,6.25,6.25,0,0,1,1.54-3.53c.57-.67,1.15-1.31,1.67-2a17,17,0,0,0,3.67-10.46c0-5.4,1.06-10.66,1.91-15.95.39-2.43,1-4.83,1.3-7.26a19.7,19.7,0,0,0-.19-6.93,11.42,11.42,0,0,1-.44-2.12,86.89,86.89,0,0,1,.16-14.34,75,75,0,0,0,.62-9.09v-2.56c.43-.13.66,0,.78.33a71.78,71.78,0,0,0,7.14,13.4c2.77,4.42,5.39,8.94,8,13.43a11.93,11.93,0,0,1,1.69,4.44c.69,5,2.72,9.44,5.08,13.79.41.76.87,1.5,1.32,2.25,1.83,3,3.88,5.78,7.17,7.38a1.28,1.28,0,0,1,.23,1.9,23.85,23.85,0,0,1-2.33,1.93A11.82,11.82,0,0,0,647,852a14.84,14.84,0,0,0-2.3,8.25c0,.72.17,1.44.25,2.16a70.42,70.42,0,0,1-.1,15.63,110,110,0,0,0-.55,18.24c0,.14,0,.29,0,.43a14.36,14.36,0,0,1-2.76,10.67,11,11,0,0,0-1.28,2.27A68.26,68.26,0,0,0,636,922.38a19.88,19.88,0,0,0-.35,3.45c0,1.88,0,3.77,0,5.65a41.55,41.55,0,0,1-3.12,16.1,38.18,38.18,0,0,0-1.69,5.38,20.35,20.35,0,0,0,0,10.31,56.73,56.73,0,0,1,1.58,15.52c-.1,7.54-.08,15.08-.15,22.62a53.62,53.62,0,0,0,.63,7.8,6.91,6.91,0,0,0,5.35,6.14,18.79,18.79,0,0,0,4.71.78,84.31,84.31,0,0,1,10.4.66,33.6,33.6,0,0,0,6.95.12c4.51-.24,9,.11,13.48.26a20.53,20.53,0,0,1,3,.46,59.69,59.69,0,0,0,17.75.5c2.31-.28,4.62-.44,6.94-.55,3.77-.18,7.53-.31,11.3-.39a11.73,11.73,0,0,0,4.21-1,9,9,0,0,0,5.75-7.57,19.94,19.94,0,0,0-.12-6.07,74.32,74.32,0,0,0-3.13-12.18c-.15-.41-.31-.81-.5-1.21a4.33,4.33,0,0,0-2.39-2.4c-2.31-.84-4.62-1.69-7-2.45-2.75-.89-5.54-1.66-8.3-2.55a12.66,12.66,0,0,1-5.82-3.66,10.6,10.6,0,0,1-2.82-8.8,3.15,3.15,0,0,1,.05-.43c1-2.93.16-5.76-.66-8.53a104.71,104.71,0,0,0-4.78-13.51c-.48-1.06-.88-2.14-1.29-3.23a3.69,3.69,0,0,1,.62-3.68,20.14,20.14,0,0,1,1.7-2,11.14,11.14,0,0,0,3-6.14,26.33,26.33,0,0,1,1.4-5,29.09,29.09,0,0,0,1.08-16.24,7,7,0,0,1-.14-2.57c.67-3.85,1.48-7.68,2.15-11.53a13.75,13.75,0,0,1,3.62-7.26c5.34-5.65,8.19-12.51,9.81-20,1-4.69,1.36-9.46,2.2-14.17a17.3,17.3,0,0,0,.18-2.6,20.49,20.49,0,0,1,.62-5.17,5.06,5.06,0,0,0,.23-1.28c.06-3.65,1.08-7.15,1.56-10.73a80.24,80.24,0,0,0,.56-10.85c0-1.6-.11-3.19-.12-4.78a65.82,65.82,0,0,0-2.71-18.86,25,25,0,0,1-1.17-6.39c-.1-3.36-1.3-6.52-1.9-9.79-.82-4.42-2.34-8.66-3.39-13a39.48,39.48,0,0,1-1.58-10.26,22.45,22.45,0,0,0-.52-4.3,60.12,60.12,0,0,1-.69-16.46,63.75,63.75,0,0,0,0-7.82c0-1.16-.19-2.32-.22-3.48A29.4,29.4,0,0,0,696,712c-1.49-2-2.95-4-4.32-6-1.21-1.81-2.21-3.75-3.4-5.57-1.87-2.86-2-6-1.65-9.23a9.65,9.65,0,0,1,.7-2.49A95.62,95.62,0,0,0,692.28,669a14.82,14.82,0,0,0,.07-3.46,3.78,3.78,0,0,0-2.14-3.09c-1-.53-2.12-.91-3.17-1.4a1.87,1.87,0,0,1-1.09-2.14c1-4.53,2-9.06,2.91-13.59.21-1,.3-2,.46-3a1.35,1.35,0,0,1,1.32-.91c2.8.7,5.61,1.4,8.41,2.12l4.2,1.11a32.55,32.55,0,0,0,13.79.33c1.15-.19,2.29-.36,3.45-.44a3.32,3.32,0,0,1,3.21,1.83,18.89,18.89,0,0,1,2.22,6.1,37.31,37.31,0,0,1,1,9.48,12.34,12.34,0,0,0,.12,3c.94,4.85.91,9.81,1.87,14.65.28,1.42.35,2.88.54,4.31.15,1.15.33,2.3.49,3.44s.33,2,.38,3a20,20,0,0,0,.66,5.16,2.85,2.85,0,0,1,.17.85c0,3.65.88,7.19,1.25,10.79.28,2.74.74,5.46,1.11,8.18a19.88,19.88,0,0,1,.26,2.16,28.32,28.32,0,0,0,.8,7.33,2.74,2.74,0,0,1,.1.86c-.11,5.81,1.3,11.51,1.25,17.33a82.55,82.55,0,0,0,.86,10.4,75.45,75.45,0,0,1,.49,7.81,51.7,51.7,0,0,0,.69,9.53,23,23,0,0,1,.21,3.9c.06,2.61-.13,5.25.18,7.82a126,126,0,0,1,1,12.56c1,4.69,1,9.52,2.07,14.2.3,1.25.16,2.6.39,3.88,1.1,6,1.85,12,3,18a17.19,17.19,0,0,1,.34,2.58,20.49,20.49,0,0,0,.69,5.16,5.51,5.51,0,0,1,.2,1.28c.21,5.08,1.2,10.07,1.83,15.09a62.76,62.76,0,0,1,.85,8.21,5.16,5.16,0,0,0,.12,1.3c.81,3,.67,6,.78,9.07.06,1.59.27,3.18.42,4.76a45.27,45.27,0,0,1,.44,4.76,116.76,116.76,0,0,0,1.08,13.86c.48,4.47.94,8.93,1.61,13.37.82,5.44,1.88,10.84,2.77,16.27.56,3.42,1.24,6.83,1.51,10.3a9.24,9.24,0,0,0,.13,1.29c1,4.69,1.16,9.5,2.15,14.18.05,3.63,1.14,7.14,1.24,10.78,0,1.29.56,2.55.68,3.84a68.07,68.07,0,0,0,1.08,8.18,5.84,5.84,0,0,1-1.33,4.86,171,171,0,0,1-13.88,16.17,195.54,195.54,0,0,1-28.31,23.7,292.18,292.18,0,0,1-45.06,25.32q-19.58,9-39.94,15.94a202.11,202.11,0,0,1-28.1,7.41c-4.13.77-8.23,1.74-12.38,2.23-3.3.4-6.58,1-9.9,1.27s-6.9.82-10.39.87c-4.87,1-9.82.63-14.74.84-2.46.1-4.91.27-7.37.45a65.33,65.33,0,0,1-10,0c-2.89-.23-5.78-.41-8.68-.48l-7-.12a27.11,27.11,0,0,1-6.48-.52,6.32,6.32,0,0,0-1.3-.15c-4.21-.08-8.38-.48-12.56-1-2.3-.26-4.64-.12-6.89-.77-3.5,0-6.89-.9-10.36-1.13-2.45-.15-4.87-.69-7.31-1-5.16-.68-10.29-1.56-15.42-2.5q-9.17-1.68-18.31-3.6c-11.75-2.48-23.42-5.34-35-8.48q-25.17-6.83-49.7-15.66c-11.05-4-22-8.2-32.79-12.78a515.71,515.71,0,0,1-47.36-22.87,482.89,482.89,0,0,1-96-69.45A496.05,496.05,0,0,1,151,897.79,515,515,0,0,1,92.33,815.9c-8.66-14.93-16.53-30.28-23.74-46A550.21,550.21,0,0,1,43.2,703.35q-7-22.62-12-45.8c-1.68-7.79-3.22-15.6-4.46-23.47-.73-4.57-1.57-9.13-2.25-13.71-.47-3.15-.75-6.33-1.12-9.49-.45-3.89-.92-7.77-1.36-11.65-.13-1.15-.22-2.31-.32-3.46-.18-2-.37-4-.54-6.06-.12-1.45-.25-2.89-.31-4.34-.16-3.76-.17-7.54-.7-11.28a25.2,25.2,0,0,1-.16-3.48q0-17.4,0-34.8a20.46,20.46,0,0,1,.1-3,114.91,114.91,0,0,0,.77-11.72c.06-1.3.22-2.6.35-3.89.06-.58.23-1.15.24-1.73.06-4.21.86-8.35,1.17-12.54.2-2.6.59-5.18,1-7.76.82-5.44,1.59-10.89,2.58-16.3,1.24-6.84,2.67-13.64,4-20.45,2.36-11.95,5.31-23.75,8.47-35.5q6.7-25,15.51-49.32,8.75-24.13,19.37-47.49A549.69,549.69,0,0,1,105,267a428.08,428.08,0,0,1,40.1-55.2q7.8-9.06,16.24-17.57a639.21,639.21,0,0,1,83.9-71,583.66,583.66,0,0,1,60.64-37.49A536.91,536.91,0,0,1,378.52,53.3a503.5,503.5,0,0,1,55.41-16.49c11.15-2.61,22.34-5,33.66-6.77,7-1.1,14-2.31,21.07-3.13s14.11-1.61,21.2-2.11c6.08-.43,12.16-.68,18.24-1.08,12.9-.85,25.8-.42,38.7-.4,6.93.7,13.91.54,20.84,1.27C591.82,25,596,25.14,600.21,25.67Z" transform="translate(-19.99 -23.19)"/><path class="cls-3" d="M441.72,611.56c1.06,1.25,1,1.86.15,3.08-.77,1.05-1.53,2.11-2.36,3.11a42,42,0,0,0-6.57,11.2,112.61,112.61,0,0,0-5.42,17.39c-1,4.08-1.82,8.18-2.73,12.27a87.8,87.8,0,0,1,6.1-32.59c.43-1.07.86-2.15,1.24-3.24a2.06,2.06,0,0,0-1.12-2.54,4,4,0,0,0-.79-.35,7,7,0,0,0-3.86,0,3,3,0,0,0-2.19,1.93,50.16,50.16,0,0,0-1.86,8c-.41,2.43-.74,4.86-1.15,7.29a11.7,11.7,0,0,1-.57,1.7,3.94,3.94,0,0,1-.42-2.48,46.87,46.87,0,0,1,.73-12.11A6.14,6.14,0,0,0,421,623a1.38,1.38,0,0,0-1.41-1.32,13.65,13.65,0,0,0-1.68.39c-2.34.76-4.67,1.54-7,2.32-.81.27-1.6.57-2.92,1a13,13,0,0,1,1-1.27c4.29-3.45,8.54-6.95,12.91-10.31a18.2,18.2,0,0,0,5.38-6.12,41.54,41.54,0,0,1,5.13-7.53,3.85,3.85,0,0,1,1-.84.82.82,0,0,1,.76.12,6.91,6.91,0,0,1,.92,1.46A45.08,45.08,0,0,0,441.72,611.56Z" transform="translate(-19.99 -23.19)"/><path class="cls-3" d="M3001.2,301.56a4.85,4.85,0,0,0-.62,1.25c-2.39,14.33-4.8,28.66-7.1,43q-3.56,22.23-6.92,44.49c-1.76,11.52-3.49,23-5.11,34.59q-2.29,16.36-4.3,32.76c-1.1,8.87-2.06,17.76-3,26.65-.94,8.49-1.88,17-2.7,25.48-.63,6.52-1.09,13-1.61,19.58q-.88,10.86-1.74,21.73c-.21,2.71-.35,5.42-.52,8.13q-.56,9.09-1.1,18.18c-.22,3.59-.37,7.18-.68,10.76-.2,2.25-.94,3-3.17,3.08a15.52,15.52,0,0,1-4.73-.54,48.45,48.45,0,0,1-20-11,10.9,10.9,0,0,1-3.35-6.94c-.69-5.12-.23-10.21.09-15.31q.65-10.52,1.45-21,.83-11,1.8-22c.5-5.73,1-11.45,1.61-17.17.67-6.43,1.44-12.85,2.18-19.27.7-6,1.38-12.06,2.12-18.08.68-5.54,1.41-11.08,2.13-16.62q1.31-10,2.66-19.94,1.25-9.13,2.57-18.26,1.55-10.66,3.17-21.32c1.17-7.73,2.33-15.47,3.59-23.19,1.64-10.09,3.28-20.17,5.06-30.24,2.08-11.79,4.3-23.56,6.48-35.33.36-2,.78-3.92,1.18-5.87.57-2.82,1.87-4.08,4.71-4.14a19.11,19.11,0,0,1,5.22.51,38,38,0,0,1,16.26,8.87,11.54,11.54,0,0,1,3.94,6.15c0,.21.3.37.45.55Z" transform="translate(-19.99 -23.19)"/><path class="cls-3" d="M1967.64,383.42c.39-1.94.86-3.92,1.17-5.93,1.94-12.79,3.93-25.56,5.72-38.37,1.47-10.51,2.67-21.06,4-31.59q1.11-8.67,2.31-17.32a10.74,10.74,0,0,1,.69-2.53,5.24,5.24,0,0,1,5.62-3.62c4.37.36,8.82.44,13,1.89a44.63,44.63,0,0,1,7.87,3.43c3.43,2,4.66,5,3.9,9.14-2,11.31-3.73,22.69-5.5,34q-2.59,16.56-5.07,33.14c-1.23,8.21-2.37,16.44-3.56,24.65-1.05,7.27-2.14,14.53-3.17,21.8-1.21,8.54-2.37,17.08-3.56,25.62-1,7.43-2.11,14.86-3.12,22.29-.91,6.64-1.75,13.3-2.63,19.95s-1.8,13.29-2.63,19.94c-.77,6.1-1.47,12.21-2.16,18.32-.6,5.31-1.19,10.63-1.7,16a36.08,36.08,0,0,0,.8,13.33,22.58,22.58,0,0,0,2.25,5.25c2.91,5,10.44,6.77,15.66,3.44a20.91,20.91,0,0,0,6-6.09c3.49-5.15,5.64-10.9,7.56-16.77,1.55-4.74,2-9.67,2.89-14.54a71.59,71.59,0,0,1,8.62-24.48,44.84,44.84,0,0,1,4.41-6,15.29,15.29,0,0,1,3.27-2.79,8.85,8.85,0,0,1,9.93-.45,42.84,42.84,0,0,1,10.87,9,7.76,7.76,0,0,1,1.74,7.13,91.65,91.65,0,0,1-5.78,17.75c-3,7.07-6,14.14-9.23,21.08a11.9,11.9,0,0,0-.05,10.36c4.11,9.59,11.18,15.34,21.61,16.81a37.11,37.11,0,0,0,22-3.24c8.89-4.35,14-11.86,17-21.06a62.86,62.86,0,0,0,2.64-15.54c1.3-23.06-8-41.63-24.28-57.14a75.35,75.35,0,0,0-27.34-16.91,89.53,89.53,0,0,0-9.48-2.5,4.46,4.46,0,0,1-2.83-1.62,47.75,47.75,0,0,1-3.79-5.52,39,39,0,0,1-4.43-15.08q-.22-2.5-.37-5a8.13,8.13,0,0,1,2.59-6.72,74.29,74.29,0,0,1,7.91-6.57c8.18-5.66,17.11-10,26.11-14.17a530,530,0,0,1,57.76-22.69c2-.64,4-1.09,6-1.69a4.47,4.47,0,0,1,4.09.72,24.08,24.08,0,0,1,9.72,13.84c.69,2.78-.05,5.54-1.14,8.18a38.9,38.9,0,0,1-6.46,10.33,71.8,71.8,0,0,1-19,16,25.73,25.73,0,0,1-7.76,3.09,3.12,3.12,0,0,1-3.65-1.56c-.79-1.29-1.49-2.64-2.17-4-2.5-5-3.55-5.69-8.83-4a133.21,133.21,0,0,0-15.67,5.94c-6.24,2.86-12.25,6.23-18.34,9.41a23.43,23.43,0,0,0-2.82,1.82c-2.17,1.56-2.09,2.84.22,4.08.63.34,1.29.64,1.93,1,19.4,10.32,36.23,23.72,49.33,41.51a96.14,96.14,0,0,1,17.54,40.07A102.16,102.16,0,0,1,2126.9,543c-.61,9.81-2.66,19.31-7.24,28.11-6.77,13-17.43,20.74-31.76,23.55-15.24,3-29-.68-41.63-9.31a81.22,81.22,0,0,1-26.32-30c-.39-.75-.84-1.47-1.49-2.6-.64,1.16-1.07,1.89-1.46,2.65-3.84,7.55-8.5,14.48-15,20.06-5.16,4.46-11.06,7.42-17.87,8-11.44,1-21.82-4-26.81-15.63a30.45,30.45,0,0,1-2.42-10.45c0-.89.27-2.21-.93-2.45-1.42-.27-1.46,1.21-1.83,2.09a94.25,94.25,0,0,1-14.1,24.42,71,71,0,0,1-7.52,7.72c-6.7,6-14.54,7.18-23.1,5.2-10-2.31-17.32-8.28-23-16.52-5.43-7.87-8.73-16.68-11-25.88a108.65,108.65,0,0,1-3.46-22.45c-.26-6.86-.58-13.75-.3-20.61a242.11,242.11,0,0,1,2.64-26.2A252.43,252.43,0,0,1,1882,441.3a157.2,157.2,0,0,1,16.24-35.44c5.41-8.5,11.76-16.16,20-22.14a47,47,0,0,1,23-9c8.54-.93,16.1,1.65,22.91,6.69.9.66,1.8,1.33,2.71,2C1967,383.49,1967.15,383.42,1967.64,383.42ZM1898,540.71a66.35,66.35,0,0,0,1,15.67,33.94,33.94,0,0,0,2.59,7.92c1.87,3.79,5,4.65,8.87,2.86a10,10,0,0,0,2.45-1.48,53.42,53.42,0,0,0,5.18-5c5-5.87,8.81-12.56,12.25-19.43A345,345,0,0,0,1955,475.13c1.33-5,2.25-10.12,3.22-15.21.56-2.94.36-3.15-2.55-4a15.8,15.8,0,0,1-7.49-4.95,3.79,3.79,0,0,1-.84-4.13c2.26-7.24,4.49-14.5,6.45-21.82,1.69-6.33,3-12.78,2.62-19.39a30.7,30.7,0,0,0-1.43-7.72c-1.21-3.64-3.87-4.93-7.7-4.43a17.33,17.33,0,0,0-8.77,4.12c-4.92,4-8.41,9.17-11.51,14.62-6.44,11.33-10.83,23.5-14.52,35.93a360.35,360.35,0,0,0-13.07,67.37A229.23,229.23,0,0,0,1898,540.71Z" transform="translate(-19.99 -23.19)"/><path class="cls-3" d="M1628.33,449.65c-1.37-.09-2.38-.17-3.4-.22a2.44,2.44,0,0,0-2.57,1.72c-1,2.52-2.17,5-3.17,7.51-7.83,19.63-13.71,39.87-18.79,60.36-3.17,12.79-5.91,25.68-8,38.7-1.1,6.93-1.88,13.92-2.6,20.91-.48,4.6-.64,9.24-.85,13.86a3.7,3.7,0,0,1-1.41,2.88,18.63,18.63,0,0,1-20.69,2c-3.89-2.26-6-5.91-7.46-10a54.38,54.38,0,0,1-2.84-13.32c-1.66-15.87-1-31.79-.93-47.69,0-7.19.22-14.39.51-21.58q.57-14,1.44-28c.44-7,1.12-14,1.66-21a13.81,13.81,0,0,0-.13-2,11.31,11.31,0,0,0-1.48-.26c-2.38-.09-2.48,0-3.27,2.23-8.53,24.45-16.36,49.11-22.32,74.34a291.49,291.49,0,0,0-5.89,31.29c-.79,6.41-1.12,12.88-1.49,19.34a4.65,4.65,0,0,1-2,3.8c-8.18,6.33-20,4.48-26.43-3.46-3.78-4.64-5.87-10.06-7.33-15.75a81.32,81.32,0,0,1-2.5-17.28c-.2-5.43-.5-10.87-.35-16.3.23-8.54.76-17.08,1.24-25.61.29-5.18.68-10.36,1.12-15.53q.62-7.16,1.46-14.3,1-8.56,2.24-17.1c1.11-7.74,2.21-15.49,3.52-23.2,2.17-12.84,4.72-25.61,8.1-38.19,1.47-5.48,3-11,5.44-16.1s2.77-5.17,8.58-4.35a30.34,30.34,0,0,1,12.28,4.53,25.92,25.92,0,0,1,2.86,2.17,7.54,7.54,0,0,1,2.72,8.07q-4.67,21-8.91,42.19c-2.74,13.7-5.47,27.41-7.76,41.19-1.4,8.41-2,17-2.91,25.45a8.15,8.15,0,0,0,.09,2.38c.07.38.53.93.85,1a1.75,1.75,0,0,0,1.42-.52,13.62,13.62,0,0,0,1.07-2.66c5.63-16.32,11.19-32.65,16.88-48.95,6.77-19.39,13.71-38.72,21.55-57.71a8.62,8.62,0,0,0,.35-.89c1.05-3.66,3.68-4.93,7.26-5,6.42-.06,12.58,1,18.28,4.05,3.63,2,6.66,4.6,7.54,8.83a22.54,22.54,0,0,1,.23,6.42c-.48,5.73-1.14,11.44-1.76,17.15-.72,6.59-1.48,13.17-2.2,19.76q-.84,7.62-1.63,15.24c-.61,5.88-1.23,11.75-1.76,17.63-.45,5-.81,10-1.13,15.05-.27,4.3-.42,8.62-.62,12.93,0,.32-.15.69,0,.94.22.46.57,1.18.88,1.19a2.06,2.06,0,0,0,1.5-.77,8.21,8.21,0,0,0,.9-2.21c3.72-11.48,7.46-22.95,11.13-34.44,7.65-24,15.24-48,25-71.21,3.69-8.76,7.95-17.28,11.88-25.93,1.24-2.74,3.25-3.87,6.21-4a35.25,35.25,0,0,1,24,7.45,13.47,13.47,0,0,1,5.45,11.9c-1.85,19-6.08,37.65-10.17,56.3-3,13.72-6,27.46-8.72,41.24a272.73,272.73,0,0,0-4.14,28.91,164.67,164.67,0,0,0-.74,19.87,50.51,50.51,0,0,0,2,13.24,32.39,32.39,0,0,0,2.1,5.08,13.51,13.51,0,0,0,20.47,4.5,31.27,31.27,0,0,0,7.39-8.43,79.66,79.66,0,0,0,7.56-16.54c1-3,1.68-3.21,4.41-1.58,3.14,1.88,4.31,4.86,4.41,8.29a34.33,34.33,0,0,1-2.11,12.22c-4,11.59-10.65,21.24-20.86,28.24a35.81,35.81,0,0,1-21,6.46c-11.08-.12-19.38-5.18-24.77-14.93-3.57-6.45-5.47-13.44-6.7-20.65a134.93,134.93,0,0,1-1.35-31.56c.43-6.68,1.42-13.34,2.47-20,1.74-11,3.7-21.88,5.62-32.81.79-4.48,1.72-8.94,2.56-13.41C1628,452.1,1628.12,451.08,1628.33,449.65Z" transform="translate(-19.99 -23.19)"/><path class="cls-3" d="M1208.95,357.19c-.61,1.36-1.17,2.49-1.63,3.66a175.57,175.57,0,0,0-8.11,27.81q-3.62,17.1-6.61,34.33c-1.47,8.49-2.51,17.06-3.58,25.61-1.17,9.35-2.25,18.71-3.18,28.08-.7,7-1.16,14-1.61,21-.55,8.69-1,17.39-1.45,26.08-.23,4.55-.4,9.1-.48,13.66-.19,11.51-.31,23-.46,34.54,0,.48,0,1,0,1.44.16,2.86.88,3.4,3.76,3a8.1,8.1,0,0,1,2.15-.07,3,3,0,0,1,2.84,3.23,11,11,0,0,1-.93,3.92c-1.1,2.3-2.41,4.51-3.72,6.71-1.55,2.61-3.33,5.1-4.76,7.77a19.63,19.63,0,0,0-2.27,6c-.56,3.58-2.54,4.31-5.81,4.06a21.94,21.94,0,0,1-4.46-.88,69.89,69.89,0,0,1-19.2-9.14,3.87,3.87,0,0,1-1.92-3.56c.08-11.92,0-23.84.16-35.76.1-6.87.52-13.73.95-20.59.56-9,1.14-18,1.94-27,1-11.29,2.07-22.58,3.38-33.84,1.42-12.13,3-24.25,4.79-36.33,4.39-28.83,9.68-57.48,17.64-85.58,4-14,8.52-27.81,14.85-41a89.81,89.81,0,0,1,11.2-18.12,3.84,3.84,0,0,1,4.37-1.47,37.6,37.6,0,0,1,19.88,11.37,6.71,6.71,0,0,1,1.82,4.24c.64,7.24,1.43,14.46,2.22,21.68.81,7.46,1.62,14.92,2.54,22.37,1,8.08,2.12,16.15,3.2,24.22.82,6.09,1.62,12.19,2.48,18.27,1.15,8.14,2.3,16.29,3.54,24.41q2,12.9,4.13,25.78c1.74,10.39,3.43,20.8,5.43,31.15,2,10.51,4.37,21,6.64,31.41.52,2.42,1.3,4.78,2,7.17a2.07,2.07,0,0,0,2.19,1.78c1.63,0,2.13-.37,2.31-2,.35-3.17.62-6.36,1-9.53.83-6.74,1.61-13.48,2.59-20.19,1.28-8.77,2.68-17.52,4.13-26.26s2.89-17.49,4.56-26.19c3-15.76,6.07-31.52,9.42-47.22,5.72-26.8,12-53.48,20.59-79.53a119,119,0,0,1,8-19.51,48,48,0,0,1,4.34-6.29,4.54,4.54,0,0,1,4.29-1.66,63.28,63.28,0,0,1,19.21,4.81,33.61,33.61,0,0,1,4.41,2.41c1.83,1.17,1.85,1.49,1.14,3.53-4.83,14-9.81,27.9-14.43,41.94q-12.56,38.14-21.76,77.25-6.77,28.56-11.56,57.52c-1.69,10.32-3.11,20.68-4.5,31-1.2,8.94-2.23,17.9-3.21,26.87-.65,6-1.08,11.93-1.6,17.89-.75,8.67-1.52,17.34-2.24,26-.4,4.86-.72,9.72-1.06,14.58-.17,2.5-.83,3.36-3.24,4.09a6,6,0,0,1-1.16.27c-9.62.9-18.46-1.14-26.16-7.17a19.68,19.68,0,0,1-7.25-11.24q-8.29-34.36-15.23-69c-2.87-14.41-5.77-28.82-8.43-43.27-2.62-14.21-5-28.46-7.39-42.71-1.66-9.92-3.23-19.86-4.64-29.82-1-7.27-1.74-14.59-2.61-21.88a16.26,16.26,0,0,1-.32-2.37C1212.06,359,1210.84,358.12,1208.95,357.19Z" transform="translate(-19.99 -23.19)"/><path class="cls-3" d="M1856.25,509.34c6.18-.65,10.42,3.32,10.49,9.65a61.78,61.78,0,0,1-1.87,14.7c-2.78,11.88-7.33,23-14.55,32.89-4.49,6.16-9.84,11.44-17,14.47-9.68,4.12-19.09,3.65-27.72-2.69a29.2,29.2,0,0,1-11.54-18.22,7.22,7.22,0,0,0-.29-1.16,1.56,1.56,0,0,0-2.8-.46,14.06,14.06,0,0,0-1,1.88c-6.18,11-14.83,19.35-26.82,23.51-14.46,5-27.77,2.28-39.47-7.59-8.42-7.1-13.7-16.36-17.42-26.58a107.62,107.62,0,0,1-5.77-26.86,172.63,172.63,0,0,1-.28-26.36c1.46-25,6.33-49.24,16.21-72.35,5.15-12.05,11.55-23.36,20.2-33.29,6.86-7.88,14.72-14.52,24.59-18.29,13.36-5.09,26.65-4.84,39.46,1.76A28.53,28.53,0,0,1,1815.55,392a21.22,21.22,0,0,1,.74,8.06c-.18,2-.16,2.06,1.87,2.52s4.24.81,6.32,1.37a23.58,23.58,0,0,1,4.7,1.74c3.11,1.61,4,3.76,3.07,7.15-3.42,13.14-6.93,26.25-10.26,39.41a439.32,439.32,0,0,0-8.81,43.65c-1,6.47-1.59,13-2.07,19.52-.4,5.41-.48,10.86-.47,16.29a46.93,46.93,0,0,0,2.44,15.8c1.76,5,4.83,8.73,10.19,9.9a19.48,19.48,0,0,0,17.09-4.14c3.89-3.15,6.41-7.31,8.4-11.82,3-6.85,4.64-14.09,5.88-21.44C1855.23,516.52,1855.7,513,1856.25,509.34Zm-83.21-65a13.9,13.9,0,0,1,.68-1.27,68.42,68.42,0,0,0,12-32.21,40.18,40.18,0,0,0-.24-11.69c-1.12-5.71-4.92-8.07-10.55-6.63a18.18,18.18,0,0,0-7.14,3.78,42.31,42.31,0,0,0-9.06,11.09,117,117,0,0,0-9.57,20.88,262.46,262.46,0,0,0-10.9,40.92c-1.77,9.48-3.12,19.05-4.44,28.61-.73,5.29-1.08,10.64-1.49,16a141.47,141.47,0,0,0,.6,31.08,26.26,26.26,0,0,0,3.45,10.39,10.61,10.61,0,0,0,8.63,5.27,11.63,11.63,0,0,0,8-2.48,31.92,31.92,0,0,0,7.37-8.14,100.72,100.72,0,0,0,10.18-19.79,322.34,322.34,0,0,0,19.84-74.32c.41-3,.41-3-2.46-3.77a42.58,42.58,0,0,1-10.46-4.09A12.63,12.63,0,0,1,1773,444.35Z" transform="translate(-19.99 -23.19)"/><path class="cls-3" d="M2684.69,509.36c5.54-.65,9.79,2.74,10.17,8a53.08,53.08,0,0,1-1.52,15.93c-2.81,12.12-7.39,23.46-14.81,33.54-4.08,5.53-8.88,10.3-15.08,13.45-17.95,9.12-36-1.05-40.76-18.94a17.43,17.43,0,0,1-.46-2.1c-.1-.72-.41-1.34-1.14-1.27a2.89,2.89,0,0,0-1.81.8,19.84,19.84,0,0,0-1.53,2.7C2611.53,572,2603,580,2591.3,584c-14,4.79-27,2.23-38.51-7.06-7.67-6.17-12.76-14.24-16.58-23.18a97.37,97.37,0,0,1-6.76-25.64,131.26,131.26,0,0,1-1.27-22.23c.31-8.13.72-16.27,1.71-24.37a226.31,226.31,0,0,1,7.79-37.72,162.89,162.89,0,0,1,16.7-38.37c5.55-9.07,12.07-17.32,20.37-24.05,7.59-6.16,16-10.62,25.86-11.74,11.84-1.35,23.2.14,33,7.65,6.22,4.76,10.2,11,11.1,18.9a22.81,22.81,0,0,1-.2,4c-.11,1.64,0,1.94,1.68,2.32,2.18.5,4.39.85,6.56,1.38a23.23,23.23,0,0,1,4.08,1.38c3.6,1.64,4.68,3.92,3.76,7.76-.43,1.79-1,3.55-1.44,5.32-5.06,18.24-9.73,36.58-13.59,55.12a329.46,329.46,0,0,0-5.35,32.85c-.62,5.87-.78,11.79-1.12,17.69a86.56,86.56,0,0,0,.52,15.53,32.63,32.63,0,0,0,2.46,9.48c3,6.69,8.29,9.39,15.49,8.79,6.53-.55,11.59-3.81,15.41-9.06a49.32,49.32,0,0,0,7.27-16.08,132.63,132.63,0,0,0,3.91-20.69C2684.24,511.17,2684.49,510.32,2684.69,509.36Zm-83.39-65c.54-.83,1-1.51,1.4-2.17a70.67,70.67,0,0,0,8.64-17.85,59.39,59.39,0,0,0,3-20.28,25.49,25.49,0,0,0-1.33-7.24c-1.22-3.55-4-5.13-7.73-4.58a19.62,19.62,0,0,0-5.44,1.71,23.29,23.29,0,0,0-7.7,6.38c-5,6-8.53,12.93-11.54,20.09a224,224,0,0,0-12.49,41.7c-2,9.69-3.69,19.45-5.17,29.23-1,6.7-1.49,13.49-2.1,20.24-.3,3.34-.29,6.7-.53,10a108.54,108.54,0,0,0,1.1,23.88,24.79,24.79,0,0,0,3.42,9.9,10.56,10.56,0,0,0,8.71,5.14,11.88,11.88,0,0,0,8.39-2.88,37.16,37.16,0,0,0,8.15-9.68,126.43,126.43,0,0,0,10.48-21.79,345.55,345.55,0,0,0,14.77-50.29,145.79,145.79,0,0,0,3.55-21c.16-2.14.15-2.18-2-2.73a43.93,43.93,0,0,1-10.51-4A15.74,15.74,0,0,1,2601.31,444.33Z" transform="translate(-19.99 -23.19)"/><path class="cls-3" d="M2326.5,554.27c1-.29,1.81-.51,2.62-.77,2-.63,3.94-1.32,5.93-1.89a7.33,7.33,0,0,1,2.36-.24c1.36.07,2.13.74,2.09,2.11a17.72,17.72,0,0,1-.7,5.19,114.45,114.45,0,0,1-5.06,13.18c-3.76,7.68-7.92,15.16-11.93,22.72a4.42,4.42,0,0,1-4.08,2.51,30.92,30.92,0,0,1-7.12-.57,58.54,58.54,0,0,1-18.58-8.71c-1.8-1.22-2.16-2.67-1.88-4.7.68-4.9,1.18-9.83,1.76-14.74.7-5.95,1.39-11.89,2.12-17.84.71-5.79,1.46-11.57,2.21-17.35.86-6.73,1.72-13.46,2.61-20.19q1.3-9.73,2.67-19.46,1.59-11.38,3.24-22.75,1.44-10,3-19.9c1.32-8.76,2.61-17.53,4-26.28,1.63-10.09,3.29-20.17,5.1-30.22,2.73-15.16,5.61-30.3,8.42-45.45.14-.75.19-1.52.29-2.39-2.52-.44-4.68.29-6.83.64-16.32,2.67-32.49,6.09-48.55,10a8.5,8.5,0,0,1-7.48-1.45,30.23,30.23,0,0,1-11.45-17.49,9.8,9.8,0,0,1-.13-1.91,3.2,3.2,0,0,1,2.34-3.48c4-1.41,7.95-2.95,12-4.24a294.75,294.75,0,0,1,37.22-9.1c9.42-1.73,18.88-3.25,28.35-4.72a2.86,2.86,0,0,0,2.67-2.49c1.24-4.55,2.55-9.07,3.89-13.59.54-1.84.91-2.08,2.76-1.72,6.15,1.2,12.14,2.87,17.51,6.25.54.34,1.07.7,1.59,1.07,3.11,2.25,3.11,2.26,2.93,5.91a19.68,19.68,0,0,0,5.84,0c4.77-.39,9.54-.85,14.31-1.26,5.25-.45,10.5-1,15.76-1.29,6.63-.36,13.26-.37,19.79,1.14a11.53,11.53,0,0,1,7.09,4.52c2.78,3.81,5.76,7.47,8.62,11.22a36,36,0,0,1,2.37,3.61c1.83,3.12,1.18,5.81-2.09,7.38a14.77,14.77,0,0,1-5.52,1.31c-6.54.33-13.11.32-19.65.69-8,.45-15.93,1.12-23.89,1.73q-9.19.71-18.38,1.53c-2.86.25-5.71.66-8.57.9-1.39.12-1.9.82-2.12,2.11-.75,4.49-1.61,9-2.38,13.44-1.55,9-3.12,17.93-4.6,26.9-1.41,8.51-2.72,17-4.05,25.55-1.22,7.81-2.43,15.62-3.59,23.43-1.07,7.27-2.09,14.54-3.1,21.82q-1.62,11.74-3.17,23.49c-.75,5.78-1.43,11.57-2.15,17.35s-1.47,11.72-2.18,17.58c-.57,4.76-1.1,9.52-1.64,14.28q-1.11,9.76-2.21,19.51c-.2,1.75-.4,3.49-.54,5.24A10.75,10.75,0,0,0,2326.5,554.27Z" transform="translate(-19.99 -23.19)"/><path class="cls-3" d="M2834.73,491.84a27.22,27.22,0,0,0-.92,2.84c-1.38,6.56-3,13.09-4,19.7a174.8,174.8,0,0,0-2.05,32c.18,6.46,1.29,12.73,4.63,18.39,3.85,6.52,9.73,9.91,17.1,11.05,11.32,1.75,20.69-2.39,29.08-9.51,7.54-6.4,13.27-14.26,18.07-22.83a103.26,103.26,0,0,0,11.82-31.5,43.68,43.68,0,0,0,1.07-9.25c-.14-4.57,3.44-5.93,7.21-4.89a9.16,9.16,0,0,1,5.15,4.09,24,24,0,0,1,3.36,9.39c.81,4.65.27,9.28-.18,13.86a124.15,124.15,0,0,1-7.59,32.09c-4.4,11.6-10.18,22.41-18.6,31.65-7.09,7.78-15.42,13.74-25.79,16.25-15.55,3.76-29.63.25-42.23-9.36-9.67-7.38-16.14-17.19-20.54-28.41a81.64,81.64,0,0,1-5.79-25.6c-.4-7.57-.65-15.19-.32-22.75a263.39,263.39,0,0,1,3.09-29,343.19,343.19,0,0,1,15.95-63.32c5-13.8,10.79-27.19,18.85-39.51,4-6.12,8.52-11.81,14.39-16.27a23.61,23.61,0,0,1,10.55-4.89,25,25,0,0,1,18.22,4.22c5.9,3.88,9.62,9.49,12.18,15.94a62.89,62.89,0,0,1,3.8,16.27,137.88,137.88,0,0,1,.32,22c-.67,14.14-2.29,28.17-6.12,41.86-2.79,10-6.46,19.59-12.85,27.92-4.37,5.7-9.69,10.29-16.79,12.17-12.73,3.36-22.52-.77-28.9-11.9-.51-.88-1-1.8-1.44-2.7Zm40.69-87.16c-.09-1.35-.19-2.71-.25-4.06a36.18,36.18,0,0,0-.14-4.07,45.71,45.71,0,0,0-1.59-7.7c-1.19-3.47-4.05-3.86-6.35-1a22.4,22.4,0,0,0-2.78,4.73A352,352,0,0,0,2848.37,436a266.35,266.35,0,0,0-8.68,37.52,6.62,6.62,0,0,0,.29,3.25,19.47,19.47,0,0,0,2.48,4.61c3.28,4.34,8.52,4.95,12.57,1.3a24.08,24.08,0,0,0,5-6.08,92.37,92.37,0,0,0,5.53-11.92c3.6-9.51,5.66-19.43,7.29-29.46A215.37,215.37,0,0,0,2875.42,404.68Z" transform="translate(-19.99 -23.19)"/><path class="cls-3" d="M1403.59,379.72a2.68,2.68,0,0,0,.57-.09c8.31-5.56,17.33-4.81,26.35-2.65,13.14,3.15,21.36,11.89,26.39,24a83.46,83.46,0,0,1,5.27,20.84,188.94,188.94,0,0,1,1.35,30.62c-.16,5.74-.66,11.48-1.24,17.2-.71,7-1.48,14-2.54,20.91-3.13,20.36-7.89,40.3-16.38,59.17-4.29,9.53-9.56,18.46-17,25.95-6.23,6.27-13.43,10.9-22.29,12.32-12,1.92-23-.59-32.66-8.32-8-6.42-13.33-14.8-17.44-24a127.44,127.44,0,0,1-9.16-32.91,161.25,161.25,0,0,1-1.71-33.22c.41-7.4,1.3-14.8,2.44-22.13a239.43,239.43,0,0,1,11.36-44.26,165.69,165.69,0,0,1,14.8-31.66c3.94-6.34,8.29-12.38,14.31-17a54.88,54.88,0,0,1,5.94-3.58,2.78,2.78,0,0,1,3.13.2c3.28,2.08,6.3,4.39,8.11,8A4.86,4.86,0,0,0,1403.59,379.72ZM1370.15,482.5a7.16,7.16,0,0,0-.57,1.41c-.81,6.73-1.91,13.45-2.31,20.21a136.64,136.64,0,0,0,.25,21.32A79,79,0,0,0,1372,546a30.54,30.54,0,0,0,6.79,11.2c4,3.95,8.69,5.78,14.38,4.78a23.31,23.31,0,0,0,11.93-6.24,50.11,50.11,0,0,0,9.33-12.12c5.65-9.84,9.42-20.45,12.52-31.31a347.44,347.44,0,0,0,9.76-47.59,310.57,310.57,0,0,0,3.21-35c.17-6.71.45-13.43-.89-20.08a26,26,0,0,0-3.2-9,10.58,10.58,0,0,0-8.15-5.26,12.39,12.39,0,0,0-9,2.56,42.83,42.83,0,0,0-6.48,6c-5.05,5.87-8.61,12.69-11.79,19.69-6.93,15.26-11.89,31.19-15.92,47.42-1.1,4.41-2,8.88-3,13.33-.39,1.76-.77,2.05-2.46,1.62a36.18,36.18,0,0,1-4.34-1.37C1373.21,484,1371.8,483.27,1370.15,482.5Z" transform="translate(-19.99 -23.19)"/><path class="cls-3" d="M2703.79,467.87c0-2.8,0-5.6,0-8.4.15-11,.26-22.07.51-33.1.24-10.79.59-21.57,1-32.36.21-6,.54-12,.84-18a7.21,7.21,0,0,1,6.81-7.08,27,27,0,0,1,6.42.46,46.05,46.05,0,0,1,13.75,4.8,35.33,35.33,0,0,1,3,1.92,6.3,6.3,0,0,1,2.84,6.62c-.91,6.72-1.75,13.46-2.44,20.21-.71,6.91-1.33,13.83-1.77,20.76-.5,7.89-.78,15.8-1.09,23.7-.22,5.51-.33,11-.48,16.54-.12,4.23-.43,8.48-.3,12.7.27,8.38.72,16.76,1.25,25.13.39,6.14,1,12.26,1.54,18.38.08,1,.33,1.9.35,2.85,0,1.19.54,1.77,1.74,1.77a1.78,1.78,0,0,0,2-1.61c.59-3.14,1.21-6.27,1.83-9.41q7.51-38,17.24-75.43c4.69-18.18,9.74-36.26,16-54a166.27,166.27,0,0,1,10.18-24,36.12,36.12,0,0,1,5.91-8.41,6.92,6.92,0,0,1,6.54-2.12,26.4,26.4,0,0,1,9.83,3.63,12.66,12.66,0,0,1,2.53,2.18,3.71,3.71,0,0,1,.87,4c-1,2.68-1.83,5.48-3.11,8-7.49,14.85-12.13,30.75-17.08,46.53-6.87,21.88-13.14,43.93-18.6,66.2-4.38,17.84-8.24,35.8-11.14,53.94-1.44,9-2.47,18-3.57,27.06a241.24,241.24,0,0,0-1.9,32.76,4.14,4.14,0,0,1-1.45,3.36,12.43,12.43,0,0,1-8.18,3.52,36.44,36.44,0,0,1-17.92-3.51c-8.38-4.2-13.24-11.13-15.23-20.11a78.86,78.86,0,0,1-1-8.79c-.56-5.32-1.06-10.65-1.68-16-.68-5.87-1.52-11.72-2.19-17.59-.82-7.22-1.56-14.45-2.3-21.67-.23-2.22-.43-4.45-.51-6.69q-.74-19.41-1.41-38.81Z" transform="translate(-19.99 -23.19)"/><path class="cls-3" d="M2445.77,461.69c.58-1.4,1.15-2.7,1.65-4,3.88-10.24,7.17-20.68,10-31.25,3.79-13.95,7.41-27.94,11.12-41.92.25-.93.52-1.84.81-2.76a13.28,13.28,0,0,1,8.75-8.87c4.76-1.67,9.6-1.38,14.43-.32a30.31,30.31,0,0,1,4.36,1.31c6.34,2.43,8.93,7.19,8.08,14.32-.8,6.74-3.47,12.93-5.88,19.19-3.27,8.5-6.52,17-8.53,25.93a80.65,80.65,0,0,0-2.2,17.8,12.7,12.7,0,0,0,17.67,11.79,19.41,19.41,0,0,0,7.1-5.19,48.81,48.81,0,0,0,7.24-11.83c.51-1.08,1-2.2,1.53-3.25,1-1.78,1.43-1.93,3.25-1.24,2.76,1.06,3.77,2.54,3.59,5.49a33.83,33.83,0,0,1-2.9,11.08c-3.29,7.75-8.06,14.35-15.27,18.93a24.21,24.21,0,0,1-14.05,4.11,56.57,56.57,0,0,1-9-.8c-9.29-1.86-15.34-7.62-18.34-16.46a103.65,103.65,0,0,1-2.54-10.94c-.23-1-.38-2.11-.57-3.16l-.56,0a15.74,15.74,0,0,0-.9,1.8c-6.58,18.53-12.89,37.13-17.2,56.35-2.32,10.37-4.3,20.79-5.63,31.34-1.08,8.56-2.07,17.12-2.36,25.75-.14,4.07-.31,8.14-.47,12.22-.07,1.78-.16,2.22-2,2.43a34.57,34.57,0,0,1-8.57.17,39.62,39.62,0,0,1-16.4-6.41,30.14,30.14,0,0,1-4.57-3.85,7.7,7.7,0,0,1-2.11-6.61c.67-6.27,1.26-12.55,1.85-18.83.76-8.11,1.58-16.21,2.22-24.33.5-6.29.77-12.6,1.14-18.9.42-7.18.89-14.35,1.26-21.53.28-5.51.46-11,.64-16.53.34-10.14.57-20.29,1-30.43.32-7.1.78-14.2,1.45-21.27a104.36,104.36,0,0,1,3.33-19.81A38.54,38.54,0,0,1,2421,384c2.38-4.49,4.88-5.73,9.82-4.92,6.52,1.08,12.23,4.11,17.67,7.7a2.47,2.47,0,0,1,1.06,2.5c-.23,3.19-.37,6.38-.71,9.56-.7,6.67-1.48,13.33-2.27,20-.7,5.94-1.53,11.87-2.18,17.82-.63,5.79-1.11,11.6-1.65,17.41-.13,1.35-.3,2.7-.36,4.06C2442.29,460.83,2442.51,461.06,2445.77,461.69Z" transform="translate(-19.99 -23.19)"/></svg>