<?xml version="1.0" encoding="utf-8"?>
<!-- Generator: Adobe Illustrator 23.0.3, SVG Export Plug-In . SVG Version: 6.00 Build 0)  -->
<svg version="1.1" id="Слой_1" xmlns="http://www.w3.org/2000/svg" xmlns:xlink="http://www.w3.org/1999/xlink" x="0px" y="0px"
	 viewBox="0 0 80 80" style="enable-background:new 0 0 80 80;" xml:space="preserve">
<style type="text/css">
	.st0{fill:#0074CC;}
</style>
<path class="st0" d="M32.1,46.1c0-0.3,0-0.6,0.1-0.9c0,0,0-0.1,0.1-0.1c0,0,0,0,0.1,0c0,0,0.1,0.1,0.1,0.1c0,0,0,0.1,0,0.1
	c0,0,0,0.1,0,0.1C32.3,45.6,32.2,45.8,32.1,46.1C32.1,46.1,32.1,46.1,32.1,46.1z"/>
<path class="st0" d="M34.2,51.3C34.2,51.3,34.2,51.3,34.2,51.3C34.2,51.3,34.1,51.3,34.2,51.3c0.1-0.6,0.3-1.2,0.6-1.8
	c0.1-0.1,0.1-0.2,0.2-0.3c0,0,0,0,0-0.1l0.1,0c0,0.1,0,0.1,0,0.2c0,0.1,0.1,0.2,0.1,0.3c0,0.1,0.1,0.1,0.1,0.2c0,0-0.1,0.1-0.1,0.1
	C34.8,50.3,34.5,50.8,34.2,51.3z"/>
<path class="st0" d="M35.5,50.5c0.1-0.1,0.1-0.1,0.2,0c0,0,0,0,0,0.1c0,0,0,0,0,0.1c0,0,0,0,0,0L35.3,51c0,0,0-0.1,0-0.1
	C35.3,50.7,35.4,50.6,35.5,50.5z"/>
<path class="st0" d="M32.8,50.7c0.1-0.4,0.3-0.7,0.5-1c0.5-0.8,1-1.7,1.5-2.4c0,0,0.1-0.1,0.1-0.1c0,0,0,0,0,0c0,0,0,0.1,0,0.1
	c0,0.3,0,0.6,0,0.9c0,0.3,0.1,0.7,0.1,1l-0.1,0c0,0-0.1,0-0.1,0c0,0,0,0-0.1,0c-0.1,0-0.2,0.1-0.2,0.1c-0.5,0.2-0.9,0.5-1.2,0.9
	C33.2,50.3,33,50.5,32.8,50.7c0.1,0.1,0,0.1,0,0.1C32.7,50.8,32.7,50.8,32.8,50.7z"/>
<path class="st0" d="M29.7,45.7c-0.1,0-0.1,0-0.2,0.1c0,0,0-0.1,0.1-0.1c0.3-0.3,0.6-0.5,1-0.8c0.2-0.1,0.3-0.3,0.4-0.5
	c0.1-0.2,0.2-0.4,0.4-0.6c0,0,0,0,0.1-0.1c0,0,0,0,0.1,0c0,0,0.1,0.1,0.1,0.1c0.1,0.3,0.3,0.6,0.5,0.8c0.1,0.1,0.1,0.1,0,0.2
	c-0.1,0.1-0.1,0.2-0.2,0.2c-0.2,0.3-0.4,0.5-0.5,0.9c-0.2,0.4-0.3,0.8-0.4,1.2c0,0,0,0.1,0,0.1c-0.1,0.3-0.1,0.6-0.2,0.9
	c0-0.8,0.2-1.7,0.5-2.5c0-0.1,0.1-0.2,0.1-0.2c0-0.1,0-0.2-0.1-0.2c0,0,0,0-0.1,0c-0.1,0-0.2,0-0.3,0c-0.1,0-0.1,0.1-0.2,0.1
	c-0.1,0.2-0.1,0.4-0.1,0.6c0,0.2-0.1,0.4-0.1,0.6c0,0,0,0.1,0,0.1c0,0,0-0.1,0-0.1c0,0,0-0.1,0-0.1c0-0.3,0-0.6,0.1-0.9
	c0,0,0-0.1,0-0.1c0-0.1-0.1-0.1-0.1-0.1c0,0-0.1,0-0.1,0C30.1,45.6,29.9,45.7,29.7,45.7z"/>
<path class="st0" d="M54.2,41.6c0,0,0,0.1,0.1,0.1c0.2,0.6,0.4,1.3,0.5,1.9c0,0,0,0.1,0,0.1c0,0.2,0.1,0.4,0.3,0.6l-0.1,0
	c0,0,0,0-0.1-0.1c-0.1-0.1-0.2-0.2-0.3-0.2c-0.1-0.1-0.1-0.1-0.2-0.2c-0.1-0.1-0.1-0.2-0.1-0.2c0-0.1,0-0.1,0-0.2
	c0-0.1,0-0.3-0.1-0.4c0-0.1,0-0.2-0.1-0.4c-0.1-0.3-0.1-0.5-0.1-0.8C54.1,41.8,54.1,41.7,54.2,41.6C54.1,41.6,54.2,41.6,54.2,41.6z"
	/>
<path class="st0" d="M64.6,62.1c0,0,0.1,0,0.1,0c0.2-0.1,0.4-0.1,0.6-0.1c0.1,0,0.1,0,0.2,0c0.3,0,0.6-0.2,0.8-0.4
	c0-0.1,0.1-0.1,0.1-0.2c0.1-0.3,0.2-0.5,0.3-0.8c0,0,0-0.1,0-0.1c0,0-0.1,0-0.1,0c-0.1,0-0.1,0.1-0.2,0.1c-0.6,0.4-1.2,0.9-1.7,1.3
	c0,0-0.1,0.1-0.1,0.1C64.5,62,64.5,62,64.6,62.1C64.5,62.1,64.5,62.1,64.6,62.1z M61.1,56C61.1,56,61.2,56,61.1,56
	c0.1,0,0.2,0,0.2,0c0.4-0.1,0.8-0.2,1.3-0.3c0.9-0.2,1.9-0.5,2.8-0.7c0.6-0.2,1.1-0.3,1.7-0.5c0.3-0.1,0.3-0.1,0.3-0.5
	c0,0,0-0.1,0-0.2c0-0.1,0-0.2,0-0.4c0-0.4-0.1-0.7-0.1-1.1c-0.1-0.3-0.2-0.6-0.3-0.9c-0.1-0.2-0.2-0.3-0.3-0.4
	c-0.2-0.2-0.4-0.2-0.7-0.1c-0.2,0.1-0.4,0.1-0.6,0.3c-0.3,0.2-0.6,0.5-0.9,0.8c-0.2,0.3-0.4,0.6-0.7,0.9c-0.8,1-1.6,2-2.5,2.9
	C61.2,55.8,61.2,55.8,61.1,56C61.1,55.9,61.1,55.9,61.1,56z M55,44.4L55,44.4c0.1,0,0.2,0.1,0.2,0.1c0.2,0.2,0.5,0.5,0.7,0.7
	c0.5,0.4,1,0.8,1.5,1.2c0.5,0.4,1,0.8,1.5,1.2c0.4,0.3,0.7,0.6,1,0.9c0.2,0.2,0.4,0.4,0.5,0.6c0,0.1,0.1,0.1,0.1,0.2
	c0.1,0.1,0.2,0.2,0.4,0.2c0.1,0,0.3,0,0.4,0c0.1,0,0.2-0.1,0.3-0.1c0.3-0.1,0.6-0.2,0.8-0.4c0.3-0.1,0.5-0.3,0.8-0.4
	c0.2-0.1,0.4-0.3,0.6-0.4c0.2-0.1,0.4-0.3,0.6-0.4c0.2-0.1,0.4-0.3,0.6-0.4c0.2-0.2,0.5-0.3,0.7-0.4c0.3-0.1,0.6-0.1,0.9,0.1
	c0.1,0,0.2,0.1,0.3,0.2c0.2,0.1,0.4,0.3,0.5,0.4c0.2,0.2,0.4,0.3,0.6,0.4c0.2,0.1,0.4,0.2,0.6,0.3c0.1,0.1,0.2,0.1,0.4,0.2
	c0.4,0.2,0.6,0.6,0.7,1c0,0.2,0,0.4,0,0.5c0,0.4,0,0.7,0,1.1c0,0.2,0,0.4,0,0.5c0,0.3,0,0.6,0,0.8c0,0.3,0,0.6,0.1,0.9
	c0,0,0,0,0,0.1c0,0.1,0.1,0.1,0.1,0.1c0.1,0,0.1-0.1,0.2-0.1c0.1-0.1,0.2-0.1,0.3-0.2c0.4-0.2,0.9-0.3,1.3-0.2
	c0.2,0,0.4,0.1,0.6,0.2c0.4,0.1,0.7,0.3,1.1,0.5c0.4,0.2,0.7,0.5,1,0.9c0.2,0.3,0.3,0.5,0.4,0.8c0.1,0.2,0.1,0.5,0.2,0.7
	c0.6,1.5,1.2,3,1.9,4.4c0.3,0.7,0.6,1.4,1,2c0.1,0.1,0.1,0.3,0.2,0.4c0.2,0.4,0.4,0.7,0.4,1.1c0,0.3,0,0.5,0,0.8
	c-0.1,0.2-0.1,0.5-0.1,0.7c0,0.3,0,0.6,0,1c0.1,0.5,0.1,1,0.3,1.5c0.1,0.4,0.2,0.9,0.2,1.3c0,0.1,0,0.1,0,0.2c0,0.3,0,0.5,0.1,0.8
	c0.1,0.3,0.1,0.7,0.1,1c0,0.1,0,0.3,0,0.4c0,0.1,0,0.2,0,0.3c0,0.4-0.1,0.9-0.2,1.3c0,0.1-0.1,0.1-0.1,0.2c0,0-0.1,0-0.2,0
	c-0.2,0-0.4,0-0.6,0c-0.5-0.1-0.9-0.2-1.3-0.4c-0.7-0.3-1.3-0.6-1.8-1c-0.1,0-0.1-0.1-0.2-0.1c-0.1-0.1-0.2-0.3-0.2-0.5
	c0-0.2,0-0.3,0-0.5c0.1-0.3,0.1-0.5,0.2-0.8c0-0.3,0.1-0.5,0.1-0.7c0-0.2,0-0.5,0-0.7c0-0.1,0-0.2,0.1-0.3c0.1-0.1,0.2-0.1,0.3-0.2
	c0.1-0.1,0.2-0.1,0.3-0.2c0.1-0.1,0.2-0.1,0.3-0.2c0.2-0.2,0.3-0.6,0.2-0.9c-0.1-0.2-0.1-0.4-0.2-0.6c-0.1-0.1-0.1-0.2-0.2-0.3
	c-0.2-0.2-0.3-0.5-0.3-0.8c0-0.1,0-0.2,0-0.3c0-0.2,0-0.3,0-0.5c0,0,0-0.1,0-0.1c0-0.5-0.1-1-0.3-1.6c-0.1-0.4-0.2-0.8-0.4-1.2
	c-0.3-0.9-0.6-1.8-1.1-2.6c-0.3-0.5-0.6-1-0.9-1.4c-0.1-0.2-0.3-0.3-0.4-0.4c-0.4-0.3-0.8-0.3-1.2-0.1c-0.2,0.1-0.3,0.2-0.4,0.3
	c-0.1,0.1-0.1,0.2-0.1,0.3c0.1,0.4,0.1,0.7,0.2,1.1c0.1,0.3,0.1,0.5,0.1,0.8c0,0.1,0,0.3,0,0.4c0,0.4-0.2,0.7-0.4,1
	c-0.1,0.1-0.2,0.2-0.3,0.3c-0.3,0.3-0.6,0.6-0.8,0.9c-0.4,0.4-0.7,0.8-0.9,1.3c-0.3,0.7-0.8,1.2-1.4,1.7c-0.1,0-0.1,0.1-0.2,0.1
	c-0.3,0.2-0.5,0.5-0.8,0.8c-0.4,0.4-0.8,0.8-1.2,1.1c-0.2,0.2-0.4,0.3-0.6,0.5c-0.1,0.1-0.3,0.1-0.5,0.1c-0.2-0.1-0.4-0.2-0.5-0.4
	c-0.1-0.1-0.1-0.2-0.2-0.4c-0.1-0.3-0.2-0.6-0.2-1c0-0.2,0-0.4,0-0.5c0-0.1,0-0.1,0-0.2c0-0.5,0-0.9,0-1.4c0-0.1,0-0.1,0-0.2
	c0,0-0.1-0.1-0.1,0c0,0-0.1,0-0.1,0c-0.1,0-0.1,0.1-0.2,0.1c-0.4,0.3-0.8,0.6-1.1,0.9c-0.2,0.1-0.4,0.2-0.6,0.3
	c-0.4,0.2-0.9,0.3-1.3,0.5c-0.4,0.1-0.4,0.1-0.4,0.5c0,0.1,0,0.2,0,0.2c0,0.1,0,0.1,0,0.2c0,0.5-0.1,0.9-0.2,1.3
	c-0.1,0.6-0.2,1.1-0.4,1.7c-0.2,0.5-0.4,1-0.6,1.5c0,0,0,0-0.1,0.1c0-0.2-0.1-0.5-0.1-0.7c0-0.2,0-0.3,0-0.5c0,0,0-0.1,0-0.1
	c0-0.3-0.1-0.6-0.2-0.9c0-0.2-0.1-0.4-0.1-0.5C57,68,57,67.7,56.9,67.5c0-0.1,0-0.2,0-0.3c0-0.3,0-0.6-0.1-1c0-0.1,0-0.2,0-0.3
	c0-0.2,0-0.3,0-0.5c0,0,0-0.1,0-0.1c0-0.3,0-0.6-0.1-0.9c0-0.2,0-0.3-0.1-0.5c0-0.2-0.1-0.4-0.1-0.6c0-0.1,0-0.1,0-0.2
	c0,0,0-0.1,0-0.1c0-0.2-0.1-0.5-0.1-0.7c0-0.3-0.1-0.5-0.1-0.8c0-0.2,0-0.5-0.1-0.7c0,0,0-0.1,0-0.1c0-0.1,0-0.1,0-0.2
	c0-0.2-0.1-0.5-0.1-0.8c0-0.2,0-0.3-0.1-0.5c0-0.2,0-0.4-0.1-0.6c0-0.1,0-0.2,0-0.3c0-0.2,0-0.4-0.1-0.6c0-0.1,0-0.1,0-0.2
	c0-0.2,0-0.3-0.1-0.5c0,0,0-0.1,0-0.1c0-0.4-0.1-0.9-0.1-1.3c0-0.1,0-0.1,0-0.2c0,0,0-0.1,0-0.1c0-0.3-0.1-0.7-0.1-1
	c0,0,0-0.1,0-0.1c-0.1-0.4-0.1-0.9-0.2-1.3c0-0.1,0-0.2,0-0.2c0-0.1,0-0.3,0-0.4c0-0.1,0-0.2,0-0.3c0-0.1,0-0.3,0-0.4
	c0-0.1,0-0.1,0-0.2c0-0.2,0-0.4-0.1-0.6c0-0.2-0.1-0.4-0.1-0.7c0-0.1,0-0.2,0-0.2c0-0.1,0-0.1,0-0.2c0-0.3-0.1-0.5-0.1-0.7
	c0-0.1-0.1-0.3-0.1-0.4c0-0.1,0-0.2,0-0.2c0-0.1,0-0.2,0-0.3c0-0.1,0-0.2,0-0.2c-0.1-0.2,0-0.5-0.1-0.8c0-0.1,0-0.2,0.1-0.2
	c0,0,0,0,0.1,0c0.2-0.1,0.2-0.2,0.2-0.4c0-0.1,0-0.3,0-0.4c0-0.2,0.1-0.3,0.1-0.5c0.1-0.2,0.1-0.4,0-0.5c-0.1-0.2-0.1-0.3-0.1-0.5
	C55,44.6,55,44.5,55,44.4L55,44.4z"/>
<path class="st0" d="M33.5,29.3c0.1,0.1,0.3,0.1,0.5,0.1c0.2,0,0.5-0.1,0.7-0.2c0.4-0.2,0.8-0.5,1.1-0.8c0,0,0-0.1,0-0.1
	c0,0-0.1-0.1-0.1,0c-0.1,0-0.1,0-0.2,0c-0.4,0.1-0.7,0.2-1.1,0.3c-0.3,0.1-0.6,0.2-0.9,0.4c0,0-0.1,0.1-0.1,0.1
	C33.4,29.1,33.4,29.2,33.5,29.3C33.5,29.2,33.5,29.3,33.5,29.3z M32.2,32.6c-0.1,0-0.1,0.1-0.2,0.1l0,0l0,0
	C32,32.6,32.1,32.6,32.2,32.6c0.5-0.5,1-0.9,1.7-1.1c0.2,0,0.3-0.1,0.5-0.1c0.1,0,0.2,0,0.2,0c0,0,0,0,0,0c0,0,0-0.1,0-0.1
	c-0.2-0.2-0.4-0.3-0.6-0.3c-0.2-0.1-0.5-0.1-0.7,0c-0.3,0-0.5,0.1-0.8,0.2c0,0,0,0-0.1,0c0,0,0,0,0-0.1c0.2-0.2,0.4-0.4,0.6-0.6
	c0.2-0.2,0.5-0.4,0.8-0.6c0,0,0.1-0.1,0.1-0.1c0,0,0-0.1,0-0.1c0,0-0.1,0-0.1,0c-0.3,0-0.6-0.1-0.8-0.3c0,0-0.1-0.1-0.1-0.1
	c-0.2-0.2-0.3-0.4-0.5-0.6c-0.1-0.1-0.2-0.3-0.3-0.4c0,0,0,0,0,0c0,0,0,0,0,0c0,0,0,0,0-0.1c0,0,0,0,0,0l0.3,0.3l0.3,0.3
	c0.1,0.1,0.2,0.2,0.4,0.3c0,0,0.1,0,0.2,0c0,0,0,0,0.1,0c0,0,0.1-0.1,0.1-0.1c0.7-0.7,1.5-1.4,2.3-1.9c0.4-0.2,0.8-0.5,1.2-0.7
	c0.1,0,0.1-0.1,0.2-0.1c0,0,0,0,0,0c0,0,0,0,0,0c0,0-0.1,0-0.1,0h-0.7c-0.2,0-0.4,0-0.6-0.1c-0.3-0.1-0.5-0.3-0.7-0.6
	c0-0.1-0.1-0.1-0.1-0.2c0-0.1-0.1-0.2-0.1-0.3c0,0,0,0,0.1,0c0.1,0.2,0.2,0.3,0.4,0.4c0.3,0.3,0.6,0.4,1,0.4c0.1,0,0.2,0,0.3,0
	c0.1,0,0.1,0,0.2,0c0.1,0,0.1-0.1,0.1-0.1c0,0,0-0.1-0.1-0.1c-0.1,0-0.1-0.1-0.2-0.1c-0.2-0.1-0.3-0.1-0.5-0.2
	c-0.1-0.1-0.2-0.1-0.3-0.2c-0.1-0.1-0.2-0.2-0.3-0.3c0,0,0,0,0-0.1c0.1,0,0.1,0,0.1,0.1c0.3,0.2,0.7,0.3,1.1,0.3
	c0.3,0,0.6,0,0.9-0.1c0.4-0.1,0.7-0.1,1.1-0.2c0,0,0.1,0,0.1,0c0.1,0,0.1-0.1,0-0.1c-0.1-0.1-0.1-0.2-0.2-0.2
	c-0.2-0.1-0.4-0.2-0.6-0.2c-0.5-0.1-1-0.1-1.5,0c-0.1,0-0.2,0-0.2,0c0,0,0,0,0-0.1c0.7-0.3,1.5-0.6,2.3-0.9c0.5-0.1,1-0.3,1.5-0.3
	c0.1,0,0.2,0,0.4,0c0.1,0,0.1,0,0.2,0c0,0,0,0,0,0c0,0,0,0,0-0.1c0,0-0.1-0.1-0.1-0.1c-0.2-0.1-0.5-0.2-0.8-0.2c-0.1,0-0.2,0-0.3,0
	h-0.5c0,0,0,0,0-0.1c0.4-0.2,0.9-0.3,1.3-0.3c0.3,0,0.5-0.1,0.8-0.1c0.1,0,0.3,0,0.4,0c0.1,0,0.1,0,0.2,0c0,0,0,0,0,0c0,0,0,0,0-0.1
	c-0.1-0.2-0.3-0.3-0.5-0.3c-0.2-0.1-0.4-0.1-0.6-0.1c0,0-0.1,0-0.1,0c0,0,0,0,0,0c0.1-0.1,0.2-0.1,0.4-0.1c0.3,0,0.6,0,0.9,0
	c0.1,0,0.2,0,0.3,0c0,0,0,0,0-0.1c0,0,0,0,0-0.1c0,0,0,0-0.1,0l-0.2-0.1c-0.4-0.2-0.8-0.3-1.2-0.3c-0.3,0-0.7,0-1,0.1
	c-0.3,0.1-0.5,0.3-0.7,0.5c-0.1,0.1-0.3,0.2-0.4,0.4c0,0,0,0,0,0c0,0,0,0,0,0c0.1-0.2,0.1-0.4,0.2-0.6c0.3-0.5,0.8-0.8,1.3-0.9
	c0.2-0.1,0.5-0.1,0.7-0.1c0.4,0,0.7,0,1.1,0c0.6,0.1,1.2,0.1,1.8,0.1c0.1,0,0.3,0,0.4,0c0.1,0,0.1,0,0.2,0c0.1,0,0.1-0.1,0.1-0.1
	c0,0,0,0,0,0c-0.1-0.1-0.1-0.2-0.2-0.2c-0.1-0.1-0.3-0.1-0.5-0.1c-0.2,0-0.3,0-0.5,0c-0.2,0-0.3,0-0.5,0c0,0,0-0.1,0-0.1
	c0.4-0.1,0.9-0.2,1.3-0.1c0.2,0,0.3,0,0.5,0.1c0.1,0,0.1,0,0.2,0c0,0,0,0,0,0c0,0,0,0,0-0.1c0-0.1-0.1-0.1-0.1-0.2
	c-0.3-0.3-0.6-0.6-0.8-0.9c-0.4-0.5-0.8-1.1-1-1.7c-0.1-0.3-0.2-0.5-0.3-0.8c-0.1-0.2-0.1-0.3,0-0.3c0.1,0,0.2,0.1,0.2,0.1
	c0.3,0.2,0.6,0.4,0.9,0.6c0.3,0.2,0.6,0.4,0.9,0.6c0.5,0.3,1.1,0.5,1.6,0.6l0,0c0.3,0,0.3,0,0.4-0.3c0.1-0.3,0.1-0.5,0.1-0.8
	c0-0.1,0-0.3,0-0.4c0-0.3-0.1-0.5-0.1-0.8c0-0.2-0.1-0.4-0.1-0.7c0,0,0,0,0-0.1c0,0,0,0,0,0c0.2,0.5,0.3,1,0.4,1.5
	c0.1,0.4,0.2,0.9,0.2,1.3c0,0,0,0,0,0.1c0,0,0,0.1,0,0.1c0,0,0.1,0,0.1-0.1c0-0.1,0.1-0.2,0.1-0.3c0.1-0.3,0.1-0.6,0-0.9
	c0-0.3-0.1-0.5-0.2-0.8c0,0,0,0,0,0c0.1,0.2,0.2,0.5,0.3,0.7c0.2,0.4,0.2,0.9,0.2,1.4c0,0,0,0.1,0,0.1c0,0.1,0.1,0.1,0.1,0.1
	c0.1,0,0.2-0.1,0.4-0.1c0.3-0.1,0.5-0.2,0.8-0.3c0.3-0.1,0.6-0.2,0.8-0.2c0.4-0.1,0.8,0,1.1,0.2c0.1,0,0.2,0.1,0.3,0.1
	c0.1,0,0.1,0,0.1-0.1c0.1-0.2,0.1-0.3,0.2-0.5c0,0,0-0.1,0-0.1c0,0,0.1,0,0.1,0c0.1,0,0.1,0,0.1,0.1c0.1,0.1,0.2,0.2,0.3,0.3
	c0.3,0.3,0.5,0.6,0.8,0.9c0.1,0.1,0.1,0.2,0.2,0.2c0,0.1,0.1,0.1,0.2,0c0,0,0,0,0,0c0.1-0.1,0.2-0.2,0.3-0.3l0.9-0.8
	c0.1-0.1,0.1-0.1,0.2-0.2c0,0,0,0,0,0c0,0,0,0.1-0.1,0.1c-0.2,0.4-0.4,0.8-0.5,1.2c-0.1,0.3-0.2,0.6-0.3,1c0,0.1,0,0.2,0,0.3
	c0,0.1,0,0.1,0.1,0.2c0.1,0.1,0.2,0.1,0.3,0.2c0.4,0.2,0.8,0.4,1.2,0.7c0.3,0.2,0.6,0.3,0.9,0.5s0.6,0.3,0.9,0.5
	c0.9,0.5,1.8,0.9,2.7,1.4c0.2,0.1,0.5,0.3,0.7,0.4c0.4,0.2,0.8,0.5,1.2,0.7c0.4,0.2,0.7,0.5,1.1,0.8c0.2,0.2,0.4,0.4,0.6,0.6
	c0.1,0.1,0.3,0.3,0.4,0.5c0.1,0.2,0.1,0.3,0.1,0.5c0,0.2,0,0.5,0,0.7c0,0.2-0.1,0.5-0.1,0.7c0,0.4-0.1,0.9-0.3,1.3
	c-0.1,0.4-0.3,0.8-0.6,1.1c0,0.1-0.1,0.1-0.2,0.2c-0.1,0.1-0.3,0.2-0.4,0.3c0,0-0.1,0-0.1,0c-0.3,0.1-0.6,0.3-0.9,0.5
	c-0.1,0.1-0.2,0.2-0.3,0.3c-0.2,0.2-0.4,0.2-0.7,0.2c-0.1,0-0.2,0-0.2-0.1c-0.3-0.1-0.6-0.3-0.7-0.6c0-0.1-0.1-0.2-0.3-0.2
	c-0.3,0-0.6,0-1,0c-0.3,0-0.5,0.1-0.8,0.2c-0.2,0-0.3,0.1-0.5,0.1c-0.3,0.1-0.5,0.2-0.7,0.4c-0.4,0.3-0.8,0.5-1.3,0.7
	c-0.2,0.1-0.5,0.1-0.8,0.1c-0.3,0-0.7-0.1-1-0.2c-0.2-0.1-0.3-0.1-0.5-0.1c-0.2,0-0.3,0.1-0.5,0.2c-0.2,0.2-0.4,0.5-0.4,0.8
	c0,0.2,0,0.4,0.1,0.6c0.3,1,0.5,2,0.8,2.9c0.3,1.2,0.8,2.3,1.2,3.5c0.2,0.4,0.4,0.9,0.5,1.3c0,0,0,0,0,0c0,0,0,0,0,0c0,0,0,0,0,0
	c0,0-0.1-0.1-0.1-0.1c0,0,0-0.1,0-0.1c-0.1-0.2-0.3-0.3-0.5-0.3c-0.1,0-0.2,0-0.4,0.1c-0.1,0-0.1,0.1-0.1,0.2c0,0.1,0,0.2,0,0.3
	c0,0.2,0,0.4,0.1,0.6c0,0.1,0,0.2,0,0.3c0,0.3,0.1,0.5,0.1,0.8c0,0.1,0,0.1,0,0.2c0.1,0.2,0,0.4,0,0.6c0,0.2-0.1,0.3-0.2,0.4
	c-0.1,0.1-0.1,0.1-0.2,0.2c-0.3,0.2-0.6,0.4-0.9,0.5c-0.1,0-0.2,0-0.3,0c0,0,0,0-0.1,0c-0.3-0.1-0.5-0.2-0.8-0.3
	c-0.1,0-0.1-0.1-0.1-0.2c0-0.4-0.2-0.7-0.2-1.1c-0.1-0.2-0.1-0.4-0.1-0.6c0-0.1,0-0.2-0.1-0.3c0-0.4,0-0.9,0-1.3c0-0.1,0-0.2,0-0.3
	c0-0.1,0-0.2,0-0.3c0-0.1,0-0.2-0.1-0.4c-0.1-0.1-0.2-0.2-0.3-0.2c-0.1,0-0.3,0-0.4-0.1c-0.1,0-0.2-0.1-0.2-0.3c0-0.1,0-0.1,0-0.2
	c0.1-0.1,0.1-0.2,0.2-0.3c0.1-0.1,0.1-0.2,0.2-0.2c0.1-0.2,0.2-0.5,0.1-0.7c-0.2-0.4-0.3-0.9-0.4-1.3c0-0.1-0.1-0.2-0.1-0.3
	c0-0.1,0-0.1,0-0.2c0,0,0,0,0-0.1c0.3-0.5,0.5-1,0.7-1.4c0.1-0.1,0.1-0.2,0.2-0.3c0-0.1,0.1-0.1,0.1-0.2c0.1-0.2-0.1-0.4-0.3-0.5
	c0,0,0,0,0,0c-0.2,0-0.4,0-0.6-0.1c-0.1,0-0.2-0.1-0.2-0.2c0,0,0,0,0-0.1c0-0.1,0.1-0.1,0.1-0.2c0.2-0.1,0.3-0.2,0.5-0.2
	c0.1,0,0.2,0,0.3,0c0.1,0,0.2,0,0.4-0.1c0,0,0.1,0,0.1,0c0.1-0.1,0.2-0.2,0.1-0.4c0-0.1-0.1-0.2-0.1-0.3c0-0.1,0-0.1,0-0.2
	c0-0.1,0.1-0.1,0.1-0.1c0.1-0.1,0.1-0.2,0-0.3c0-0.1,0-0.2,0.1-0.3c0,0,0,0,0,0C51,31,51,31,51,30.9c0-0.1,0.1-0.2,0.2-0.3
	c0.1-0.1,0.1-0.1,0.2-0.2c0.1-0.1,0.1-0.2,0-0.3c0,0,0-0.1-0.1-0.1c-0.1-0.2-0.3-0.5-0.5-0.7c0,0-0.1-0.1-0.1-0.1
	c-0.1-0.1-0.1-0.1,0-0.2c0.1-0.1,0.2-0.3,0.2-0.5c0-0.1,0.1-0.2,0.1-0.2c0.3-0.1,0.6-0.3,0.8-0.6c0.1-0.1,0.2-0.2,0.3-0.3
	c0.1-0.1,0.1-0.2,0-0.2c0,0,0,0-0.1,0c0,0-0.1,0-0.1,0c0,0-0.1,0-0.1,0c-0.2,0-0.4-0.1-0.5-0.1c-0.2,0-0.3-0.1-0.4-0.2
	c-0.2-0.2-0.4-0.3-0.6-0.5c-0.2-0.3-0.4-0.5-0.6-0.8c-0.2-0.2-0.3-0.4-0.5-0.7c-0.1-0.1-0.1-0.1-0.2-0.2c-0.2-0.4-0.5-0.8-0.8-1.1
	c-0.1-0.2-0.4-0.3-0.6-0.4c-0.2,0-0.3-0.1-0.5-0.1c-0.1,0-0.2,0-0.4,0c-0.4,0-0.7,0-1.1,0.1c-0.1,0-0.2,0.1-0.3,0.2
	c-0.3,0.1-0.5,0.3-0.7,0.5c-0.1,0.1-0.2,0.2-0.3,0.3c-0.1,0.1-0.1,0.2-0.2,0.2c-0.2,0.3-0.3,0.6-0.2,1c0,0.2,0.1,0.4,0.1,0.6
	c0.1,0.4,0.1,0.8,0.2,1.1c0,0,0,0,0,0c0.1,0.2,0,0.3-0.1,0.4c0,0-0.1,0.1-0.1,0.1c0,0.1,0,0.1,0,0.2c0.1,0.3,0.1,0.6,0.2,0.9
	c0,0.2,0.1,0.3,0.3,0.4c0,0,0.1,0,0.1,0c0,0,0.1,0.1,0.1,0.1c0,0.1,0,0.1,0,0.2c0,0.3,0.2,0.6,0.4,0.8c0.1,0.1,0.1,0.1,0.2,0.2
	c0.1,0.1,0.1,0.2,0.1,0.3c0,0.1,0,0.2,0,0.3c0,0.1-0.1,0.2-0.2,0.2c0,0,0,0,0,0c-0.3,0-0.7,0-1,0c-0.3,0-0.7-0.1-1-0.2
	c-0.1,0-0.2-0.1-0.2-0.2c0-0.1,0-0.1,0-0.2c-0.1-0.5-0.3-0.9-0.5-1.2c-0.1-0.2-0.3-0.4-0.5-0.5c-0.2-0.1-0.4-0.1-0.6-0.1
	c-0.4,0-0.8,0.2-1.1,0.5c-0.3,0.3-0.6,0.7-0.7,1.2c-0.1,0.2-0.1,0.4-0.1,0.6c0,0,0,0.1,0,0.1c0,0,0,0.1-0.1,0.1
	c-0.3,0-0.5,0.2-0.8,0.3c-0.1,0.1-0.2,0.1-0.3,0.2c-0.4,0.2-0.8,0.5-1.2,0.8c-0.5,0.4-0.7,0.8-0.9,1.4c0,0.1,0,0.1-0.1,0.2
	c-0.1,0.2-0.1,0.4-0.2,0.6c0,0,0,0,0,0.1c0,0.2,0,0.5,0.1,0.7c0,0.1,0,0.1,0,0.2c0,0.5,0,0.9,0,1.4c0,0.2-0.1,0.4-0.1,0.7
	c0,0.2,0,0.5,0,0.7c0,0.2,0,0.3,0,0.5c0,0.1,0,0.2-0.1,0.3c0,0-0.1,0.1-0.1,0c0,0,0,0-0.1,0c-0.1-0.1-0.2-0.1-0.3-0.2
	c-0.1-0.1-0.2-0.2-0.3-0.3c-0.2-0.2-0.4-0.3-0.6-0.5c0,0-0.1-0.1-0.1-0.1c-0.1-0.1-0.3-0.1-0.5-0.1c-0.2,0-0.4,0.1-0.5,0.2
	c-0.2,0.1-0.4,0.2-0.6,0.4c-0.1,0.1-0.2,0.2-0.3,0.2c0,0,0,0-0.1,0c0,0,0,0,0,0c0.1-0.3,0.2-0.6,0.4-0.9c0.2-0.4,0.5-0.8,0.8-1.1
	c0.3-0.3,0.5-0.6,0.8-1c0.1-0.1,0.2-0.3,0.3-0.4c0,0,0.1-0.1,0.1-0.1c0,0,0,0,0-0.1c0,0,0,0-0.1,0c-0.1,0-0.2,0-0.3,0
	c-0.2,0.1-0.3,0.1-0.4,0.2c-0.1,0-0.1,0.1-0.2,0.1c0,0,0,0-0.1,0c0,0,0,0,0-0.1c0,0,0-0.1,0-0.1c0.1-0.4,0.3-0.8,0.6-1.2
	c0.3-0.4,0.6-0.8,0.8-1.1c0.1-0.1,0.2-0.3,0.3-0.4c0,0,0-0.1,0-0.1c0,0,0,0-0.1,0c0,0-0.1,0-0.1,0c0,0-0.1,0-0.1,0
	c-0.7,0.2-1.3,0.6-1.7,1.1c-0.1,0.1-0.2,0.3-0.3,0.4c0,0-0.1,0.1-0.1,0.1c0,0,0-0.1,0-0.1c0.1-0.3,0.2-0.6,0.4-0.9
	c0.1-0.2,0.3-0.4,0.5-0.6c0.1-0.1,0.1-0.1,0.2-0.2c0,0,0-0.1,0-0.1c-0.1-0.1-0.2-0.2-0.4-0.2c-0.2,0-0.4,0-0.6,0
	C32.8,32.4,32.5,32.5,32.2,32.6L32.2,32.6z"/>
<path class="st0" d="M32.8,49.3C32.8,49.3,32.8,49.4,32.8,49.3c0.1,0.1,0.1,0.1,0.2,0.1c0,0,0.1,0,0.1-0.1c0.1-0.2,0.2-0.4,0.3-0.6
	c0,0,0-0.1,0-0.1c0,0,0-0.1-0.1-0.1c0,0,0,0,0,0c0,0,0,0-0.1,0c0,0-0.1,0.1-0.1,0.1l0,0c0-0.1,0.1-0.1,0.1-0.2c0,0,0,0,0,0
	c0,0,0,0,0,0c-0.1,0-0.1,0.1-0.1,0.1c-0.1,0.2-0.1,0.4-0.2,0.6C32.8,49.2,32.8,49.2,32.8,49.3z M32.8,47.9c0,0.1,0,0.1,0,0.2
	c0,0.1,0.1,0.1,0.1,0.1c0,0,0,0,0,0c0,0,0,0,0.1,0c0.1-0.1,0.2-0.2,0.3-0.3c0,0,0-0.1,0-0.1c0,0-0.1,0-0.1,0l-0.1,0
	c0.1-0.1,0.1-0.2,0.1-0.3c0,0,0-0.1,0-0.1c0,0,0,0,0,0c0,0,0,0-0.1,0c0,0-0.1,0-0.1,0.1C32.9,47.5,32.8,47.7,32.8,47.9L32.8,47.9z
	 M19.3,17.6c0.3,0,0.5,0,0.8,0.1c0.5,0.1,1,0.1,1.5,0.2c0.9,0.1,1.8,0.2,2.8,0.4c1.1,0.2,2.2,0.4,3.3,0.6c2.8,0.7,5.6,1.5,8.4,2.5
	c0.1,0,0.1,0,0.2,0.1c0.1,0,0.2,0,0.2,0c0,0,0.1,0,0.1-0.1c0.4-0.2,0.9-0.5,1.3-0.7c0.2-0.1,0.3-0.2,0.5-0.3c0,0,0.1-0.1,0.1-0.1
	c0,0,0-0.1,0-0.1c-0.1-0.1-0.2-0.1-0.4-0.2c-0.7-0.3-1.5-0.6-2.2-0.8c-1.2-0.4-2.5-0.8-3.7-1.1c-0.7-0.2-1.3-0.3-2-0.5
	c-0.7-0.2-1.4-0.3-2-0.4c-0.1,0-0.3-0.1-0.4-0.1c-0.2,0-0.4-0.1-0.6-0.1c-0.2,0-0.4-0.1-0.6-0.1s-0.4-0.1-0.6-0.1
	c-0.1,0-0.3,0-0.4-0.1c-0.2,0-0.3-0.1-0.5-0.1c0,0-0.1,0-0.1,0l-0.3,0l-0.2,0c-0.1,0-0.2,0-0.3,0c-0.1,0-0.2,0-0.2,0
	c-0.3-0.1-0.6,0-0.9-0.1c0,0-0.1,0-0.1,0c-0.3,0-0.6-0.1-0.9-0.1c0,0-0.1,0-0.1,0c-0.1,0-0.1,0-0.2,0c-0.2,0-0.4,0-0.7-0.1
	c-0.1,0-0.2,0-0.3,0c-0.1,0-0.2,0-0.2,0c-0.1,0-0.2,0-0.3,0.1c-0.4,0.3-0.7,0.7-1.1,1c0,0-0.1,0.1-0.1,0.1c0,0,0,0.1,0,0.1
	C19.2,17.6,19.2,17.6,19.3,17.6z M18.2,56.5c0,0,0.1,0,0.1,0c0,0,0,0,0,0c0-0.1,0.1-0.1,0.1-0.2c0.4-1.5,0.9-3,1.4-4.4
	c0.4-1.1,0.8-2.2,1.2-3.3c0.4-0.9,0.8-1.9,1.3-2.8c0.6-1.3,1.3-2.5,2-3.7c1.1-1.6,2.2-3.2,3.5-4.7c0.8-0.9,1.6-1.8,2.4-2.7
	c0.5-0.5,0.9-0.9,1.4-1.4c0.1-0.1,0.1-0.1,0.2-0.2c0,0,0.1-0.1,0.2-0.1l0.1-0.1c0.3-0.2,0.7-0.3,1.1-0.4c0.2,0,0.3,0,0.5,0
	c0.1,0,0.1,0,0.2,0.1c0,0,0.1,0.1,0,0.1c0,0,0,0,0,0c0,0-0.1,0.1-0.1,0.1c-0.5,0.5-0.8,1.1-0.9,1.8c0,0,0,0.1,0,0.1
	c0,0.1,0.1,0.1,0.2,0.1c0,0,0,0,0,0c0,0,0.1-0.1,0.1-0.1c0.1-0.1,0.2-0.2,0.3-0.4c0.2-0.2,0.4-0.5,0.6-0.7c0.3-0.2,0.6-0.4,1-0.6
	c0,0,0,0,0.1,0c0,0,0,0,0,0c-0.1,0.1-0.2,0.2-0.2,0.3c-0.3,0.4-0.6,0.8-0.9,1.2c-0.2,0.4-0.4,0.8-0.5,1.2c0,0,0,0.1,0,0.1
	c0,0.1,0.1,0.1,0.1,0.1c0,0,0,0,0,0c0,0,0.1,0,0.1-0.1c0.1-0.1,0.2-0.2,0.3-0.3c0.1,0,0.1-0.1,0.2-0.1c0,0,0,0,0,0.1
	c-0.3,0.3-0.6,0.7-0.8,1c-0.3,0.4-0.6,0.7-0.8,1.2c-0.1,0.2-0.3,0.5-0.4,0.7c-0.1,0.2-0.1,0.3-0.3,0.4c-0.6,0.7-1.1,1.4-1.7,2.1
	c-1,1.4-2,2.8-2.9,4.3c-0.6,1-1.1,2-1.6,3.1c-0.5,1.1-1,2.3-1.4,3.5c-0.4,1-0.7,2-1,3c-0.2,0.7-0.4,1.4-0.6,2.2
	c-0.2,0.7-0.3,1.5-0.5,2.2c0,0,0,0.1,0,0.1c0,0,0,0.1,0,0.1c0,0,0.1,0.1,0.1,0.1c0.2,0.1,0.3,0.2,0.5,0.3c0.6,0.4,1.3,0.7,1.9,1
	c0,0,0.1,0,0.2,0.1c0.2,0.1,0.2,0,0.3-0.1c0.1-0.3,0.1-0.6,0.2-0.9c0.1-0.8,0.3-1.5,0.5-2.3c0.3-1.1,0.5-2.1,0.9-3.2
	c0.5-1.6,1.1-3.2,1.8-4.8c0.4-0.9,0.9-1.9,1.4-2.8c0.1-0.1,0.1-0.2,0.2-0.3c0,0,0.1,0,0.1,0c0,0,0,0.1,0,0.1c0,0,0,0.1,0,0.1
	c0,0.1,0,0.3,0.1,0.4c0,0,0.1,0.1,0.1,0.1c0,0,0.1,0,0.1,0c0-0.1,0.1-0.1,0.1-0.2c0.1-0.3,0.1-0.6,0.1-0.9c0-0.1,0.1-0.3,0.1-0.4
	c0,0,0-0.1,0-0.1c0-0.1,0.1-0.1,0.2-0.1c0,0,0.1,0,0.1,0.1c0,0.1,0,0.1,0,0.2c-0.1,0.3-0.2,0.6-0.3,1c-0.1,0.2-0.1,0.5-0.1,0.7
	c0,0.3-0.1,0.6-0.1,0.9c0,0.1,0,0.2,0,0.3c0,0.2,0,0.3,0,0.5c0,0.1,0,0.1,0,0.2c0,0,0.1,0.1,0.1,0.1c0,0,0.1,0,0.1-0.1
	c0,0,0-0.1,0-0.1c0-0.3,0.1-0.6,0.1-0.8c0.1-0.4,0.1-0.7,0.2-1.1c0.1-0.3,0.1-0.5,0.2-0.8c0.1-0.3,0.3-0.7,0.5-1c0,0,0,0,0,0
	c0,0,0,0,0,0c-0.1,0.4-0.1,0.8-0.1,1.2c0,0.1,0,0.1,0,0.2c0,0,0,0.1,0,0.1c0,0,0.1,0,0.1,0c0-0.1,0.1-0.1,0.1-0.2
	c0.1-0.3,0.2-0.7,0.3-1c0-0.1,0.1-0.1,0.1-0.2c0,0,0,0,0.1,0c0,0,0.1,0,0.1,0.1c0,0,0,0.1,0,0.1c0,0.1,0,0.1-0.1,0.2
	c-0.2,0.6-0.4,1.3-0.5,1.9c0,0.1,0,0.1,0,0.2c0,0.2-0.1,0.4-0.1,0.6c0,0.1,0,0.2,0,0.4c0,0,0,0.1,0.1,0.1c0.1,0,0.1,0,0.1-0.1
	c0,0,0,0,0-0.1c0-0.1,0-0.1,0-0.2c0.2-0.7,0.5-1.4,0.9-2c0.1-0.1,0.1-0.2,0.1-0.3c0,0,0,0,0-0.1c0,0,0,0-0.1,0c0,0,0,0-0.1,0
	c0,0-0.1,0.1-0.1,0.1c-0.2,0.3-0.4,0.7-0.6,1.1c0,0.1-0.1,0.2-0.1,0.3c0,0,0-0.1,0-0.1c0.1-0.5,0.2-1.1,0.4-1.6
	c0.1-0.3,0.2-0.5,0.3-0.8c0-0.1,0-0.1,0.1-0.2c0,0,0.1,0,0.1,0c0,0,0,0,0,0c0,0,0,0.1,0,0.1c0,0.1,0,0.2,0,0.2c0,0.1,0,0.1,0.1,0.2
	c0.1,0.1,0.1,0.2,0.2,0.3c0.1,0.1,0.1,0.2,0.2,0.3c0,0,0.1,0.1,0.1,0.1c0,0,0.1,0,0.1,0c0,0,0,0,0,0c0-0.1,0.1-0.3,0.1-0.4
	c0-0.1,0-0.1,0-0.2c0,0,0,0,0,0c0,0,0,0,0,0c0,0,0,0.1,0,0.1c0,0.2,0,0.4,0,0.5c0,0.1,0,0.2,0,0.3c0,0.1,0.1,0.2,0.3,0.1
	c0.1,0,0.1-0.1,0.2-0.1c0.1-0.1,0.2-0.1,0.3-0.1c0,0,0.1,0,0.1,0c0,0,0,0,0,0.1c0,0,0,0,0,0c0,0,0,0,0,0.1c-0.3,0.3-0.6,0.6-0.9,0.9
	c0,0,0,0-0.1,0c0,0-0.1,0-0.1,0c0-0.1,0-0.1,0-0.2c0-0.1,0.1-0.1,0.2-0.2c0-0.1,0-0.1,0-0.2c-0.1-0.1-0.1-0.1-0.2-0.2c0,0,0,0,0,0
	c0,0.2,0,0.3,0,0.5s0,0.3,0,0.4c0,0,0,0.1,0,0.1c0,0.1,0.1,0.1,0.1,0.1c0,0,0,0,0,0c0.1-0.1,0.2-0.2,0.3-0.3c0,0,0,0,0,0
	c0,0,0,0.1-0.1,0.1c0,0.1-0.1,0.1-0.1,0.2c-0.3,0.4-0.5,0.9-0.8,1.3c-0.3,0.5-0.5,0.9-0.7,1.4c0,0.1-0.1,0.2-0.1,0.3
	c0,0.1,0,0.1,0.1,0.1c0.1,0.1,0.1,0.1,0.1,0.2c-0.2,0.5-0.4,1-0.6,1.6c-0.4,1-0.7,2.1-1.1,3.2c-0.3,1-0.6,2.1-0.8,3.1
	c-0.1,0.6-0.3,1.3-0.4,1.9c0,0.3-0.1,0.6-0.2,0.9c0,0.2,0,0.3-0.1,0.5c0,0.1,0,0.2,0.1,0.2c0,0,0.1,0,0.1,0.1
	c0.2,0.1,0.4,0.1,0.6,0.2c0.4,0.1,0.9,0.1,1.3,0.1c1-0.1,1.9-0.6,2.6-1.2c0.4-0.4,0.7-0.8,1-1.3c0.4-0.7,0.7-1.4,0.9-2.2
	c0.1-0.4,0.2-0.9,0.3-1.4c0-0.3,0.1-0.7,0.1-1c0-0.3,0-0.5-0.1-0.8c0-0.1-0.1-0.3-0.1-0.4c-0.1-0.1-0.2-0.2-0.4-0.1c0,0,0,0,0,0
	c-0.1,0.1-0.2,0.1-0.2,0.2c-0.1,0.2-0.2,0.3-0.3,0.5c-0.2,0.3-0.3,0.5-0.5,0.8c-0.1,0.2-0.2,0.3-0.3,0.5c0,0,0,0,0-0.1
	c0,0,0-0.1,0-0.1c0,0,0,0,0-0.1c0.3-0.7,0.6-1.4,0.9-2c0.1-0.1,0.1-0.3,0.2-0.4c0-0.1,0-0.1,0-0.1c-0.1,0-0.1,0-0.2,0
	c-0.1,0.1-0.2,0.2-0.3,0.3c-0.1,0.1-0.1,0.1-0.1,0.2c0,0-0.1,0.1-0.1,0.1c0,0,0,0,0-0.1c0-0.1,0.1-0.2,0.1-0.2
	c0.2-0.6,0.5-1.2,1-1.7c0.1-0.1,0.2-0.2,0.3-0.3c0.1-0.1,0.1-0.2,0-0.2c-0.1-0.1-0.2-0.2-0.3-0.2c-0.1,0-0.3-0.1-0.5,0
	c-0.3,0-0.5,0.1-0.8,0.2c-0.1,0-0.2,0.1-0.2,0.1c-0.1,0-0.1,0-0.2,0l0.1-0.1c0,0,0.1-0.1,0.1-0.1c0.4-0.3,0.9-0.6,1.3-0.8
	c0.1,0,0.1-0.1,0.2-0.1c0,0,0.1,0,0.1,0c0,0,0.1,0.1,0.1,0.1c0.2,0.2,0.4,0.4,0.7,0.5c0,0,0.1,0,0.1,0c0.2,0.1,0.3,0.2,0.3,0.4
	c0,0.1,0,0.2,0.1,0.3c0,0.2,0.1,0.3,0.2,0.4c0.2,0.2,0.4,0.4,0.7,0.4c0.3,0,0.5-0.1,0.6-0.3c0.1-0.2,0.2-0.4,0.2-0.7
	c0-0.2,0-0.4,0.1-0.6c0-0.1,0-0.2,0.1-0.2c0.2-0.1,0.4-0.3,0.6-0.4c0,0,0.1,0,0.1,0c0.1,0.1,0.1,0.2,0.2,0.3
	c0.1,0.2,0.2,0.3,0.3,0.4c0.2,0.2,0.2,0.5,0.2,0.7c0,0.3,0,0.5,0,0.8c0,0.3,0,0.5,0,0.8c0,0.2,0,0.5,0,0.7c0,0,0,0.1,0,0.1
	c-0.1,0.2-0.1,0.4-0.1,0.7c0,0.1,0,0.1,0,0.2c0,0.3-0.1,0.5-0.1,0.8c0,0.3-0.1,0.5-0.1,0.8c0,0.1,0,0.2,0,0.4c0,0.2,0,0.4,0,0.6
	c0,0.2,0,0.4,0,0.6c0,0.2,0,0.4,0,0.6c0,0.1,0,0.2,0,0.2c0,0.2,0,0.3,0.1,0.5c0,0.1,0,0.1,0,0.2c0,0.1,0,0.2-0.1,0.2
	c-0.1,0.2-0.2,0.4-0.3,0.6c0,0.1,0,0.1-0.1,0.2c-0.1,0.2-0.1,0.3-0.2,0.5c-0.2,0.2-0.3,0.5-0.3,0.8c0,0,0,0.1,0,0.1
	c0,0.2,0,0.4-0.1,0.6c0,0.1-0.1,0.1-0.1,0.2c-0.1,0.2-0.2,0.4-0.1,0.7c0,0.1,0,0.2,0,0.3c0,0.1,0,0.1,0,0.2c0,0.2-0.1,0.4-0.1,0.7
	c0,0.2-0.1,0.4-0.2,0.5c-0.1,0.2-0.2,0.5-0.2,0.8c0,0,0,0.1,0,0.1c0.1,0.3,0.1,0.5,0.1,0.8c0,0.2,0,0.4,0,0.5c0,0.2,0,0.5,0,0.7
	c-0.1,0.4-0.1,0.7-0.2,1.1c0,0.2-0.1,0.4-0.1,0.7c-0.1,0.4-0.1,0.9-0.2,1.3c0,0.1,0,0.1,0,0.2c0,0.2,0.1,0.5,0.1,0.7
	c0,0.2,0.1,0.4,0.1,0.6c0,0.1,0.1,0.2,0.1,0.3c0,0,0.1,0.1,0.1,0.1c0,0.1,0.1,0.1,0.1,0.2c0,0.1,0,0.2,0,0.4c0,0.2,0,0.4,0,0.7
	c0,0.2,0,0.5,0,0.7c0,0.1,0,0.1,0,0.2c0,0.1,0.1,0.2,0.2,0.2c0.3,0.1,0.6,0.2,0.9,0.2c0.3,0,0.5,0.1,0.8,0.1c0.4,0,0.8,0,1.3,0
	c0.1,0,0.3,0,0.4,0c0.2,0,0.3,0,0.5,0c0.2,0,0.5,0.1,0.7,0.1c0.2,0,0.4,0,0.6,0c0.2-0.1,0.5-0.1,0.7-0.2c0.1,0,0.2-0.1,0.2-0.2
	c0.1-0.4,0.2-0.8,0.1-1.3c0-0.1-0.1-0.2-0.1-0.3c-0.1-0.1-0.2-0.2-0.3-0.3c-0.2-0.2-0.5-0.3-0.7-0.5c-0.2-0.1-0.4-0.3-0.6-0.4
	c-0.1,0-0.1-0.1-0.1-0.2c0,0,0-0.1,0-0.1c0.1-0.2,0.1-0.3,0.1-0.5c0-0.1,0-0.2,0-0.3c0-0.3-0.1-0.7-0.2-1c-0.1-0.2-0.1-0.3-0.1-0.5
	c0-0.1-0.1-0.3-0.1-0.4c-0.1-0.4,0-0.7,0.2-1c0.1-0.2,0.2-0.4,0.3-0.6c0-0.1,0.1-0.2,0.1-0.3c0.1-0.2,0-0.4,0-0.5
	c-0.1-0.1-0.1-0.3,0-0.5c0.1-0.3,0.3-0.6,0.4-0.9c0.2-0.3,0.3-0.6,0.5-1c0.1-0.2,0.2-0.4,0.3-0.6c0.1-0.2,0.2-0.5,0.2-0.7
	c0-0.1,0.1-0.2,0.1-0.3c0-0.1,0.1-0.1,0.1-0.2c0.2-0.2,0.3-0.5,0.3-0.8c0-0.4,0.1-0.8,0.1-1.2c0-0.2,0.1-0.4,0.1-0.6
	c0-0.2,0-0.4,0-0.5c0-0.1,0-0.1,0-0.2c0-0.4,0-0.7,0-1.1c0-0.2,0-0.5,0-0.7v-0.2c0,0,0.1,0,0.1,0c0.1,0.4,0.3,0.7,0.5,1
	c0.2,0.3,0.4,0.7,0.6,1c0.1,0.1,0.1,0.2,0.1,0.3c0.1,0.4,0.2,0.7,0.4,1c0,0.1,0.1,0.1,0.1,0.2c0.1,0.2,0.3,0.4,0.5,0.6
	c0,0,0.1,0.1,0,0.1c0,0,0,0,0,0c-0.1,0.1-0.1,0.1-0.2,0.1c-0.1,0.1-0.2,0.2-0.3,0.3c-0.1,0.2-0.2,0.4-0.2,0.6c0,0.1,0,0.1,0,0.2
	c0,0.4,0,0.8,0,1.2c-0.1,0.5-0.1,0.9,0,1.4c0,0,0,0,0,0c0,0.3,0,0.6-0.2,0.8c0,0.1-0.1,0.1-0.1,0.2c-0.1,0.3-0.2,0.6-0.3,1
	c0,0.1,0,0.2,0,0.3c0,0.1,0,0.3,0,0.4c0,0.4-0.1,0.8-0.2,1.2c-0.1,0.1-0.1,0.3-0.1,0.4c-0.1,0.3-0.1,0.5,0,0.8
	c0.1,0.4,0.1,0.8,0.1,1.2c0,0.6,0,1.1,0,1.7c0,0.2,0,0.4,0,0.6c0,0.2,0.2,0.4,0.4,0.5c0.1,0,0.2,0.1,0.4,0.1c0.3,0,0.5,0,0.8,0.1
	c0.2,0,0.4,0,0.5,0c0.3,0,0.7,0,1,0c0.1,0,0.2,0,0.2,0c0.4,0.1,0.9,0.1,1.4,0c0.2,0,0.4,0,0.5,0c0.3,0,0.6,0,0.9,0
	c0.1,0,0.2,0,0.3-0.1c0.2-0.1,0.4-0.3,0.4-0.6c0-0.2,0-0.3,0-0.5c-0.1-0.3-0.1-0.6-0.2-0.9c0,0,0-0.1,0-0.1c0-0.1-0.1-0.1-0.2-0.2
	c-0.2-0.1-0.4-0.1-0.5-0.2c-0.2-0.1-0.4-0.1-0.6-0.2c-0.2-0.1-0.3-0.1-0.4-0.3c-0.2-0.2-0.2-0.4-0.2-0.7c0,0,0,0,0,0
	c0.1-0.2,0-0.4-0.1-0.6c-0.1-0.4-0.2-0.7-0.4-1c0-0.1-0.1-0.2-0.1-0.2c0-0.1,0-0.2,0-0.3c0-0.1,0.1-0.1,0.1-0.2
	c0.1-0.1,0.2-0.3,0.2-0.5c0-0.1,0.1-0.3,0.1-0.4c0.1-0.4,0.2-0.8,0.1-1.2c0-0.1,0-0.1,0-0.2c0.1-0.3,0.1-0.6,0.2-0.9
	c0-0.2,0.1-0.4,0.3-0.6c0.4-0.4,0.6-1,0.7-1.5c0.1-0.4,0.1-0.7,0.2-1.1c0-0.1,0-0.1,0-0.2c0-0.1,0-0.3,0-0.4c0,0,0-0.1,0-0.1
	c0-0.3,0.1-0.5,0.1-0.8c0-0.3,0-0.5,0-0.8c0-0.1,0-0.2,0-0.4c0-0.5-0.1-1-0.2-1.4c-0.1-0.2-0.1-0.3-0.1-0.5c0-0.3-0.1-0.5-0.1-0.7
	c-0.1-0.3-0.2-0.7-0.3-1C52,56.7,52,56.4,52,56.2c0-0.1,0-0.2,0-0.3c-0.1-0.4-0.1-0.8-0.1-1.3c0-0.2,0-0.4,0-0.6c0-0.1,0-0.2,0-0.3
	c0-0.5-0.2-0.9-0.5-1.3c-0.1-0.2-0.2-0.3-0.3-0.5c-0.1-0.1-0.2-0.3-0.3-0.4c-0.1-0.2-0.2-0.5-0.1-0.7c0-0.1,0-0.1,0.1-0.2
	c0.2-0.5,0.3-1,0.4-1.5c0-0.1,0-0.2,0-0.3c0-0.1-0.1-0.2-0.2-0.2c-0.1,0-0.2-0.1-0.2-0.1c-0.1,0-0.1-0.1-0.1-0.2
	c0.1-0.3,0.2-0.7,0.2-1c0-0.1,0-0.2,0-0.2c0,0,0.1-0.1,0.1-0.1c0.2,0.1,0.4,0.1,0.6,0.2l0.3,0.1c0.3,0.1,0.7,0.1,1,0
	c0.1,0,0.2,0,0.3,0c0.1,0,0.2,0,0.2,0.1c0.1,0.1,0.1,0.3,0.2,0.5c0.1,0.2,0.1,0.5,0.1,0.7c0,0.1,0,0.2,0,0.2
	c0.1,0.4,0.1,0.7,0.1,1.1c0,0.1,0,0.2,0,0.3c0,0.1,0,0.2,0,0.3c0,0.1,0,0.2,0,0.2c0,0.1,0,0.3,0.1,0.4c0,0,0,0,0,0.1
	c0,0.3,0.1,0.5,0.1,0.8c0,0.2,0.1,0.4,0.1,0.6c0,0.1,0,0.1,0,0.2c0,0.2,0,0.4,0.1,0.6c0,0,0,0,0,0.1c0,0.4,0.1,0.9,0.1,1.3
	c0,0.3,0,0.5,0.1,0.8c0,0.2,0,0.4,0,0.6c0,0.2,0,0.5,0.1,0.7c0,0.1,0,0.2,0,0.3c0,0.2,0,0.4,0,0.6c0,0.3,0.1,0.6,0.1,1
	c0.1,0.4,0.1,0.7,0.2,1.1c0,0.1,0,0.2,0,0.3c0.1,0.5,0.1,0.9,0.2,1.4c0,0.1,0,0.1,0,0.2c0,0.1,0,0.3,0.1,0.4c0,0,0,0.1,0,0.1
	c0,0.4,0.1,0.8,0.1,1.1c0,0.2,0.1,0.4,0.1,0.6c0,0,0,0.1,0,0.1c0.1,0.2,0.1,0.5,0.1,0.7c0,0.1,0,0.2,0,0.4c0,0.1,0,0.2,0,0.4
	c0,0.4,0,0.7,0.1,1.1c0,0.3,0.1,0.7,0.1,1c0.1,0.4,0.1,0.8,0.2,1.2c0,0.3,0.1,0.5,0.1,0.8c0,0,0,0.1,0,0.1c0.1,0.4,0.1,0.7,0.2,1.1
	c0,0.3,0.1,0.5,0.1,0.8c0,0.1,0,0.2,0.1,0.3c0,0.2,0,0.4,0.1,0.6c0,0.1,0,0.3-0.1,0.4c-0.3,0.4-0.7,0.8-1.1,1.2
	c-0.7,0.7-1.4,1.3-2.2,1.8c-1.1,0.7-2.2,1.4-3.4,1.9c-1,0.5-2,0.9-3,1.2c-0.7,0.2-1.4,0.4-2.1,0.6c-0.3,0.1-0.6,0.1-0.9,0.2
	c-0.3,0-0.5,0.1-0.8,0.1c-0.3,0-0.5,0.1-0.8,0.1c-0.4,0.1-0.7,0-1.1,0.1c-0.2,0-0.4,0-0.6,0c-0.3,0-0.5,0-0.8,0c-0.2,0-0.4,0-0.7,0
	l-0.5,0c-0.2,0-0.3,0-0.5,0c0,0-0.1,0-0.1,0c-0.3,0-0.6,0-1-0.1c-0.2,0-0.4,0-0.5-0.1c-0.3,0-0.5-0.1-0.8-0.1
	c-0.2,0-0.4-0.1-0.6-0.1c-0.4-0.1-0.8-0.1-1.2-0.2c-0.5-0.1-0.9-0.2-1.4-0.3c-0.9-0.2-1.8-0.4-2.7-0.6c-1.3-0.3-2.5-0.7-3.8-1.2
	c-0.8-0.3-1.7-0.6-2.5-1c-1.2-0.5-2.4-1.1-3.6-1.7c-2.6-1.5-5.1-3.2-7.3-5.3c-0.9-0.9-1.8-1.8-2.7-2.7c-1.7-1.9-3.2-4-4.5-6.2
	c-0.7-1.1-1.3-2.3-1.8-3.5c-0.8-1.6-1.4-3.3-1.9-5.1c-0.4-1.1-0.7-2.3-0.9-3.5c-0.1-0.6-0.2-1.2-0.3-1.8c-0.1-0.3-0.1-0.7-0.2-1
	c0-0.2-0.1-0.5-0.1-0.7c0-0.3-0.1-0.6-0.1-0.9c0-0.1,0-0.2,0-0.3c0-0.2,0-0.3,0-0.5c0-0.1,0-0.2,0-0.3c0-0.3,0-0.6-0.1-0.9
	c0-0.1,0-0.2,0-0.3c0-0.9,0-1.8,0-2.6c0-0.1,0-0.2,0-0.2C0,38.5,0,38.2,0,37.9c0-0.1,0-0.2,0-0.3c0,0,0-0.1,0-0.1
	c0-0.3,0.1-0.6,0.1-1c0-0.2,0-0.4,0.1-0.6c0.1-0.4,0.1-0.8,0.2-1.2c0.1-0.5,0.2-1,0.3-1.6c0.2-0.9,0.4-1.8,0.6-2.7
	c0.3-1.3,0.7-2.5,1.2-3.8C3,25.4,3.5,24.2,4,23.1c0.7-1.5,1.5-3,2.4-4.5c0.9-1.5,1.9-2.9,3.1-4.2c0.4-0.5,0.8-0.9,1.2-1.3
	c2-2,4.1-3.8,6.4-5.4c1.5-1,3-2,4.6-2.9c1.8-1,3.6-1.8,5.5-2.5C28.6,1.8,30,1.4,31.5,1c0.8-0.2,1.7-0.4,2.6-0.5
	c0.5-0.1,1.1-0.2,1.6-0.2s1.1-0.1,1.6-0.2c0.5,0,0.9-0.1,1.4-0.1c1-0.1,2,0,2.9,0c0.5,0.1,1.1,0,1.6,0.1c0.3,0,0.6,0,1,0.1
	c0.4,0.1,0.9,0.1,1.3,0.2c0.5,0.1,1,0.2,1.5,0.2c0.5,0.1,1,0.2,1.4,0.3c1.1,0.2,2.2,0.5,3.3,0.9c1.4,0.4,2.8,1,4.2,1.6
	c1,0.4,2,0.9,3,1.5c1.2,0.6,2.3,1.4,3.5,2.1c1.4,0.9,2.7,2,3.9,3c0.9,0.8,1.8,1.7,2.7,2.6c1.3,1.4,2.5,2.8,3.6,4.4
	c0.8,1.1,1.6,2.2,2.3,3.4c1.9,3.2,3.2,6.6,4.1,10.2c0.2,0.6,0.3,1.3,0.4,1.9c0.1,0.4,0.1,0.8,0.2,1.2c0.1,0.4,0.1,0.9,0.2,1.3
	c0,0.1,0,0.2,0,0.2c0,0.1,0,0.3,0,0.4c0,0,0,0,0,0.1c0,0.4,0.1,0.7,0.1,1.1s0,0.7,0.1,1.1c0,0.2,0,0.4,0,0.5c0,0.4,0,0.7,0,1.1
	c0,0.3,0,0.6,0,0.9c0,0.3,0,0.6,0,1c0,0.1,0,0.2,0,0.3c0,0.2,0,0.4,0,0.5c0,0.1,0,0.3,0,0.4c0,0,0,0.1,0,0.1c0,0.3-0.1,0.6-0.1,1
	c0,0.2,0,0.4-0.1,0.7c0,0.3-0.1,0.6-0.1,0.9c-0.1,0.4-0.1,0.8-0.2,1.2c-0.1,0.4-0.2,0.8-0.2,1.2c-0.2,0.9-0.4,1.7-0.6,2.6
	c-0.3,1.2-0.7,2.3-1.1,3.4c0,0,0,0.1,0,0.1c0,0,0,0,0,0c0-0.1,0-0.2,0.1-0.3c0.1-0.6,0.3-1.2,0.4-1.9c0.1-0.3,0.1-0.6,0.2-0.9
	c0.1-0.4,0.1-0.8,0.2-1.1c0-0.2,0.1-0.5,0.1-0.7c0-0.1,0-0.2,0-0.3c0-0.1,0-0.2,0-0.3c0-0.1,0-0.1,0-0.2c0-0.2,0-0.4,0.1-0.6
	c0-0.5,0.1-0.9,0.1-1.4c0-0.1,0-0.2,0-0.2c0-0.3,0.1-0.7,0-1c0-0.7,0-1.4,0-2.1c0-0.4,0-0.7-0.1-1.1c0-0.1,0-0.2,0-0.4
	c0-0.2,0-0.5-0.1-0.7c0-0.1,0-0.1,0-0.2c0-0.2,0-0.4,0-0.5c0-0.1,0-0.2,0-0.2c0-0.1,0-0.1,0-0.2c0-0.3-0.1-0.5-0.1-0.8
	c0-0.2-0.1-0.5-0.1-0.7c0-0.3-0.1-0.7-0.2-1c-0.1-0.4-0.2-0.8-0.2-1.2c-0.1-0.6-0.2-1.1-0.4-1.6c-0.3-1.4-0.7-2.7-1.2-4.1
	c-0.4-1.1-0.8-2.1-1.3-3.2c-0.6-1.2-1.2-2.4-1.8-3.6c-0.1-0.1-0.1-0.2-0.2-0.3c0-0.1-0.1-0.1-0.2-0.1c-0.2,0-0.3,0.1-0.5,0
	c-0.1,0-0.2,0-0.3,0c-0.2,0-0.3,0.1-0.5,0c-0.1,0-0.1,0-0.2,0c-0.1,0-0.2,0-0.3,0c0,0-0.1,0-0.1,0c-0.2,0-0.4,0-0.6,0.1
	s-0.4,0.1-0.6,0.1c-0.2,0-0.5,0.1-0.7,0.1c-0.3,0.1-0.6,0.1-0.9,0.2c-0.3,0-0.6,0.1-0.8,0.2c-0.4,0.1-0.8,0.2-1.2,0.2
	c-0.9,0.2-1.9,0.4-2.8,0.7l-0.3,0.1c-0.1,0-0.1,0-0.2-0.1c-0.7-0.5-1.4-1-2.2-1.4l0,0c-0.2-0.1-0.3-0.2-0.5-0.3c0,0,0,0,0-0.1
	c0,0,0-0.1,0.1-0.1c0.1,0,0.1,0,0.2-0.1c0.5-0.1,0.9-0.3,1.4-0.4c0.9-0.2,1.8-0.4,2.7-0.6c0.6-0.1,1.3-0.2,1.9-0.3
	c0.5-0.1,0.9-0.1,1.4-0.2c0.3,0,0.6-0.1,0.9-0.1c0.2,0,0.5,0,0.7-0.1c0.1,0,0.1,0,0.2-0.1c0,0,0,0,0-0.1c0,0,0-0.1,0-0.1
	c-0.3-0.4-0.5-0.8-0.8-1.2c0,0,0-0.1-0.1-0.1c0-0.1-0.1-0.1-0.2-0.1c-0.2,0.1-0.5,0-0.8,0.1c-0.1,0-0.2,0-0.3,0
	c-0.2,0.1-0.5,0.1-0.8,0.1c-0.2,0-0.4,0.1-0.7,0.1c-0.2,0-0.4,0.1-0.6,0.1c-0.3,0-0.5,0.1-0.8,0.1c-0.3,0.1-0.7,0.1-1,0.2
	c-0.3,0.1-0.6,0.1-0.9,0.2c-0.5,0.1-0.9,0.2-1.4,0.3c-0.7,0.2-1.4,0.3-2.1,0.5c-0.4,0.1-0.9,0.2-1.3,0.4c0,0-0.1,0-0.1,0
	c-0.1,0-0.2,0-0.3,0c-0.1-0.1-0.3-0.2-0.4-0.2c-0.3-0.2-0.6-0.3-0.9-0.5c-0.5-0.3-1-0.5-1.4-0.8c-0.2-0.1-0.4-0.2-0.6-0.3
	c0,0,0,0,0-0.1c0,0,0-0.1,0.1-0.1c0,0,0,0,0.1,0c0.1,0,0.2-0.1,0.3-0.1c1.5-0.4,3-0.8,4.5-1.1c1.2-0.2,2.3-0.4,3.5-0.6
	c0.8-0.1,1.6-0.2,2.4-0.3c0.3,0,0.6-0.1,1-0.1c0.1,0,0.3,0,0.4-0.1c0.1,0,0.1-0.1,0.1-0.1c0,0,0,0,0,0c0,0-0.1-0.1-0.1-0.1
	c-0.3-0.3-0.6-0.6-0.9-0.9c0,0,0,0-0.1-0.1c-0.1,0-0.1-0.1-0.2-0.1c0,0,0,0,0,0c-0.3,0.1-0.6,0-1,0.1c0,0-0.1,0-0.1,0
	c0,0-0.1,0-0.1,0c-0.3,0-0.6,0.1-1,0.1c-0.1,0-0.2,0-0.2,0c-0.1,0-0.1,0-0.2,0c-0.2,0-0.3,0.1-0.5,0.1c-0.3,0-0.5,0.1-0.8,0.1
	c-0.1,0-0.1,0-0.2,0c-0.1,0-0.2,0-0.4,0c-0.2,0-0.5,0.1-0.7,0.1c-0.2,0-0.4,0.1-0.6,0.1c-0.3,0-0.5,0.1-0.8,0.1
	c-0.2,0-0.3,0-0.5,0.1c-0.2,0-0.4,0.1-0.6,0.1c-0.5,0.1-1,0.2-1.4,0.3c-0.5,0.1-0.9,0.2-1.4,0.3c-0.1,0-0.1,0-0.2,0c0,0-0.1,0-0.1,0
	c0,0,0-0.1,0-0.1c0-0.1,0.1-0.1,0.1-0.2c0-0.1,0.1-0.2,0.1-0.3c0,0,0,0,0-0.1c0-0.1,0-0.1,0.1-0.2c0-0.1,0-0.1-0.1-0.1
	c0,0-0.1,0-0.2,0c0,0-0.1,0.1-0.1,0.1l-1,0.9c-0.1,0.1-0.2,0.2-0.3,0.3c0,0-0.1,0-0.1,0c0,0,0,0-0.1,0c0,0-0.1-0.1-0.1-0.1
	c-0.2-0.2-0.4-0.5-0.6-0.7c-0.2-0.2-0.3-0.3-0.5-0.5c-0.1-0.1-0.2-0.1-0.3-0.2c-0.1-0.1-0.2,0-0.3,0.1c0,0,0,0,0,0
	c0,0.1,0,0.1-0.1,0.2c0,0.1-0.1,0.2-0.1,0.3c0,0.1-0.1,0.1-0.1,0.1c0,0,0,0,0,0c0,0-0.1,0-0.1-0.1c-0.2-0.1-0.5-0.2-0.7-0.2
	c-0.1,0-0.2,0-0.4,0c-0.3,0-0.7,0.1-1,0.2c-0.2,0.1-0.5,0.2-0.7,0.2c0,0-0.1,0-0.1,0c-0.1,0-0.1,0-0.1-0.1c0,0,0,0,0,0
	c0-0.2,0-0.4,0-0.7c0-0.1,0-0.1,0.1-0.1c0.1,0,0.1-0.1,0.2-0.1c1.6-0.5,3.1-1,4.7-1.3c0.9-0.2,1.8-0.4,2.7-0.5
	c0.7-0.1,1.3-0.2,2-0.3c0.5-0.1,1.1-0.1,1.6-0.2c0.5,0,0.9-0.1,1.4-0.1c0.4,0,0.9-0.1,1.3-0.1c0.1,0,0.2,0,0.3,0c0,0,0-0.1,0-0.1
	c0,0-0.1-0.1-0.1-0.1c-0.4-0.2-0.7-0.5-1.1-0.7c-1.1-0.7-2.2-1.3-3.4-1.8c-1.6-0.8-3.3-1.4-5-1.9c-0.8-0.3-1.7-0.5-2.6-0.7
	c-0.5-0.1-1.1-0.2-1.6-0.3c-0.3-0.1-0.6-0.1-1-0.2C47,8,46.8,8,46.6,7.9c-0.1,0-0.1,0-0.2,0c-0.1,0-0.2,0-0.3,0c-0.1,0-0.2,0-0.3,0
	c-0.1,0-0.2,0-0.4,0c0,0-0.1,0-0.1,0c-0.4,0-0.8-0.1-1.2-0.1c-0.1,0-0.2,0-0.2,0c-0.2,0-0.5-0.1-0.7,0c-0.7,0-1.5,0-2.2,0
	c-0.2,0-0.4,0-0.5,0c-0.1,0-0.2,0-0.3,0c-0.2,0-0.4,0-0.6,0.1c0,0-0.1,0-0.1,0c-0.2,0-0.4,0-0.6,0.1c-0.1,0-0.1,0-0.2,0
	c-0.1,0-0.2,0-0.3,0c0,0-0.1,0-0.1,0c-0.4,0-0.8,0.1-1.2,0.2c-0.4,0.1-0.7,0.1-1.1,0.2c-0.5,0.1-1.1,0.2-1.6,0.4
	C33.2,9,32,9.4,30.8,9.8c-0.7,0.3-1.4,0.6-2.1,0.9c-0.7,0.3-1.3,0.6-1.9,1c-1.1,0.6-2.1,1.2-3.1,1.9c-0.1,0-0.1,0.1-0.2,0.1
	c0,0-0.1,0.1-0.1,0.1c0,0,0.1,0.1,0.1,0.1c0,0,0.1,0,0.1,0c0.5,0,1,0.1,1.5,0.1c0.5,0,0.9,0.1,1.4,0.1c0.8,0.1,1.7,0.2,2.5,0.3
	c0.8,0.1,1.6,0.2,2.3,0.4c1.9,0.3,3.8,0.7,5.6,1.3c1.3,0.4,2.6,0.9,3.8,1.4c0.5,0.2,1,0.4,1.5,0.7c0.3,0.2,0.3,0.2,0.6,0
	c0,0,0.1,0,0.2-0.1c0,0,0.1,0,0.1,0c0.3,0.3,0.5,0.6,0.8,0.9c0,0,0,0,0,0c0,0,0,0,0,0c0,0-0.1,0-0.1,0c-0.3-0.1-0.6-0.1-0.9,0
	c-0.2,0-0.5,0.1-0.7,0.2c-0.1,0-0.2,0.1-0.3,0.1c0,0-0.1,0-0.1,0.1c0,0,0,0.1,0,0.1c0.1,0,0.1,0,0.2,0c0.1,0,0.3,0,0.4,0
	c0.3,0,0.5,0,0.8,0c0.1,0,0.3,0,0.4,0.1c0,0,0.1,0,0.1,0.1c0,0,0,0,0,0c0,0,0,0,0,0c0,0-0.1,0-0.1,0c-0.4,0-0.7,0-1.1,0
	c0,0-0.1,0-0.1,0c0,0-0.1,0-0.1,0c-0.3,0-0.7-0.1-1-0.1s-0.6,0-1,0c-0.3,0-0.7,0.1-1,0.2c-0.4,0.2-0.7,0.4-0.9,0.8
	c-0.2,0.2-0.3,0.5-0.3,0.8c0,0.1,0,0.2,0,0.3c0,0.1,0.1,0.1,0.2,0.1c0.1,0,0.1-0.1,0.2-0.1c0.2-0.1,0.3-0.3,0.5-0.4
	c0.1-0.1,0.3-0.2,0.4-0.3c0.4-0.2,0.9-0.3,1.3-0.2c0.1,0,0.2,0,0.3,0c0.1,0,0.1,0,0.2,0.1c-0.1,0-0.1,0-0.2,0
	c-0.3,0-0.6,0.1-0.9,0.3l0,0c-0.1,0-0.1,0.1-0.1,0.2c0,0.1,0.1,0.1,0.1,0.1c0.1,0,0.2,0,0.3,0c0.2,0,0.4,0,0.6,0c0,0,0.1,0,0.1,0.1
	c-0.4,0-0.7,0.1-1.1,0.1C39.5,21.9,39.3,22,39,22c-0.2,0-0.3,0.1-0.5,0.2c-0.1,0-0.1,0.1-0.1,0.1c0,0,0,0.1,0,0.2c0,0,0,0,0,0
	c0,0,0.1,0,0.1,0c0.1,0,0.2,0,0.3,0c0.3,0,0.6,0,0.9,0c0.1,0,0.2,0,0.3,0.1c-0.1,0-0.2,0.1-0.3,0.1c-0.3,0-0.7,0.1-1,0.2
	c-0.6,0.2-1.2,0.3-1.7,0.6c-0.3,0.1-0.6,0.3-1,0.4c-0.1,0-0.1,0-0.1,0.1c-0.1,0-0.1,0.1-0.1,0.2c0,0.1,0.1,0.1,0.2,0.1
	c0,0,0.1,0,0.1,0h0.1c0.2,0,0.3,0,0.5,0c0.4,0,0.8,0,1.2,0c0.2,0,0.4,0.1,0.5,0.2c0,0,0.1,0,0.1,0.1c0,0,0,0-0.1,0.1
	c0,0-0.1,0-0.1,0c-0.2,0-0.5,0.1-0.7,0.1c-0.3,0-0.6,0.1-1,0.1c-0.2,0-0.5-0.1-0.7-0.1c-0.2-0.1-0.3-0.2-0.5-0.3
	c-0.1,0-0.1-0.1-0.2-0.1c0,0-0.1,0-0.1,0c0,0-0.1,0.1,0,0.1c0,0.2,0.1,0.4,0.3,0.5c0.1,0.1,0.3,0.2,0.4,0.3c0.1,0,0.2,0.1,0.2,0.1
	s0.2,0.1,0.2,0.1c0,0,0,0,0,0c-0.1,0-0.2,0-0.3,0c-0.3-0.1-0.5-0.2-0.7-0.4c-0.1-0.1-0.2-0.2-0.3-0.4c-0.1-0.1-0.2-0.3-0.3-0.4
	c0,0-0.1-0.1-0.1-0.1c0,0-0.1,0-0.1,0c0,0,0,0.1,0,0.1c0,0,0,0.1,0,0.1c0.1,0.2,0.2,0.5,0.2,0.7c0,0.1,0.1,0.2,0.1,0.3
	c0.2,0.4,0.5,0.7,0.9,0.8c0.1,0,0.2,0,0.3,0.1c0,0,0,0,0,0.1c0,0-0.1,0.1-0.1,0.1c-0.1,0.1-0.2,0.2-0.3,0.2c-0.1,0.1-0.1,0.1,0,0.2
	c0,0,0.1,0.1,0.1,0.1c0,0,0,0,0,0.1c0,0-0.1,0.1-0.1,0.1c-0.3,0.2-0.6,0.4-0.8,0.6c-0.4,0.3-0.7,0.6-1,1c-0.1,0.1-0.1,0.1-0.2,0.2
	c0,0-0.1,0-0.1,0c0,0-0.1-0.1-0.1-0.1c-0.1-0.1-0.2-0.2-0.4-0.3c-0.2-0.1-0.3-0.3-0.5-0.4c0,0-0.1,0-0.1-0.1
	c-0.1-0.1-0.2-0.1-0.3-0.2c0,0-0.1,0-0.1,0c-0.1,0-0.1,0.1-0.1,0.1c0,0,0,0,0,0c0,0,0,0.1,0.1,0.1c0.3,0.3,0.5,0.6,0.7,0.9
	c0,0,0,0,0,0.1c0,0,0,0.1,0,0.1c0,0,0,0,0,0c-0.6,0.5-1.1,1-1.7,1.6c-0.4,0.4-0.9,0.9-1.3,1.3c-1,1-1.9,2-2.8,3
	c-0.9,1-1.7,2-2.5,3.1c-1,1.4-2,2.8-2.9,4.2c-0.7,1.1-1.3,2.3-1.9,3.5c-0.8,1.6-1.5,3.2-2.1,4.8c-0.4,1-0.7,2-1,3
	c0,0.1,0,0.1-0.1,0.2c-0.1,0.1,0,0.3,0.1,0.4c0.2,0.3,0.5,0.5,0.7,0.8c0.4,0.5,0.9,0.9,1.4,1.4C18.1,56.4,18.2,56.4,18.2,56.5z
	 M16.3,21.1c0.6,0,1.1,0.1,1.7,0.1c0.8,0.1,1.5,0.2,2.3,0.3c1.2,0.2,2.4,0.5,3.6,0.8c1.7,0.4,3.4,0.9,5,1.5c0.7,0.3,1.4,0.5,2.1,0.8
	c0.1,0,0.1,0,0.2,0.1c0.1,0,0.1,0,0.2,0c0,0,0.1-0.1,0.1-0.1c0.5-0.3,0.9-0.7,1.4-1c0,0,0.1-0.1,0.1-0.1c0,0,0-0.1,0-0.1
	c0,0,0,0,0,0c-0.1-0.1-0.3-0.1-0.5-0.2c-0.6-0.2-1.2-0.5-1.8-0.7c-0.2-0.1-0.5-0.2-0.7-0.2c-0.7-0.2-1.4-0.4-2.2-0.6
	c-0.8-0.2-1.6-0.4-2.4-0.6c-0.4-0.1-0.9-0.2-1.4-0.3c-0.3-0.1-0.7-0.1-1-0.2c-0.3-0.1-0.6-0.1-0.9-0.2c-0.3-0.1-0.6-0.1-0.9-0.2
	c-0.2,0-0.4-0.1-0.6-0.1c-0.1,0-0.3,0-0.4-0.1c-0.1,0-0.3-0.1-0.4-0.1c0,0-0.1,0-0.1,0c-0.1,0-0.2,0-0.3,0c-0.1,0-0.1,0-0.2,0
	c-0.1,0-0.3-0.1-0.5-0.1c-0.1,0-0.1,0-0.2,0c-0.1,0-0.1,0-0.2,0c-0.1,0-0.3,0-0.4,0c-0.3,0-0.5,0-0.8-0.1c-0.1,0-0.3,0.1-0.3,0.2
	c0,0-0.1,0.1-0.1,0.1c-0.2,0.2-0.4,0.5-0.6,0.7c-0.1,0.1-0.1,0.2-0.2,0.3c0,0,0,0.1,0,0.2c0,0,0,0,0.1,0
	C16.1,21.1,16.2,21.1,16.3,21.1z M10.5,40c0,0.4,0,0.7,0.1,1.1c0,0.4,0.1,0.9,0.2,1.3c0.1,0.4,0.1,0.8,0.2,1.3
	c0.2,1,0.4,1.9,0.7,2.8c0.2,0.6,0.4,1.2,0.7,1.8c0,0.1,0.1,0.1,0.1,0.2c0,0,0.1,0,0.1,0c0,0,0,0,0,0c0.1-0.1,0.1-0.2,0.2-0.3
	c0.3-0.8,0.7-1.7,1.1-2.5c0.6-1.3,1.3-2.6,1.9-3.8c0.6-1,1.2-2,1.9-3c0.5-0.7,1-1.4,1.5-2c0.5-0.6,0.9-1.3,1.4-1.9
	c0.3-0.4,0.5-0.7,0.8-1.1c0.7-0.9,1.4-1.8,2.2-2.6c1-1.1,2.1-2.1,3.3-3.1c0.4-0.4,0.8-0.7,1.3-1.1c0.1-0.1,0.1-0.1,0.2-0.2
	c0,0,0-0.1,0-0.1c-0.1-0.1-0.2-0.2-0.3-0.2c-0.2-0.1-0.5-0.2-0.7-0.3c-0.7-0.3-1.5-0.5-2.2-0.8c-1.3-0.4-2.6-0.8-4-1.2
	c-1.5-0.4-3-0.8-4.5-1.1c-0.3-0.1-0.7-0.1-1-0.2c-0.1,0-0.1,0-0.2,0c-0.1,0-0.2,0-0.3,0c-0.2,0-0.3,0-0.5,0.1c0,0-0.1,0.1-0.1,0.2
	c-0.1,0.2-0.3,0.5-0.4,0.7c-0.2,0.3-0.3,0.5-0.5,0.8c-0.4,0.6-0.7,1.2-1,1.8c-0.1,0.2-0.2,0.3-0.2,0.5c-0.2,0.5-0.4,1-0.5,1.5
	c-0.4,1.1-0.7,2.3-0.9,3.5c-0.1,0.7-0.2,1.3-0.3,2c0,0.2-0.1,0.4-0.1,0.6c0,0.2,0,0.3,0,0.5c0,0.1,0,0.2,0,0.2c0,0.1,0,0.3,0,0.4
	c0,0.1,0,0.2,0,0.3c0,0.3-0.1,0.5-0.1,0.8c0,0.4,0,0.8,0,1.2c0,0,0,0.1,0,0.1c0,0.4,0,0.7,0,1.1C10.5,39.6,10.5,39.8,10.5,40
	L10.5,40z"/>
</svg>
